<?xml version="1.0" encoding="iso-8859-1"?>
<!-- Generator: Adobe Illustrator 16.0.0, SVG Export Plug-In . SVG Version: 6.00 Build 0)  -->
<!DOCTYPE svg PUBLIC "-//W3C//DTD SVG 1.1//EN" "http://www.w3.org/Graphics/SVG/1.1/DTD/svg11.dtd">
<svg version="1.1" id="Capa_1" xmlns="http://www.w3.org/2000/svg" xmlns:xlink="http://www.w3.org/1999/xlink" x="0px" y="0px"
	 width="224.885px" height="224.885px" viewBox="0 0 224.885 224.885" style="enable-background:new 0 0 224.885 224.885;"
	 xml:space="preserve">
<g>
	<path d="M203.71,0H21.194c-1.273,0-2.277,1.023-2.277,2.265v117.911c0,1.242,1.004,2.265,2.268,2.265h182.514
		c1.272,0,2.271-1.022,2.271-2.265V2.265C205.976,1.023,204.965,0,203.71,0z M201.433,58.992h-45.839
		c-0.572-11.229-4.774-21.835-12.738-29.81c-7.978-8.013-18.548-12.291-30.057-12.912V4.545h88.634V58.992z M134.318,63.534h9.693
		c-1.175,16.803-14.395,29.995-31.213,31.201v-9.496c0-1.242-1.001-2.266-2.269-2.266c-1.263,0-2.273,1.023-2.273,2.266v9.496
		c-16.773-1.206-30.011-14.398-31.171-31.201h7.776c1.27,0,2.268-1.023,2.268-2.265c0-1.254-1.004-2.277-2.268-2.277h-7.776
		c1.16-16.839,14.371-30.078,31.171-31.274v9.752c0,1.233,1.001,2.268,2.273,2.268c1.273,0,2.269-1.035,2.269-2.268v-9.752
		c16.818,1.19,30.057,14.428,31.213,31.274h-9.693c-1.267,0-2.266,1.023-2.266,2.277C132.053,62.511,133.052,63.534,134.318,63.534z
		 M108.257,23.166c-19.318,1.203-34.532,16.499-35.716,35.826h-2.539c1.206-20.582,17.491-36.885,38.255-38.191V23.166z
		 M72.547,63.534c1.178,19.303,16.416,34.535,35.716,35.74v2.487c-10.096-0.594-19.604-4.457-26.78-11.679
		c-7.109-7.134-10.827-16.575-11.429-26.57h2.494V63.534z M112.799,99.28c19.315-1.205,34.574-16.443,35.756-35.734h2.545
		c-1.205,20.63-17.622,37.025-38.301,38.24V99.28L112.799,99.28z M148.555,58.992c-1.169-19.339-16.44-34.623-35.756-35.826v-2.451
		c10.12,0.584,19.632,4.458,26.829,11.679c7.105,7.127,10.851,16.571,11.423,26.597H148.555L148.555,58.992z M108.257,4.539v11.68
		C85.111,17.33,66.662,35.78,65.456,58.979H23.462V4.539H108.257z M23.462,63.534h42.04C66.08,74.763,70.27,85.33,78.246,93.307
		c8.022,8.099,18.694,12.413,30.011,13.006v11.572H23.462V63.534z M112.799,117.898v-11.579c23.2-1.196,41.638-19.61,42.844-42.773
		h45.79v54.364L112.799,117.898L112.799,117.898z M119.399,61.089c1.997,1.608,2.984,3.748,2.984,6.415
		c0,2.938-1.023,5.431-3.118,7.307c-2.095,1.878-4.719,2.85-8.017,2.85c-3.568,0-6.287-0.892-8.062-2.582
		c-1.827-1.689-2.856-4.369-2.987-7.925h4.146c0.268,2.496,0.935,4.284,2.006,5.343c1.071,1.075,2.762,1.611,5.039,1.611
		c1.954,0,3.61-0.536,4.853-1.696c1.291-1.166,1.918-2.582,1.918-4.36c0-1.875-0.627-3.291-1.826-4.458
		c-1.06-0.897-2.351-1.428-4.01-1.51c-0.762-0.098-1.471-0.098-2.138-0.098c-0.669,0-1.117,0-1.336,0.098v-3.489
		c0.313,0,0.798,0.104,1.516,0.104c0.667,0,1.334-0.104,2.007-0.173c1.288-0.094,2.323-0.536,3.114-1.254
		c1.127-0.898,1.662-2.131,1.662-3.748c0-1.501-0.584-2.755-1.735-3.738c-1.163-0.898-2.63-1.428-4.417-1.428
		c-1.915,0-3.343,0.625-4.366,1.775c-0.978,1.16-1.559,2.85-1.65,5.164h-3.885c0-3.285,0.847-5.867,2.625-7.746
		c1.738-1.787,4.232-2.761,7.444-2.761c3.032,0,5.48,0.804,7.355,2.313c1.863,1.522,2.802,3.492,2.802,5.979
		c0,2.481-0.938,4.546-2.802,6.062c-0.365,0.269-0.755,0.536-1.169,0.804C118.108,60.282,118.778,60.645,119.399,61.089z
		 M39.437,151.182v-3.69c0-5.931-1.428-9.401,8.217-10.339v-0.134c0,0,7.578-0.756,9.56-2.484c0,0,0.113,1.607,0.935,3.215
		c4.433,1.656,5.033,5.577,4.877,9.755v3.689c0.216-0.091,0.536-0.091,0.667-0.091c0.798,0.213,0.353,2.539,0,3.83
		c-0.313,1.346-1.297,2.186-2.095,1.954c-0.511,3.653-1.741,6.06-3.456,7.745c1.023,0.372,1.602,1.389,2.582,1.955H41.544
		c0.98-0.578,1.604-1.596,2.624-1.955c-1.537-1.51-2.719-4.055-3.273-7.745c-0.804,0.22-2.024-0.663-2.381-2.003
		c-0.38-1.346-0.518-3.568,0.244-3.781C38.989,151.097,39.181,151.097,39.437,151.182z M100.654,151.182v-3.69
		c0-5.931-1.428-9.401,8.217-10.339v-0.134c0,0,7.581-0.756,9.597-2.484c0,0,0.079,1.607,0.883,3.215
		c4.445,1.656,5.055,5.577,4.92,9.755v3.689c0.207-0.091,0.476-0.091,0.658-0.091c0.853,0.213,0.39,2.539,0,3.83
		c-0.316,1.346-1.291,2.186-2.095,1.954c-0.512,3.653-1.766,6.06-3.483,7.745c1.048,0.372,1.632,1.389,2.606,1.955h-19.175
		c0.978-0.578,1.583-1.596,2.631-1.955c-1.559-1.51-2.762-4.055-3.273-7.745c-0.807,0.22-1.985-0.663-2.384-2.003
		c-0.335-1.346-0.511-3.568,0.244-3.781C100.219,151.097,100.404,151.097,100.654,151.182z M161.89,151.182v-3.69
		c0-5.931-1.431-9.401,8.208-10.339v-0.134c0,0,7.575-0.756,9.561-2.484c0,0,0.109,1.607,0.949,3.215
		c4.396,1.656,5.018,5.577,4.878,9.755v3.689c0.207-0.085,0.512-0.085,0.651-0.085c0.81,0.207,0.359,2.533,0,3.824
		c-0.316,1.352-1.291,2.191-2.095,1.961c-0.512,3.653-1.76,6.053-3.435,7.745c1.005,0.365,1.608,1.388,2.563,1.96h-19.162
		c0.95-0.584,1.559-1.595,2.606-1.96c-1.56-1.511-2.716-4.056-3.271-7.745c-0.791,0.219-2.021-0.67-2.374-2.01
		c-0.384-1.34-0.512-3.568,0.237-3.775C161.427,151.097,161.646,151.097,161.89,151.182z M194.077,204.474h11.191v20.411H19.635
		v-20.411h11.186v-33.989h40.833v33.989h20.39v-33.989h40.812v33.989h20.393v-33.989h40.834v33.989H194.077z"/>
</g>
<g>
</g>
<g>
</g>
<g>
</g>
<g>
</g>
<g>
</g>
<g>
</g>
<g>
</g>
<g>
</g>
<g>
</g>
<g>
</g>
<g>
</g>
<g>
</g>
<g>
</g>
<g>
</g>
<g>
</g>
</svg>
