<?xml version="1.0" encoding="iso-8859-1"?>
<!-- Generator: Adobe Illustrator 18.1.1, SVG Export Plug-In . SVG Version: 6.00 Build 0)  -->
<svg version="1.1" id="Capa_1" xmlns="http://www.w3.org/2000/svg" xmlns:xlink="http://www.w3.org/1999/xlink" x="0px" y="0px"
	 viewBox="0 0 47.522 47.522" style="enable-background:new 0 0 47.522 47.522;" xml:space="preserve">
<g>
	<path style="fill:#030104;" d="M11.594,35.768c2.523,3.397,2.375,7.775-0.33,9.787c-2.704,2.008-6.94,0.889-9.466-2.507
		c-2.521-3.395-2.374-7.777,0.33-9.789C4.833,31.251,9.069,32.372,11.594,35.768z M45.393,33.259
		c-2.704-2.008-6.94-0.887-9.466,2.509c-2.524,3.397-2.375,7.775,0.33,9.787c2.704,2.008,6.941,0.889,9.466-2.507
		C48.245,39.653,48.097,35.271,45.393,33.259z M35.756,31.179H11.582c-0.675,0-0.788,0.34-0.328,0.832
		c3.389,3.615,3.678,9.692,3.634,12.273c-0.012,0.674,0.491,1.216,1.163,1.216h15.336c0.674,0,1.223-0.546,1.251-1.218
		c0.291-6.768,2.387-10.561,3.556-12.169C36.588,31.567,36.43,31.179,35.756,31.179z M5.888,25.779
		c0.66,0.143,1.746,0.238,2.384,0.456c1.174,0.404,1.679,1.216,2.318,2.65c0.275,0.616,0.796,1.184,1.47,1.184h10.85
		c0.391,0,0.664,0,0.801,0c0.006,0,0.036,0,0.049,0s0.028,0,0.048,0c0.136,0,0.409,0,0.799,0h10.852
		c0.674,0,1.196-0.569,1.468-1.183c0.638-1.435,1.143-2.247,2.318-2.651c0.638-0.218,1.726-0.313,2.384-0.456
		c2.558-0.554,4.475-2.831,4.475-5.556c0-3.139-2.546-5.684-5.686-5.684c-2.725,0-5,1.916-5.555,4.474
		c-0.143,0.658-0.466,1.644-0.972,2.088c-1.286,1.126-4.149,2.971-9.319,3.225c-0.433,0.021-0.716,0.027-0.819,0.029
		c-0.112-0.002-0.389-0.008-0.808-0.029c-5.168-0.253-8.031-2.098-9.317-3.224c-0.506-0.445-0.829-1.43-0.972-2.089
		c-0.557-2.558-2.832-4.474-5.555-4.474c-3.142,0-5.686,2.544-5.686,5.684C1.415,22.948,3.332,25.225,5.888,25.779z M23.866,18.39
		c-0.697,0-1.285-0.118-1.775-0.314c-0.054,0.453-0.029,0.91,0.186,1.241c0.262,0.407,0.787,0.621,1.602,0.591
		c0.814-0.015,1.353-0.236,1.603-0.657c0.194-0.323,0.213-0.751,0.157-1.175C25.148,18.273,24.561,18.39,23.866,18.39z
		 M12.592,12.243c0-6.225,5.048-11.273,11.273-11.273c6.226,0,11.275,5.049,11.274,11.273c0,6.226-5.048,11.274-11.274,11.274
		C17.64,23.517,12.592,18.469,12.592,12.243z M21.351,17.665c-0.124,0.676-0.138,1.464,0.258,2.078
		c0.409,0.634,1.144,0.956,2.188,0.956c0.031,0,0.064-0.001,0.095-0.001c1.105-0.021,1.87-0.371,2.27-1.042
		c0.358-0.6,0.334-1.339,0.206-1.983c0.948-0.687,1.301-1.745,1.136-2.626c-0.263-1.429-3.572,0-3.572,0h-0.136
		c0,0-3.308-1.429-3.573,0C20.061,15.923,20.411,16.977,21.351,17.665z M21.804,16.232c0.095-0.197,0.332-0.279,0.528-0.188
		c0.195,0.094,0.28,0.331,0.188,0.528c-0.087,0.182-0.208,0.495-0.306,0.855c0.396,0.226,0.901,0.376,1.547,0.376
		c0.733,0,1.298-0.185,1.713-0.467c-0.1-0.317-0.217-0.592-0.299-0.753c-0.102-0.194-0.025-0.433,0.169-0.533
		c0.191-0.099,0.433-0.025,0.533,0.17c0.013,0.024,0.102,0.205,0.204,0.471c0.239-0.4,0.317-0.847,0.246-1.244
		c-0.186-1.007-2.52,0-2.52,0H23.71c0,0-2.332-1.007-2.517,0c-0.085,0.457,0.037,0.977,0.366,1.416
		C21.679,16.511,21.79,16.26,21.804,16.232z"/>
</g>
<g>
</g>
<g>
</g>
<g>
</g>
<g>
</g>
<g>
</g>
<g>
</g>
<g>
</g>
<g>
</g>
<g>
</g>
<g>
</g>
<g>
</g>
<g>
</g>
<g>
</g>
<g>
</g>
<g>
</g>
</svg>
