<?xml version="1.0" encoding="iso-8859-1"?>
<!-- Generator: Adobe Illustrator 16.0.0, SVG Export Plug-In . SVG Version: 6.00 Build 0)  -->
<!DOCTYPE svg PUBLIC "-//W3C//DTD SVG 1.1//EN" "http://www.w3.org/Graphics/SVG/1.1/DTD/svg11.dtd">
<svg version="1.1" id="Capa_1" xmlns="http://www.w3.org/2000/svg" xmlns:xlink="http://www.w3.org/1999/xlink" x="0px" y="0px"
	 width="187.052px" height="187.052px" viewBox="0 0 187.052 187.052" style="enable-background:new 0 0 187.052 187.052;"
	 xml:space="preserve">
<g>
	<path d="M99.423,55.943l-4.408,14.264c0,0-2.509,1.647-3.942,0c-0.524-1.339-5.201-14.264-5.201-14.264S82.547,78.16,80.748,79.88
		c-1.434,1.373-36.769-7.456-38.97-14.416C39.138,67.891,0,103.342,0,103.342l27.858-6.491c0,0,13.016-5.361,20.048,18.45
		c3.909-3.008,19.385-13.566,28.166-3.958c5.273,6.064,17.363,19.766,17.363,19.766l15.792-19.766c0,0,8.33-10.839,28.096,3.154
		c1.924-4.336,7.934-19.808,18.17-18.006c10.065,2.259,31.56,7.794,31.56,7.794L145.22,64.672c0,0-16.903,15.232-40.736,15.232
		C102.566,79.393,99.423,55.943,99.423,55.943z"/>
</g>
<g>
</g>
<g>
</g>
<g>
</g>
<g>
</g>
<g>
</g>
<g>
</g>
<g>
</g>
<g>
</g>
<g>
</g>
<g>
</g>
<g>
</g>
<g>
</g>
<g>
</g>
<g>
</g>
<g>
</g>
</svg>
