<?xml version="1.0" encoding="iso-8859-1"?>
<!-- Generator: Adobe Illustrator 16.0.0, SVG Export Plug-In . SVG Version: 6.00 Build 0)  -->
<!DOCTYPE svg PUBLIC "-//W3C//DTD SVG 1.1//EN" "http://www.w3.org/Graphics/SVG/1.1/DTD/svg11.dtd">
<svg version="1.1" id="Capa_1" xmlns="http://www.w3.org/2000/svg" xmlns:xlink="http://www.w3.org/1999/xlink" x="0px" y="0px"
	 width="333.353px" height="333.354px" viewBox="0 0 333.353 333.354" style="enable-background:new 0 0 333.353 333.354;"
	 xml:space="preserve">
<g>
	<path d="M332.913,148.416c-2.348-35.356-16.435-69.112-39.667-95.038c-20.074-22.419-46.315-38.671-73.89-45.766
		c-2.161-0.552-3.776-0.825-4.954-0.825c-3.092,0-3.843,2.057-3.992,2.687c-0.733,2.967,2.329,4.853,5.807,6.678
		c24.066,12.643,44.093,30.612,57.916,52.001c15.937,24.196,24.367,53.055,23.73,81.284c-0.432,27.898-9.506,55.557-25.544,77.883
		c-15.991,22.397-38.815,39.721-64.317,48.807c-25.311,9.247-54.14,10.496-80.63,3.494c-26.421-6.833-51.062-22.319-69.385-43.606
		c-18.549-21.389-30.499-48.957-33.651-77.687c-3.068-25.179,0.847-51.792,11.313-76.964c1.795-4.323,2.054-6.413,0.997-8.001
		l-1.168-1.508h-1.636c-1.844,0-3.432,1.3-6.074,4.945C11.029,99.9,1.208,129.17,0.115,159.207
		c-1.36,34.726,9.365,69.698,30.189,98.46c20.78,29.117,51.215,50.957,85.691,61.489c8.143,2.558,17.033,4.51,26.437,5.807
		c4.401,0.618,8.767,1.026,13.706,1.315c1.609,0.107,2.906,0.144,4.209,0.18l2.093,0.066c1.351,0.029,2.513,0.042,3.627,0.042
		l3.39-0.036c18.183-0.48,36.07-3.819,53.185-9.932c34.167-12.346,63.867-35.85,83.616-66.167
		C326.11,220.27,335.573,184.03,332.913,148.416z M301.106,247.068c-19.036,29.208-47.643,51.852-80.555,63.735
		c-16.489,5.891-33.729,9.109-51.239,9.577l-3.245,0.036c-1.075,0-2.195-0.012-3.438-0.042l-2.107-0.065
		c-1.225-0.03-2.441-0.072-3.99-0.168c-4.798-0.283-9.01-0.686-13.252-1.262c-9.064-1.261-17.621-3.141-25.455-5.597
		c-33.212-10.142-62.516-31.158-82.521-59.194c-20.032-27.683-30.351-61.285-29.045-94.642c0.864-23.887,7.47-47.249,18.813-67.127
		c-7.131,22.112-9.494,44.931-6.843,66.722c3.285,29.918,15.754,58.694,35.11,80.996c19.122,22.218,44.868,38.383,72.478,45.54
		c11.793,3.111,24.022,4.696,36.359,4.696c16.6,0,32.735-2.822,47.927-8.358c26.644-9.494,50.519-27.61,67.224-51.012
		c16.759-23.328,26.247-52.223,26.697-81.35c0.654-29.441-8.124-59.553-24.728-84.758c-11.926-18.446-28.283-34.458-47.774-46.873
		c21.317,8.073,41.241,21.803,57.153,39.574c22.314,24.905,35.849,57.34,38.101,91.36
		C329.334,183.147,320.231,218.023,301.106,247.068z M38.87,156.883c3.654,13.871,10.097,26.745,18.627,37.218
		c2.408,2.96,4.456,4.335,6.443,4.335c1.279,0,2.441-0.582,3.21-1.597c1.267-1.67,1.327-4.288,0.21-8.245
		c-7.503-26.442-5.75-53.668,4.954-76.678c11.364-24.812,33.456-44.279,59.111-52.08c25.739-7.878,54.988-4.227,78.155,9.881
		c21.81,13.04,38.581,34.555,47.228,60.586c0.984,2.963,2.69,6.911,6.119,6.911c2.96,0,4.701-2.663,5.164-7.908
		c1.183-13.454-0.703-27.727-5.465-41.271c-6.28-17.765-17.414-33.882-32.209-46.591c-14.784-12.784-32.942-21.638-52.519-25.616
		c-5.194-1.051-9.839-1.672-15.036-2.03c-4.465-0.331-9.683-0.462-14.634-0.234c-9.887,0.516-19.783,2.251-29.454,5.152
		c-19.221,5.972-36.683,16.661-50.488,30.907C54.366,63.91,44.337,81.43,39.275,100.257
		C34.199,118.938,34.057,138.523,38.87,156.883z M45.211,101.87C50,84.042,59.5,67.459,72.695,53.906
		c13.096-13.514,29.664-23.652,47.876-29.312c9.175-2.747,18.582-4.396,27.958-4.894c1.555-0.072,3.162-0.105,4.753-0.105
		c3.161,0,6.311,0.129,9.139,0.34c4.936,0.333,9.334,0.921,14.247,1.918c18.543,3.756,35.734,12.145,49.72,24.239
		c13.991,12.021,24.512,27.235,30.426,43.979c4.239,12.063,6.059,24.722,5.29,36.731c-9.265-26.733-26.757-48.828-49.359-62.342
		c-16.003-9.758-34.479-14.919-53.397-14.919c-10.154,0-20.152,1.489-29.711,4.422c-27.301,8.299-50.822,29.009-62.897,55.382
		c-11.094,23.851-13.117,51.927-5.755,79.272c-7.35-9.506-12.919-20.969-16.165-33.291C40.278,138.013,40.414,119.524,45.211,101.87
		z M154.543,66.021c-8.037,0-15.858,2.336-22.608,6.755c-15.183,9.95-37.971,55.214-47.066,74.201
		c-0.981,2.054-0.945,4.186,0.1,5.855c1.039,1.639,2.909,2.594,5.128,2.594l0.294-0.006c21.026-0.732,71.58-3.513,86.829-13.499
		c19.065-12.493,24.422-38.167,11.932-57.226C181.49,72.999,168.552,66.021,154.543,66.021z M189.609,104.164
		c1.104,12.517-4.521,25.259-15.757,32.618c-11.352,7.428-50.359,11.308-83.257,12.479c14.241-29.712,33.414-63.934,44.709-71.34
		c5.75-3.759,12.403-5.75,19.239-5.75c6.02,0,11.8,1.52,16.897,4.297c-3.726,0.057-7.347,1.149-10.484,3.203
		c-5.969,3.918-14.093,18.738-19.854,30.48c-1.009,2.048-0.988,4.176,0.057,5.849c1.027,1.648,2.876,2.588,5.089,2.588l0.369-0.006
		c13.054-0.576,29.882-2.09,35.881-6.032C185.753,110.415,188.125,107.469,189.609,104.164z M179.13,107.415
		c-3.579,2.342-15.922,4.249-32.285,4.999c7.251-14.721,13.94-25.271,17.489-27.604c2.207-1.438,4.765-2.207,7.389-2.207
		c4.579-0.006,8.806,2.288,11.311,6.106C187.117,94.946,185.357,103.332,179.13,107.415z"/>
</g>
<g>
</g>
<g>
</g>
<g>
</g>
<g>
</g>
<g>
</g>
<g>
</g>
<g>
</g>
<g>
</g>
<g>
</g>
<g>
</g>
<g>
</g>
<g>
</g>
<g>
</g>
<g>
</g>
<g>
</g>
</svg>
