<?xml version="1.0" encoding="iso-8859-1"?>
<!-- Generator: Adobe Illustrator 16.0.0, SVG Export Plug-In . SVG Version: 6.00 Build 0)  -->
<!DOCTYPE svg PUBLIC "-//W3C//DTD SVG 1.1//EN" "http://www.w3.org/Graphics/SVG/1.1/DTD/svg11.dtd">
<svg version="1.1" id="Capa_1" xmlns="http://www.w3.org/2000/svg" xmlns:xlink="http://www.w3.org/1999/xlink" x="0px" y="0px"
	 width="202.186px" height="202.186px" viewBox="0 0 202.186 202.186" style="enable-background:new 0 0 202.186 202.186;"
	 xml:space="preserve">
<g>
	<path d="M200.321,108.951c-0.597-0.572-8.074-7.24-20.289-15.059c2.132-0.853,4.281-1.471,6.333-3.13
		c5.517-4.506,8.707-11.055,9.499-19.504c0.305-3.248-2.07-6.04-5.273-6.372c-3.142-0.523-6.059,2.046-6.363,5.301
		c-0.486,5.188-2.223,9.009-5.176,11.46c-4.816,3.997-11.648,3.306-11.728,3.306c-0.743,0-1.297,0.454-1.967,0.63
		c-5.029-2.622-10.376-5.127-16.215-7.408c6.266-3.937,11.441-10.315,11.697-20.465c0.085-3.191-2.46-5.861-5.676-5.986
		c-3.891,0.125-5.918,2.451-5.985,5.7c-0.359,13.226-15.972,14.31-17.762,14.37c-3.216,0.17-5.725,2.914-5.578,6.107
		c0.049,1.19,0.713,2.113,1.352,3.017c0.146,0.341,0.214,0.636,0.427,0.965h0.012c0.755,1.09,1.784,2.052,3.179,2.457
		c26.062,7.133,47.021,21.668,56.373,28.902c-10.132,7.867-33.953,24.289-63.192,30.567c7.77-6.674,12.799-16.368,13.14-27.194
		c0.451-13.177-4.786-26.004-14.31-35.299c-5.029-4.902-10.936-8.163-17.256-10.145c5.614-4.801,10.022-11.63,10.022-21.157
		c0-3.2-2.618-5.824-5.84-5.824c-3.221,0-5.849,2.625-5.849,5.824c0,15.052-20.706,19.841-23.188,20.353
		c-1.017,0.167-1.726,0.286-1.741,0.286C35.341,78.81,3.243,107.715,1.906,108.981C0.697,110.065,0,111.6,0,113.256
		s0.697,3.191,1.906,4.336c1.814,1.644,44.944,40.401,99.187,40.401c54.229,0,97.365-38.764,99.18-40.401
		c1.206-1.151,1.912-2.697,1.912-4.336C202.227,111.588,201.527,110.041,200.321,108.951z M97.886,141.777c-0.298,0-0.597,0-0.898,0
		c-5.76-0.164-11.042-2.502-14.909-6.612c-3.602-3.873-5.517-8.842-5.343-13.969c0.268-8.202,7.085-14.249,16.106-14.37
		c3.105,0.121,5.974,1.376,8.05,3.592c1.939,2.047,2.956,4.677,2.862,7.417c-0.067,1.937-0.923,3.702-2.405,5.06
		c-1.468,1.304-3.38,2.047-5.419,2.047c-0.155,0-0.344,0-0.487,0c-3.136,0-5.73,2.46-5.831,5.645
		c-0.115,3.196,2.408,5.931,5.633,6.047c5.285,0.164,10.139-1.663,13.935-5.061c3.849-3.531,6.065-8.27,6.229-13.354
		c0.195-5.864-1.942-11.527-6.016-15.85c-4.241-4.503-10.002-7.073-16.219-7.24c-14.623-0.287-27.611,11.063-28.111,25.666
		c-0.268,8.037,2.551,15.734,7.971,21.774c-26.856-7.015-48.46-21.958-57.984-29.362c10.477-8.099,35.548-25.373,66.052-31.073
		c0,0,0.469-0.125,0.999-0.167c0.085-0.064,0.173-0.064,0.268-0.064c0.055,0,0.429-0.055,0.554-0.125
		c2.381-0.387,6.442-1.072,8.235-1.185c8.936-0.393,17.047,2.731,23.55,9.061c7.063,6.896,11.101,16.818,10.784,26.506
		C125.035,130.494,112.735,141.777,97.886,141.777z"/>
</g>
<g>
</g>
<g>
</g>
<g>
</g>
<g>
</g>
<g>
</g>
<g>
</g>
<g>
</g>
<g>
</g>
<g>
</g>
<g>
</g>
<g>
</g>
<g>
</g>
<g>
</g>
<g>
</g>
<g>
</g>
</svg>
