<?xml version="1.0" encoding="iso-8859-1"?>
<!-- Generator: Adobe Illustrator 16.0.0, SVG Export Plug-In . SVG Version: 6.00 Build 0)  -->
<!DOCTYPE svg PUBLIC "-//W3C//DTD SVG 1.1//EN" "http://www.w3.org/Graphics/SVG/1.1/DTD/svg11.dtd">
<svg version="1.1" id="Capa_1" xmlns="http://www.w3.org/2000/svg" xmlns:xlink="http://www.w3.org/1999/xlink" x="0px" y="0px"
	 width="168.115px" height="168.115px" viewBox="0 0 168.115 168.115" style="enable-background:new 0 0 168.115 168.115;"
	 xml:space="preserve">
<g>
	<path d="M153.858,50.445c-4.328-0.739-8.74,0.219-12.345,2.78c-3.619,2.555-5.991,6.358-6.766,10.742
		c-0.41,2.465,1.28,4.819,3.739,5.25c2.466,0.423,4.824-1.272,5.257-3.732c0.334-1.961,1.401-3.663,3.026-4.802
		c1.625-1.154,3.557-1.642,5.562-1.25c5.48,0.93,7.376,7.154,6.438,12.785c-1.224,6.938-11.804,10.872-20.329,10.052
		c-15.638-1.813-27.315-7.119-37.919-12.389l-5.785-2.889c-8.541-4.32-17.392-8.764-28.159-12.687
		c-5.535-2.017-11.1-3.711-17.014-5.155C29.765,44.349,11.795,50.642,3.61,65.153c-3.673,6.518-4.578,14.082-2.557,21.287
		c2.022,7.184,6.72,13.164,13.229,16.81c3.603,2.003,7.5,2.955,11.365,2.955c8.139,0,16.058-4.253,20.351-11.809
		c2.561-4.548,3.182-9.845,1.781-14.87c-1.424-5.026-4.695-9.218-9.251-11.773c-3.85-2.156-8.276-2.649-12.544-1.489
		c-4.272,1.198-7.807,3.978-9.964,7.839c-1.242,2.188-0.466,4.968,1.737,6.203c2.202,1.182,4.961,0.449,6.203-1.749
		c0.976-1.743,2.555-2.976,4.464-3.513c1.919-0.583,3.917-0.342,5.649,0.665c2.427,1.352,4.181,3.582,4.937,6.265
		c0.733,2.684,0.399,5.484-0.958,7.919c-3.827,6.785-12.479,9.269-19.326,5.384c-4.381-2.457-7.541-6.468-8.893-11.327
		c-1.379-4.861-0.756-9.953,1.716-14.347c7.452-13.207,23.948-14.591,35.85-11.623c3.361,0.821,6.495,1.907,9.677,2.917
		c-2.494,3.338-4.562,6.889-5.604,10.898c-2.512,9.802-0.203,20.189,6.56,29.211c6.539,8.729,16.501,15.169,28.045,18.124
		c3.655,0.962,7.362,1.424,11.078,1.424c8.037,0,16.038-2.202,23.31-6.47c9.3-5.478,15.98-13.767,18.755-22.861
		c12.359,0.781,26.373-5.363,28.519-17.502C169.715,62.16,163.733,52.13,153.858,50.445z M115.848,106.264
		c-8.518,5.019-18.258,6.441-27.482,4.083c-9.549-2.456-17.713-7.716-23.017-14.785c-5.074-6.763-6.85-14.389-5.026-21.458
		c0.979-3.812,3.161-7.168,5.984-10.083c3.422,1.335,6.716,2.689,9.828,4.09c-3.268,10.003,1.025,21.24,10.966,26.132
		c10.253,5.023,22.272,1.27,27.956-8.138c4.536,1.593,9.608,2.84,14.944,3.857C127.637,96.354,122.683,102.237,115.848,106.264z"/>
</g>
<g>
</g>
<g>
</g>
<g>
</g>
<g>
</g>
<g>
</g>
<g>
</g>
<g>
</g>
<g>
</g>
<g>
</g>
<g>
</g>
<g>
</g>
<g>
</g>
<g>
</g>
<g>
</g>
<g>
</g>
</svg>
