<?xml version="1.0" encoding="iso-8859-1"?>
<!-- Generator: Adobe Illustrator 16.0.0, SVG Export Plug-In . SVG Version: 6.00 Build 0)  -->
<!DOCTYPE svg PUBLIC "-//W3C//DTD SVG 1.1//EN" "http://www.w3.org/Graphics/SVG/1.1/DTD/svg11.dtd">
<svg version="1.1" id="Capa_1" xmlns="http://www.w3.org/2000/svg" xmlns:xlink="http://www.w3.org/1999/xlink" x="0px" y="0px"
	 width="184.793px" height="184.793px" viewBox="0 0 184.793 184.793" style="enable-background:new 0 0 184.793 184.793;"
	 xml:space="preserve">
<g>
	<g>
		<path d="M163.318,85.22c-1.346-0.201-2.527,0.728-2.716,2.037c-0.098,0.664-9.761,66.08-42.319,64.728
			c-7.101-0.323-22.579-9.664-35.872-42.332c3.343-3.246,6.902-5.979,9.882-8.27c1.093-0.84,2.101-1.607,2.987-2.326
			c45.659-36.696,35.661-76.035,35.204-77.694c-0.347-1.272-1.638-2.03-2.935-1.689c-1.279,0.344-2.04,1.659-1.693,2.938
			c0.402,1.541,9.512,38.06-33.587,72.708c-0.862,0.694-1.839,1.443-2.898,2.259c-8.044,6.156-21.495,16.483-22.822,32.084
			c-0.953,11.167,4.521,23.272,16.261,35.963c0.475,0.511,1.117,0.772,1.76,0.772c0.584,0,1.172-0.213,1.632-0.65
			c0.974-0.902,1.035-2.418,0.131-3.393c-10.787-11.648-15.838-22.512-15.001-32.291c0.548-6.479,3.617-11.934,7.502-16.537
			c13.144,31.091,29.225,42.807,39.235,43.263c0.444,0.019,0.901,0.03,1.353,0.03c35.853,0,45.534-66.043,45.93-68.887
			C165.534,86.617,164.626,85.405,163.318,85.22z"/>
		<path d="M43.142,120.979c3.242-12.593,13.487-22.957,30.452-30.812c21.793-10.093,35.938-23.979,42.034-41.257
			c8.646-24.485-2.034-46.64-2.484-47.575c-0.591-1.184-2.021-1.671-3.222-1.09c-1.187,0.585-1.674,2.025-1.09,3.215
			c0.104,0.213,10.255,21.257,2.277,43.854c-5.656,16.012-18.964,28.969-39.527,38.502c-18.325,8.491-29.462,19.914-33.085,33.956
			c-4.059,15.759,1.647,34.343,16.955,55.229c0.472,0.646,1.197,0.986,1.939,0.986c0.49,0,0.99-0.152,1.413-0.469
			c1.069-0.779,1.297-2.283,0.518-3.354C44.893,152.496,39.455,135.27,43.142,120.979z"/>
		<path d="M27.746,97.273c3.617-8.081,9.853-13.232,19.074-15.771C71.922,74.6,88.677,63.725,96.614,49.184
			c7.663-14.047,4.016-26.204,3.854-26.71c-0.393-1.272-1.75-1.985-3.005-1.577c-1.267,0.393-1.964,1.739-1.577,3.005
			c0.03,0.107,3.225,10.699-3.486,22.99c-7.289,13.347-23.057,23.437-46.865,29.982c-10.538,2.896-18,9.098-22.177,18.438
			c-13.832,30.914,13.11,85.826,14.264,88.152c0.42,0.84,1.267,1.328,2.153,1.328c0.362,0,0.722-0.086,1.065-0.256
			c1.185-0.598,1.671-2.028,1.078-3.222C41.656,180.779,14.833,126.147,27.746,97.273z"/>
		<path d="M135.582,97.791c0.651,0,1.193-0.536,1.193-1.2v-5.462c1.163-0.262,2.362-0.633,3.629-1.23l2.284,4.366
			c0.219,0.408,0.639,0.64,1.06,0.64c0.194,0,0.39-0.037,0.565-0.128c0.585-0.311,0.811-1.035,0.493-1.62l-2.308-4.42
			c0.189-0.128,0.384-0.207,0.591-0.335c0.548-0.366,0.713-1.111,0.348-1.669c-0.359-0.554-1.103-0.703-1.663-0.347
			c-0.42,0.268-0.81,0.478-1.224,0.703c-0.085,0.024-0.171-0.019-0.262,0.024c-0.104,0.052-0.128,0.17-0.201,0.253
			c-9.998,5.261-16.191-2.71-16.465-3.069c-0.402-0.529-1.151-0.63-1.687-0.243c-0.53,0.398-0.64,1.147-0.244,1.677
			c0.007,0.012,0.092,0.113,0.195,0.241l-3.13,4.683c-0.365,0.548-0.22,1.303,0.329,1.668c0.207,0.128,0.438,0.195,0.669,0.195
			c0.391,0,0.768-0.183,0.999-0.536l2.868-4.299c1.035,0.901,2.479,1.894,4.269,2.667l-2.113,4.695
			c-0.268,0.603,0,1.309,0.609,1.576c0.152,0.086,0.328,0.109,0.487,0.109c0.456,0,0.907-0.255,1.102-0.706l2.204-4.92
			c1.029,0.256,2.101,0.444,3.288,0.444c0.286,0,0.609-0.055,0.901-0.066v5.103C134.382,97.261,134.906,97.791,135.582,97.791z"/>
		<path d="M121.333,79.718c0.317,0.576,1.042,0.786,1.626,0.475c0.158-0.079,15.582-8.373,27.438,1.778
			c0.231,0.192,0.506,0.286,0.78,0.286c0.335,0,0.676-0.143,0.913-0.417c0.433-0.505,0.377-1.26-0.134-1.689
			c-13.146-11.244-29.989-2.146-30.16-2.052C121.223,78.409,121.01,79.14,121.333,79.718z"/>
		<path d="M114.476,125.112c0.591,0,1.188-0.055,1.821-0.183c2.661-0.542,4.89-2.259,6.619-5.121
			c0.347-0.572,0.164-1.314-0.396-1.662c-0.584-0.341-1.303-0.152-1.656,0.408c-1.363,2.253-3.051,3.604-5.029,4.019
			c-3.44,0.713-6.747-1.62-6.777-1.644c-0.536-0.391-1.291-0.262-1.687,0.273c-0.384,0.536-0.268,1.285,0.268,1.675
			C107.785,122.987,110.768,125.112,114.476,125.112z"/>
		<path d="M105.69,135.896c-0.268,0.615-0.006,1.315,0.597,1.596c0.061,0.023,2.983,1.303,7.41,1.303
			c5.341,0,12.909-1.863,20.375-9.992c0.444-0.487,0.407-1.248-0.079-1.687c-0.481-0.451-1.242-0.414-1.693,0.073
			c-12.409,13.535-24.515,8.336-25.021,8.116C106.67,135.025,105.958,135.294,105.69,135.896z"/>
	</g>
</g>
<g>
</g>
<g>
</g>
<g>
</g>
<g>
</g>
<g>
</g>
<g>
</g>
<g>
</g>
<g>
</g>
<g>
</g>
<g>
</g>
<g>
</g>
<g>
</g>
<g>
</g>
<g>
</g>
<g>
</g>
</svg>
