<?xml version="1.0" encoding="iso-8859-1"?>
<!-- Generator: Adobe Illustrator 16.0.0, SVG Export Plug-In . SVG Version: 6.00 Build 0)  -->
<!DOCTYPE svg PUBLIC "-//W3C//DTD SVG 1.1//EN" "http://www.w3.org/Graphics/SVG/1.1/DTD/svg11.dtd">
<svg version="1.1" id="Capa_1" xmlns="http://www.w3.org/2000/svg" xmlns:xlink="http://www.w3.org/1999/xlink" x="0px" y="0px"
	 width="187.059px" height="187.06px" viewBox="0 0 187.059 187.06" style="enable-background:new 0 0 187.059 187.06;"
	 xml:space="preserve">
<g>
	<path d="M166.368,72.068c0,3.583-0.578,7.207-1.729,10.744c-0.456,1.388-1.753,2.25-3.142,2.25c-0.341,0-0.676-0.024-1.035-0.149
		c-1.724-0.548-2.691-2.433-2.119-4.171c0.932-2.843,1.413-5.763,1.413-8.674c0-10.339-5.603-19.878-14.663-24.853
		c-4.287-2.402-8.914-3.586-13.762-3.586c-1.826,0-3.307-1.453-3.307-3.3c0-1.839,1.48-3.291,3.307-3.291
		c5.979,0,11.691,1.452,16.965,4.359C159.426,47.562,166.368,59.296,166.368,72.068z M187.059,72.068
		c0,5.879-0.938,11.679-2.765,17.208c-6.059,27.441-43.416,58.745-73.654,80.015c-1.157,0.816-2.473,1.23-3.818,1.23
		c-1.047,0-2.082-0.256-3.051-0.743c-2.186-1.139-3.568-3.435-3.568-5.876v-53.578c0-3.654,2.972-6.619,6.619-6.619h6.936
		L93.192,76.899l-20.558,26.805h6.936c3.653,0,6.628,2.972,6.628,6.619v53.061c0,2.454-1.391,4.75-3.574,5.87
		c-2.201,1.096-4.85,0.968-6.872-0.487C51.25,151.504,9.134,118.117,2.594,88.621C0.935,83.671,0,77.892,0,72.068
		c0-20.341,11.055-39.059,28.826-48.811c20.719-11.447,47.7-7.9,64.722,7.858c17.02-15.747,44.019-19.27,64.691-7.858
		C176,33.009,187.059,51.727,187.059,72.068z M173.802,72.068c0-15.515-8.409-29.767-21.963-37.245
		c-17.494-9.572-40.438-5.312-53.207,10.114c-2.479,3.035-7.66,3.035-10.172,0c-12.69-15.29-35.805-19.717-53.232-10.114
		c-13.561,7.466-21.966,21.724-21.966,37.245c0,4.433,0.691,8.829,2.083,13.067c3.867,17.235,24.597,40.509,57.597,65.243v-33.43
		H59.199c-2.521,0-4.813-1.432-5.937-3.685c-1.117-2.265-0.855-4.975,0.679-6.983l33.996-44.296c2.518-3.236,7.986-3.236,10.506,0
		l33.984,44.296c1.534,2.009,1.802,4.719,0.682,6.983c-1.114,2.253-3.41,3.685-5.931,3.685h-13.75v33.947
		c33.418-24.96,54.389-48.409,58.097-65.118C173.115,80.921,173.802,76.525,173.802,72.068z"/>
</g>
<g>
</g>
<g>
</g>
<g>
</g>
<g>
</g>
<g>
</g>
<g>
</g>
<g>
</g>
<g>
</g>
<g>
</g>
<g>
</g>
<g>
</g>
<g>
</g>
<g>
</g>
<g>
</g>
<g>
</g>
</svg>
