<?xml version="1.0" encoding="iso-8859-1"?>
<!-- Generator: Adobe Illustrator 16.0.0, SVG Export Plug-In . SVG Version: 6.00 Build 0)  -->
<!DOCTYPE svg PUBLIC "-//W3C//DTD SVG 1.1//EN" "http://www.w3.org/Graphics/SVG/1.1/DTD/svg11.dtd">
<svg version="1.1" id="Capa_1" xmlns="http://www.w3.org/2000/svg" xmlns:xlink="http://www.w3.org/1999/xlink" x="0px" y="0px"
	 width="197.782px" height="197.781px" viewBox="0 0 197.782 197.781" style="enable-background:new 0 0 197.782 197.781;"
	 xml:space="preserve">
<g>
	<path d="M196.273,143.707c-0.792-0.943-2.247-2.795-4.281-5.377c-7.057-9-13.889-17.457-20.459-25.392
		c5.321-7.374,9.23-14.818,10.851-21.982c1.681-5.188,2.552-10.613,2.552-16.13c0-19.025-10.334-36.559-27.006-45.741
		c-7.709-4.26-16.446-6.497-25.203-6.497c-10.028,0-21.921,5.973-34.659,15.7C70.909,18.304,53.476,20.149,37.06,29.085
		c-16.666,9.182-27.005,26.722-27.005,45.741c0,5.456,0.889,10.878,2.436,15.513c1.839,8.187,6.588,16.705,12.97,25.035
		c-6.454,8.172-12.653,16.233-18.474,23.894c-2.655,3.508-4.555,6.004-5.499,7.148c-2.271,2.759-1.912,6.845,0.883,9.122
		c2.783,2.29,6.844,1.882,9.109-0.883c1.011-1.212,3.002-3.854,5.827-7.575c5.846-7.69,11.417-14.875,16.733-21.592
		c23.687,25.689,58.005,47.416,60.063,48.707c1.035,0.658,2.24,0.998,3.452,0.998c1.206,0,2.405-0.328,3.446-0.998
		c2.113-1.352,38.575-24.441,62.226-51.003c5.882,7.137,12.087,14.833,18.633,23.139c2.119,2.691,3.641,4.628,4.493,5.639
		c2.241,2.728,6.363,3.13,9.109,0.841C198.203,150.533,198.568,146.453,196.273,143.707z M33.881,104.877
		c-4.439-6.196-7.629-12.279-8.896-17.973c-1.291-3.934-1.955-8.001-1.955-12.084c0-14.312,7.782-27.486,20.277-34.395
		c5.846-3.194,12.428-4.89,18.974-4.89c4.829,0,12.812,2.296,25.459,11.231C70.057,62.262,51.308,83.437,33.881,104.877z
		 M97.543,161.019c-13.914-9.109-38.496-27.151-55.284-45.815c23.723-29.222,41.942-48.29,55.917-60.404
		c14.042,11.622,32.474,29.898,56.574,58.298C138.005,132.363,112.017,151.52,97.543,161.019z M162.843,102.629
		c-20.679-24.281-38.775-42.938-54.364-56.112c11.259-8.257,18.974-10.976,24.26-10.976c6.667,0,13.055,1.647,18.943,4.89
		c12.525,6.908,20.307,20.085,20.307,34.395c0,4.147-0.639,8.205-2.095,12.699C168.823,92.29,166.344,97.384,162.843,102.629z
		 M165.499,74.82c0,3.446-0.536,6.844-1.614,10.074c-0.433,1.361-1.698,2.214-3.062,2.214c-0.354,0-0.694-0.061-1.011-0.174
		c-1.699-0.554-2.631-2.387-2.059-4.098c0.865-2.561,1.304-5.261,1.304-8.017c0-9.603-5.225-18.426-13.567-23.041
		c-3.994-2.184-8.257-3.285-12.75-3.285c-1.803,0-3.228-1.453-3.228-3.243c0-1.791,1.425-3.243,3.228-3.243
		c5.596,0,10.936,1.392,15.88,4.11C159.019,51.861,165.499,62.855,165.499,74.82z"/>
</g>
<g>
</g>
<g>
</g>
<g>
</g>
<g>
</g>
<g>
</g>
<g>
</g>
<g>
</g>
<g>
</g>
<g>
</g>
<g>
</g>
<g>
</g>
<g>
</g>
<g>
</g>
<g>
</g>
<g>
</g>
</svg>
