<?xml version="1.0" encoding="iso-8859-1"?>
<!-- Generator: Adobe Illustrator 16.0.0, SVG Export Plug-In . SVG Version: 6.00 Build 0)  -->
<!DOCTYPE svg PUBLIC "-//W3C//DTD SVG 1.1//EN" "http://www.w3.org/Graphics/SVG/1.1/DTD/svg11.dtd">
<svg version="1.1" id="Capa_1" xmlns="http://www.w3.org/2000/svg" xmlns:xlink="http://www.w3.org/1999/xlink" x="0px" y="0px"
	 width="187.041px" height="187.041px" viewBox="0 0 187.041 187.041" style="enable-background:new 0 0 187.041 187.041;"
	 xml:space="preserve">
<g>
	<path d="M158.171,15.692c-20.605-11.436-47.642-7.98-64.605,7.669C76.413,7.767,49.553,4.257,28.887,15.692
		C11.073,25.493,0,44.238,0,64.6c0,5.882,0.947,11.707,2.569,16.575c4.327,19.485,22.558,33.326,41.875,47.939
		c3.927,2.947,7.852,5.919,11.636,8.939c16.572,13.183,31.462,36.559,31.63,36.797c1.242,2.027,3.485,3.245,5.849,3.245h0.03
		c2.375-0.036,4.604-1.248,5.852-3.271c0.128-0.236,14.547-23.272,30.75-36.09c3.824-3.014,7.709-5.992,11.637-8.939
		c18.803-14.169,38.258-28.85,42.478-47.937c1.79-5.547,2.734-11.353,2.734-17.25C187.059,44.238,176,25.493,158.171,15.692z
		 M170.959,78.188c-3.276,14.748-19.888,27.271-37.479,40.532c-4,3.002-7.982,6.017-11.874,9.098
		c-11.562,9.17-21.927,22.39-28.076,31.019c-6.291-8.714-16.986-22.214-28.82-31.628c-3.891-3.099-7.919-6.144-11.871-9.17
		C35.585,105.02,19.318,92.711,15.932,77.521c-1.385-4.165-2.058-8.485-2.058-12.921c0-15.287,8.318-29.398,21.711-36.8
		c6.193-3.416,13.226-5.206,20.265-5.206c12.553,0,24.348,5.55,32.397,15.214c1.285,1.599,3.249,2.5,5.319,2.5
		c2.058,0,4.031-0.941,5.334-2.536c12.489-15.089,35.391-19.485,52.574-9.983c13.396,7.407,21.714,21.513,21.714,36.793
		C173.188,69.024,172.512,73.357,170.959,78.188z M166.258,64.582c0,3.699-0.585,7.316-1.729,10.769
		c-0.475,1.446-1.827,2.368-3.276,2.368c-0.377,0-0.736-0.036-1.083-0.161c-1.827-0.618-2.795-2.569-2.198-4.363
		c0.907-2.74,1.382-5.645,1.382-8.595c0-10.257-5.577-19.683-14.541-24.621c-4.231-2.369-8.793-3.55-13.634-3.55
		c-1.942,0-3.452-1.514-3.452-3.453c0-1.927,1.51-3.449,3.452-3.449c6.022,0,11.74,1.44,16.983,4.396
		C159.329,40.034,166.258,51.813,166.258,64.582z"/>
</g>
<g>
</g>
<g>
</g>
<g>
</g>
<g>
</g>
<g>
</g>
<g>
</g>
<g>
</g>
<g>
</g>
<g>
</g>
<g>
</g>
<g>
</g>
<g>
</g>
<g>
</g>
<g>
</g>
<g>
</g>
</svg>
