<?xml version="1.0" encoding="iso-8859-1"?>
<!-- Generator: Adobe Illustrator 16.0.0, SVG Export Plug-In . SVG Version: 6.00 Build 0)  -->
<!DOCTYPE svg PUBLIC "-//W3C//DTD SVG 1.1//EN" "http://www.w3.org/Graphics/SVG/1.1/DTD/svg11.dtd">
<svg version="1.1" id="Capa_1" xmlns="http://www.w3.org/2000/svg" xmlns:xlink="http://www.w3.org/1999/xlink" x="0px" y="0px"
	 width="178.11px" height="178.11px" viewBox="0 0 178.11 178.11" style="enable-background:new 0 0 178.11 178.11;"
	 xml:space="preserve">
<g>
	<path d="M173.383,48.787c0.92-1.504,0.975-3.398,0.128-4.957c-0.864-1.559-2.479-2.545-4.269-2.569
		c-0.237,0-23.894-0.292-59.235-6.884c0,0-9.718-0.792-12.014-0.91c-10.011-0.841-19.756,3.093-27.24,10.363
		c-8.013,7.794-12.401,18.605-12.047,29.679c0.256,7.651,3.254,14.611,8.089,19.976c-22.704-10.017-41.178-32.428-49.28-43.495
		c8.644-1.001,24.187-2.536,45.438-3.452c2.725-0.125,4.808-2.427,4.707-5.133c-0.125-2.637-2.305-4.701-4.92-4.701
		c-0.073,0-0.144,0-0.216,0c-34.401,1.482-53.618,4.49-54.416,4.628c-1.635,0.268-3.017,1.321-3.693,2.804
		c-0.691,1.51-0.584,3.261,0.283,4.652c1.531,2.426,37.884,59.573,84.325,59.573C135.49,108.36,171.843,51.213,173.383,48.787z
		 M115.664,91.371c2.618-4.286,3.909-9.225,3.763-14.318c-0.42-12.047-10.649-21.568-22.938-21.568c-0.237,0-0.475,0-0.743,0
		c-5.233,0.137-10.083,2.299-13.652,6.077c-3.434,3.641-5.237,8.375-5.082,13.338c0.338,8.854,7.557,16.021,16.998,15.484
		c2.716-0.097,4.835-2.372,4.756-5.072c-0.109-2.661-2.283-4.749-4.92-4.749c-0.134,0-0.293,0-0.408,0
		c-3.528,0-6.455-2.646-6.579-5.974c-0.067-2.326,0.773-4.558,2.402-6.293c1.75-1.852,4.177-2.898,6.789-2.981
		c7.489,0.262,13.323,5.182,13.555,12.078c0.146,4.336-1.449,8.513-4.506,11.755c-3.24,3.458-7.697,5.425-12.56,5.565
		c-0.256,0.025-0.505,0.025-0.767,0.025c-12.477,0-22.816-9.521-23.209-21.565c-0.28-8.156,3.117-16.499,9.073-22.311
		c5.082-4.957,11.524-7.633,18.316-7.633c0.499,0,1.005,0,1.504,0.058c2.187,0.098,10.991,0.816,11.283,0.816
		c23.103,4.332,41.169,5.967,51.313,6.622C152.229,61.245,135.892,80.843,115.664,91.371z M175.995,109.322
		c-0.847,0.603-1.82,0.896-2.807,0.896c-1.535,0-3.069-0.75-4.025-2.113l-11.807-16.892c-1.559-2.207-1.011-5.282,1.224-6.841
		c2.187-1.51,5.273-1.011,6.838,1.215l11.808,16.891C178.784,104.688,178.229,107.764,175.995,109.322z M19.787,84.539
		c2.189,1.586,2.694,4.652,1.108,6.869L8.899,108.056c-0.959,1.321-2.469,2.033-3.985,2.033c-1.007,0-1.988-0.304-2.886-0.925
		c-2.183-1.583-2.688-4.652-1.103-6.868L12.921,85.65C14.511,83.438,17.586,82.98,19.787,84.539z M88.744,120.642v19.193
		c0,2.722-2.208,4.92-4.92,4.92c-2.713,0-4.92-2.21-4.92-4.92v-19.193c0-2.715,2.207-4.914,4.92-4.914
		C86.536,115.728,88.744,117.933,88.744,120.642z M149.751,122.14c1.078,2.467-0.055,5.365-2.545,6.467
		c-0.628,0.274-1.297,0.408-1.961,0.408c-1.9,0-3.696-1.108-4.519-2.953l-7.404-16.892c-1.077-2.472,0.055-5.364,2.539-6.479
		c2.351-1.054,5.371,0.024,6.479,2.539L149.751,122.14z M117.101,117.116l3.812,18.657c0.529,2.673-1.176,5.261-3.837,5.815
		c-0.335,0.055-0.669,0.104-0.979,0.104c-2.302,0-4.342-1.607-4.817-3.934l-3.812-18.67c-0.529-2.66,1.176-5.255,3.836-5.809
		C114.105,112.806,116.547,114.485,117.101,117.116z M63.839,119.083l-3.809,18.67c-0.475,2.326-2.539,3.934-4.813,3.934
		c-0.313,0-0.648-0.049-0.986-0.104c-2.664-0.555-4.366-3.148-3.83-5.815l3.806-18.657c0.554-2.643,3.023-4.25,5.818-3.836
		C62.655,113.834,64.369,116.429,63.839,119.083z M36.751,101.93c2.497,1.108,3.623,4.007,2.545,6.479L31.883,125.3
		c-0.816,1.846-2.612,2.947-4.509,2.947c-0.673,0-1.352-0.128-1.97-0.396c-2.481-1.114-3.617-4.013-2.53-6.473l7.408-16.892
		C31.378,101.979,34.353,100.956,36.751,101.93z"/>
</g>
<g>
</g>
<g>
</g>
<g>
</g>
<g>
</g>
<g>
</g>
<g>
</g>
<g>
</g>
<g>
</g>
<g>
</g>
<g>
</g>
<g>
</g>
<g>
</g>
<g>
</g>
<g>
</g>
<g>
</g>
</svg>
