<?xml version="1.0" encoding="iso-8859-1"?>
<!-- Generator: Adobe Illustrator 18.1.1, SVG Export Plug-In . SVG Version: 6.00 Build 0)  -->
<svg version="1.1" id="Capa_1" xmlns="http://www.w3.org/2000/svg" xmlns:xlink="http://www.w3.org/1999/xlink" x="0px" y="0px"
	 viewBox="0 0 52.535 52.535" style="enable-background:new 0 0 52.535 52.535;" xml:space="preserve">
<g>
	<path style="fill:#030104;" d="M50.374,13.985c-2.557-2.927-12.891-6.448-17.214-7.826c-0.477-0.151-0.937-0.042-1.209,0.281
		c-0.208,0.247-0.287,0.59-0.222,0.968c0.784,4.473,2.883,15.19,5.433,18.11c0.82,0.938,1.821,1.678,2.928,2.19
		c-1.212,0.181-2.377,0.612-3.424,1.28c-3.191,2.037-8.04,11.289-10.142,15.524c-2.177-4.175-7.229-13.38-10.468-15.357
		c-1.061-0.648-2.239-1.055-3.458-1.211c1.097-0.532,2.086-1.289,2.891-2.249c2.487-2.964,4.377-13.726,5.074-18.216
		c0.057-0.373-0.026-0.712-0.235-0.954c-0.277-0.324-0.744-0.428-1.221-0.266c-4.297,1.465-14.56,5.192-17.054,8.165
		c-1.506,1.795-2.223,4.068-2.019,6.402c0.203,2.333,1.304,4.447,3.099,5.952c1.294,1.086,2.875,1.763,4.536,1.974
		c-1.489,0.719-2.772,1.843-3.671,3.316c-2.519,4.125-1.21,9.532,2.918,12.055c3.321,2.027,14.231,2.281,18.767,2.297h0.009
		c0.329,0,0.615-0.104,0.82-0.29c0.203,0.198,0.492,0.312,0.828,0.312h0.041c4.537-0.106,15.444-0.579,18.718-2.669
		c4.077-2.602,5.278-8.034,2.679-12.109c-0.926-1.45-2.232-2.551-3.738-3.242c1.657-0.241,3.223-0.947,4.499-2.062
		C53.18,23.178,53.554,17.627,50.374,13.985z M3.938,25.817c-0.631-0.528-1.018-1.271-1.09-2.093c-0.072-0.82,0.18-1.62,0.709-2.251
		c0.622-0.741,3.068-1.915,6.544-3.14c0.059-0.021,0.099-0.024,0.131-0.036c0,0,0.021,0.041,0.004,0.149
		c-0.601,3.636-1.33,6.249-1.952,6.991C7.232,26.69,5.195,26.873,3.938,25.817z M6.485,27.478c0.994-0.14,1.91-0.617,2.564-1.398
		c0.967-1.152,1.715-4.699,2.173-7.472c0.062-0.372-0.019-0.712-0.226-0.956c-0.276-0.326-0.744-0.43-1.227-0.263
		c-2.65,0.934-6.014,2.289-6.978,3.44c-0.657,0.782-0.977,1.763-0.938,2.776c-0.452-0.882-0.735-1.851-0.824-2.868
		c-0.18-2.065,0.455-4.08,1.789-5.671c1.905-2.271,9.83-5.55,16.61-7.86c0.059-0.02,0.099-0.024,0.139-0.032
		c0.007,0.01,0.021,0.06,0.007,0.152c-0.533,3.439-2.461,14.876-4.852,17.726c-1.48,1.766-3.652,2.777-5.958,2.777
		C7.986,27.829,7.219,27.704,6.485,27.478z M5.068,32.721c0.565-0.925,1.551-1.478,2.638-1.478c0.564,0,1.119,0.156,1.603,0.452
		c0.827,0.505,2.352,2.75,4.079,6.005c0.04,0.074,0.044,0.118,0.05,0.125c-0.014,0.008-0.054,0.023-0.136,0.023v0.5l-0.005-0.5
		c-3.686-0.052-6.379-0.384-7.204-0.889C4.642,36.074,4.182,34.173,5.068,32.721z M25.691,45.42v0.5l-0.004-0.5
		c-7.159-0.024-15.713-0.602-18.25-2.15c-2.744-1.677-4.082-4.792-3.637-7.786c0.276,0.937,0.874,1.782,1.771,2.33
		c1.282,0.784,4.901,0.996,7.714,1.035h0.017c0.438,0,0.8-0.184,0.992-0.503c0.192-0.319,0.184-0.727-0.024-1.115
		c-1.316-2.481-3.155-5.604-4.44-6.389c-0.643-0.392-1.377-0.599-2.125-0.599c-0.253,0-0.499,0.03-0.74,0.074
		c1.295-0.929,2.861-1.45,4.525-1.45c1.423,0,2.821,0.395,4.043,1.141c3.184,1.944,8.651,12.166,10.251,15.252
		c0.042,0.081,0.046,0.132,0.052,0.132h0.001C25.829,45.398,25.783,45.42,25.691,45.42z M47.719,32.337
		c0.443,0.695,0.589,1.521,0.411,2.325c-0.178,0.805-0.658,1.491-1.352,1.934c-0.821,0.523-3.507,0.909-7.185,1.03l-0.02,0.501v-0.5
		c-0.065,0-0.102-0.013-0.113-0.013c0,0-0.001,0.001-0.002,0.001c0-0.017,0.005-0.062,0.043-0.137
		c1.662-3.287,3.142-5.562,3.958-6.082c0.497-0.317,1.069-0.485,1.656-0.485C46.177,30.911,47.15,31.444,47.719,32.337z
		 M45.761,29.968c-0.213-0.033-0.428-0.057-0.646-0.057c-0.777,0-1.536,0.223-2.193,0.642c-1.269,0.81-3.046,3.968-4.312,6.474
		c-0.198,0.389-0.201,0.793-0.008,1.108c0.191,0.312,0.547,0.492,0.974,0.492l0.052-0.001c2.296-0.076,6.349-0.331,7.689-1.187
		c0.86-0.549,1.458-1.386,1.727-2.363c0.502,2.985-0.775,6.124-3.484,7.853c-2.501,1.598-11.043,2.346-18.205,2.513l-0.016,0.5v-0.5
		c-0.067,0-0.108-0.012-0.12-0.012c-0.003,0-0.004,0.001-0.004,0.002c-0.003-0.011-0.002-0.062,0.04-0.147
		c3.17-6.425,7.448-13.857,9.947-15.452c1.253-0.8,2.696-1.223,4.174-1.223C42.975,28.61,44.49,29.1,45.761,29.968z M43.774,27.521
		c-2.246,0-4.382-0.97-5.858-2.661c-2.451-2.807-4.602-14.199-5.201-17.623c-0.017-0.095-0.003-0.146,0.022-0.148
		c0.022,0,0.062,0.004,0.119,0.023c6.823,2.174,14.812,5.294,16.763,7.529c2.114,2.421,2.455,5.793,1.133,8.517
		c0.017-0.977-0.3-1.963-0.991-2.755c-1.045-1.196-4.863-2.58-7.046-3.299c-0.479-0.158-0.943-0.048-1.215,0.279
		c-0.206,0.248-0.282,0.592-0.212,0.967c0.513,2.764,1.332,6.294,2.319,7.427c0.668,0.765,1.598,1.227,2.597,1.346
		C45.426,27.38,44.607,27.521,43.774,27.521z M44.362,25.119c-0.636-0.729-1.417-3.327-2.091-6.95
		c-0.018-0.096-0.003-0.14,0.009-0.14c0.021-0.001,0.062,0.004,0.123,0.024c3.497,1.151,5.966,2.276,6.605,3.008
		c1.118,1.281,0.985,3.234-0.295,4.353C47.479,26.493,45.435,26.35,44.362,25.119z"/>
</g>
<g>
</g>
<g>
</g>
<g>
</g>
<g>
</g>
<g>
</g>
<g>
</g>
<g>
</g>
<g>
</g>
<g>
</g>
<g>
</g>
<g>
</g>
<g>
</g>
<g>
</g>
<g>
</g>
<g>
</g>
</svg>
