<?xml version="1.0" encoding="iso-8859-1"?>
<!-- Generator: Adobe Illustrator 16.0.0, SVG Export Plug-In . SVG Version: 6.00 Build 0)  -->
<!DOCTYPE svg PUBLIC "-//W3C//DTD SVG 1.1//EN" "http://www.w3.org/Graphics/SVG/1.1/DTD/svg11.dtd">
<svg version="1.1" id="Capa_1" xmlns="http://www.w3.org/2000/svg" xmlns:xlink="http://www.w3.org/1999/xlink" x="0px" y="0px"
	 width="154.775px" height="154.775px" viewBox="0 0 154.775 154.775" style="enable-background:new 0 0 154.775 154.775;"
	 xml:space="preserve">
<g>
	<g>
		<path d="M115.86,12.895c0,0-0.019,0-0.028,0l-7.602,0.021V5.548c0-3.067-2.474-5.548-5.537-5.548
			c-3.076,0-5.547,2.481-5.547,5.548v7.401l-25.778,0.09c-10.106,0.033-18.303,8.282-18.292,18.389l0.082,31.727l-11.39-6.84
			c-1.728-1.026-3.85-1.055-5.57-0.074c-1.749,0.985-2.825,2.824-2.825,4.824v45.606c0,2.024,1.104,3.896,2.904,4.87
			c0.817,0.46,1.742,0.679,2.662,0.679c1.053,0,2.082-0.296,2.991-0.887l11.341-7.311l0.096,32.46
			c0.035,10.09,8.26,18.293,18.446,18.293c0.011,0,0.035,0,0.046,0l5.054-0.104c10.108-0.033,18.324-8.291,18.284-18.396
			c0-0.569-0.17-1.096-0.337-1.62c0.13-0.68,0.205-1.38,0.205-2.102c0-5.834-4.726-10.572-10.571-10.572
			c-5.833,0-10.569,4.738-10.569,10.572c0,4.456,2.77,8.246,6.657,9.806c-1.111,0.7-2.376,1.21-3.82,1.215l-5.044,0.108
			c-0.012,0-0.012,0-0.022,0c-3.984,0-7.245-3.25-7.255-7.243l-0.023-8.302c15.136-2.96,26.492-22.38,26.492-46.698
			c0-9.831-1.862-18.867-5.069-26.342c14.008-3.283,24.471-15.857,24.471-30.845c0-0.096-0.043-0.17-0.053-0.266l5.623-0.017
			c3.066-0.011,5.532-2.498,5.522-5.562C121.398,15.36,118.914,12.895,115.86,12.895z M50.334,92.729l-5.871,3.786v-25.65
			l5.565,3.335c0.986,0.602,2.076,0.744,3.16,0.678l0.044,17.073C52.241,91.968,51.237,92.148,50.334,92.729z M64.4,116.608
			L64.204,46.2c8.09,3.261,15.617,16.597,15.617,35.256C79.82,99.951,72.405,113.226,64.4,116.608z M79.754,44.758
			c-4.322-5.423-9.679-8.985-15.572-10.075l-0.011-3.283c-0.012-3.995,3.231-7.261,7.244-7.272l27.853-0.096
			c0,0.08-0.044,0.145-0.044,0.225C99.219,35.245,90.578,44.148,79.754,44.758z"/>
		<path d="M84.67,28.069c3.251,0,5.894,2.637,5.894,5.893c0,3.256-2.643,5.893-5.894,5.893c-3.263,0-5.9-2.637-5.9-5.893
			C78.77,30.706,81.407,28.069,84.67,28.069z"/>
	</g>
</g>
<g>
</g>
<g>
</g>
<g>
</g>
<g>
</g>
<g>
</g>
<g>
</g>
<g>
</g>
<g>
</g>
<g>
</g>
<g>
</g>
<g>
</g>
<g>
</g>
<g>
</g>
<g>
</g>
<g>
</g>
</svg>
