<?xml version="1.0" encoding="iso-8859-1"?>
<!-- Generator: Adobe Illustrator 16.0.0, SVG Export Plug-In . SVG Version: 6.00 Build 0)  -->
<!DOCTYPE svg PUBLIC "-//W3C//DTD SVG 1.1//EN" "http://www.w3.org/Graphics/SVG/1.1/DTD/svg11.dtd">
<svg version="1.1" id="Capa_1" xmlns="http://www.w3.org/2000/svg" xmlns:xlink="http://www.w3.org/1999/xlink" x="0px" y="0px"
	 width="192.323px" height="192.323px" viewBox="0 0 192.323 192.323" style="enable-background:new 0 0 192.323 192.323;"
	 xml:space="preserve">
<g>
	<path d="M75.512,54.876c2.246-1.07,4.455-1.5,6.203-1.39V32.72c0-0.626,0.369-1.198,0.946-1.45l18.381-8.197
		c0.492-0.219,1.056-0.181,1.515,0.117c0.461,0.298,0.733,0.802,0.733,1.333v22.61c0,0.056-0.053,0.096-0.07,0.145
		c0.415,2.052-1.965,4.933-5.837,6.763c-4.181,1.989-8.355,1.929-9.306-0.106c-0.958-2.017,1.636-5.262,5.821-7.251
		c2.247-1.069,4.457-1.497,6.197-1.39V26.982l-15.204,6.774V55.33c0,0.058-0.054,0.096-0.059,0.147
		c0.42,2.049-1.968,4.93-5.838,6.761c-4.176,1.983-8.355,1.923-9.308-0.112C68.733,60.104,71.326,56.859,75.512,54.876z
		 M101.742,72.063c0.954,2.034,5.127,2.095,9.308,0.109c3.865-1.83,6.251-4.711,5.835-6.761c0.01-0.058,0.065-0.096,0.065-0.147
		V43.691l15.199-6.775v18.312c-1.751-0.107-3.939,0.32-6.192,1.39c-4.192,1.989-6.775,5.234-5.822,7.25
		c0.957,2.036,5.132,2.096,9.301,0.106c3.871-1.83,6.262-4.711,5.846-6.763c0.01-0.055,0.061-0.093,0.061-0.146v-22.61
		c0-0.536-0.27-1.042-0.728-1.332c-0.443-0.296-1.031-0.337-1.518-0.118l-18.381,8.197c-0.58,0.252-0.94,0.824-0.94,1.454v20.766
		c-1.751-0.112-3.951,0.317-6.2,1.39C103.378,66.799,100.786,70.044,101.742,72.063z M189.29,190.731
		c0,0.881-0.719,1.592-1.592,1.592h-54.793c0,0,0,0-0.01,0h-23.4c-0.01,0-0.01,0-0.016,0H82.826H73.39H59.43
		c-0.005,0-0.005,0-0.01,0H4.625c-0.875,0-1.592-0.711-1.592-1.592c0-0.875,0.717-1.593,1.592-1.593h16.671v-79.069
		c-3.448-0.811-6.042-4.191-6.042-8.253v-1.34V73.413v-0.219c0-2.834,2.494-5.143,5.552-5.143c0.875,0,1.671,0.224,2.409,0.565
		V67.45c0-2.829,2.444-5.143,5.453-5.143c0.803,0,1.541,0.18,2.225,0.47v-2.438c0-2.829,2.465-5.143,5.502-5.143
		c3.026,0,5.491,2.314,5.491,5.143v0.175c0.7-0.304,1.452-0.49,2.262-0.49c3.038,0,5.505,2.315,5.505,5.144v10.03
		c0.733-0.317,1.518-0.537,2.375-0.537c3.07,0,5.561,2.315,5.561,5.149v8.662c0,0.005-0.006,0.017-0.006,0.017v13.333
		c0,4.647-3.521,8.426-7.835,8.426h-0.745l0.075,16.925c2.653,0.355,4.732,2.424,4.732,5.002v0.17
		c0.701-0.302,1.459-0.487,2.272-0.487c3.03,0,5.496,2.314,5.496,5.144v10.03c0.733-0.317,1.52-0.528,2.381-0.528
		c3.065,0,5.554,2.312,5.554,5.141v8.662c0,0.008-0.005,0.012-0.005,0.012v13.336c0,4.646-3.52,8.42-7.834,8.42h-0.736l0.058,7.049
		h12.388h1.434v-59.946c-3.138-0.799-5.468-3.88-5.468-7.573v-1.242V95.888v-0.219c0-2.64,2.32-4.791,5.174-4.791
		c0.793,0,1.354,0.487,2.032,0.786v-1.201c0-2.638,2.282-4.786,5.084-4.786c0.729,0,1.231,0.466,1.861,0.728v-2.347
		c0-2.654,2.307-4.818,5.129-4.818c2.832,0,5.124,2.165,5.124,4.818v0.292c0.641-0.266,1.158-0.736,1.907-0.736
		c2.821,0,5.131,2.158,5.131,4.805v9.222c0.65-0.287,1.22-0.769,1.986-0.769c2.375,0,4.061,1.63,4.673,3.647
		c0.252,0.236,0.355,0.564,0.41,0.92c0.006,0.081,0.104,0.13,0.104,0.225v7.846c0,0.005-0.011,0.011-0.011,0.011v12.066
		c0,4.284-3.24,7.771-7.232,7.771h-0.517l0.044,3.885c2.387,0.426,4.301,2.134,4.301,4.478v0.305
		c0.626-0.279,1.154-0.749,1.901-0.749c2.829,0,5.131,2.167,5.131,4.82v9.203c0.667-0.284,1.232-0.766,1.999-0.766
		c2.38,0,4.063,1.637,4.66,3.666c0.241,0.236,0.35,0.559,0.405,0.903c0.01,0.094,0.116,0.137,0.116,0.24v7.83
		c0,0.007-0.019,0.018-0.019,0.018v12.065c0,4.29-3.244,7.787-7.245,7.787h-0.501l0.042,6.07h20.269l0.062-7.05h-0.741
		c-4.316,0-7.83-3.782-7.83-8.422v-13.336c0,0-0.005-0.005-0.005-0.01v-8.662c0-2.835,2.483-5.145,5.555-5.145
		c0.86,0,1.648,0.219,2.382,0.531v-10.03c0-2.829,2.46-5.144,5.491-5.144c0.821,0,1.564,0.187,2.266,0.486v-0.169
		c0-2.577,2.08-4.641,4.738-5.001l0.078-16.926h-0.756c-4.318,0-7.825-3.786-7.825-8.427V88.479c0,0-0.005-0.005-0.005-0.015v-8.663
		c0-2.834,2.489-5.148,5.561-5.148c0.847,0,1.64,0.218,2.373,0.535v-10.03c0-2.829,2.457-5.144,5.5-5.144
		c0.82,0,1.564,0.186,2.265,0.487v-0.173c0-2.828,2.465-5.143,5.49-5.143c3.035,0,5.5,2.315,5.5,5.143v2.438
		c0.688-0.298,1.434-0.47,2.219-0.47c3.011,0,5.462,2.314,5.462,5.144v1.167c0.733-0.343,1.521-0.567,2.409-0.567
		c3.059,0,5.547,2.314,5.547,5.144v0.219v27.07v1.34c0,4.061-2.594,7.447-6.041,8.253v79.054h16.673
		C188.571,189.134,189.29,189.856,189.29,190.731z M33.214,181.916c-3.448-0.805-6.037-4.194-6.037-8.252v-1.351v-27.065v-0.214
		c0-2.834,2.488-5.143,5.549-5.143c0.874,0,1.669,0.225,2.407,0.569v-1.166c0-2.834,2.449-5.145,5.453-5.145
		c0.802,0,1.541,0.182,2.225,0.471v-2.445c0-2.003,1.277-3.715,3.091-4.559l-0.086-18.948c0-0.428,0.161-0.832,0.464-1.139
		c0.295-0.295,0.706-0.466,1.125-0.466h2.342c2.561,0,4.65-2.353,4.65-5.248V79.807l0.012-0.006
		c-0.012-1.064-1.087-1.957-2.381-1.957c-1.283,0-2.375,0.903-2.375,1.967v8.662c0,0.881-0.711,1.592-1.592,1.592
		c-0.875,0-1.587-0.711-1.587-1.592v-8.662V65.169c0-1.087-1.053-1.965-2.326-1.965c-1.214,0-2.194,0.851-2.262,1.872v23.398
		c0,0.881-0.712,1.592-1.592,1.592c-0.007,0-0.017-0.005-0.023-0.005c-0.005,0-0.017,0.005-0.021,0.005
		c-0.878,0-1.592-0.711-1.592-1.592V65.169c0-0.077,0.04-0.14,0.046-0.216v-4.613c0-1.086-1.043-1.961-2.309-1.961
		c-1.284,0-2.327,0.875-2.327,1.961v6.931c0,0.063,0.039,0.12,0.039,0.18v21.023c0,0.881-0.712,1.592-1.585,1.592
		c-0.01,0-0.017-0.005-0.017-0.005c-0.016,0-0.016,0.005-0.021,0.005c-0.88,0-1.592-0.711-1.592-1.592V67.371
		c-0.058-1.048-1.021-1.882-2.225-1.882c-1.256,0-2.271,0.875-2.271,1.961v21.023c0,0.881-0.71,1.592-1.59,1.592
		c-0.005,0-0.01-0.005-0.026-0.005c-0.015,0-0.019,0.005-0.03,0.005c-0.874,0-1.585-0.711-1.585-1.592v-15.28
		c0-1.059-1.083-1.967-2.353-1.967c-1.308,0-2.372,0.881-2.372,1.967v0.219v27.07v1.341c0,2.895,1.984,5.249,4.449,5.249
		c0.876,0,1.592,0.71,1.592,1.591v80.471h8.741v-7.218H33.214z M61.673,178.907c2.567,0,4.649-2.348,4.649-5.243V151.65l0.01-0.006
		c-0.01-1.065-1.085-1.964-2.374-1.964s-2.381,0.903-2.381,1.975v8.663c0,0.875-0.71,1.593-1.586,1.593
		c-0.879,0-1.59-0.712-1.59-1.593v-8.668v-14.643c0-1.084-1.043-1.959-2.32-1.959c-1.223,0-2.204,0.843-2.272,1.865v23.4
		c0,0.874-0.711,1.593-1.59,1.593c-0.004,0-0.014-0.008-0.023-0.008c-0.006,0-0.017,0.008-0.023,0.008
		c-0.872,0-1.59-0.714-1.59-1.593v-23.312c0-0.076,0.04-0.136,0.051-0.219v-4.613c0-1.078-1.048-1.965-2.316-1.965
		c-1.283,0-2.32,0.876-2.32,1.965v6.934c0,0.061,0.042,0.12,0.042,0.181v21.022c0,0.877-0.719,1.593-1.592,1.593
		c-0.012,0-0.016-0.006-0.016-0.006c-0.017,0-0.017,0.006-0.023,0.006c-0.88,0-1.592-0.711-1.592-1.593v-21.104
		c-0.054-1.051-1.021-1.888-2.225-1.888c-1.254,0-2.268,0.881-2.268,1.976v21.024c0,0.874-0.714,1.593-1.587,1.593
		c-0.01,0-0.016-0.008-0.033-0.008c-0.004,0-0.016,0.008-0.016,0.008c-0.887,0-1.597-0.714-1.597-1.593v-15.285
		c0-1.056-1.076-1.962-2.353-1.962c-1.3,0-2.372,0.873-2.372,1.962v0.214v27.063v1.353c0,2.895,1.982,5.242,4.448,5.242
		c0.882,0,1.592,0.722,1.592,1.586v8.641h21.412l-0.074-8.623c0-0.416,0.162-0.821,0.466-1.127c0.294-0.307,0.701-0.477,1.126-0.477
		h2.337V178.907z M85.616,182.868c-3.133-0.799-5.47-3.896-5.47-7.589v-1.222v-24.486v-0.187c0-2.647,2.32-4.804,5.178-4.804
		c0.79,0,1.352,0.493,2.015,0.788v-1.188c0-2.649,2.283-4.804,5.084-4.804c0.732,0,1.244,0.469,1.871,0.738v-2.376
		c0-1.789,1.241-3.068,2.798-3.89l-0.076-6.036c0-0.421,0.164-0.832,0.46-1.132c0.304-0.308,0.706-0.471,1.13-0.471h2.114
		c2.236,0,4.063-2.059,4.063-4.591v-19.936v-0.005c0-0.867-0.912-1.595-1.986-1.595c-1.078,0-1.992,0.733-1.992,1.607v7.851
		c0,0.87-0.716,1.588-1.592,1.588c-0.87,0-1.59-0.711-1.59-1.588v-7.851V88.441c0-0.892-0.87-1.625-1.95-1.625
		c-1.021,0-1.85,0.706-1.904,1.545v21.182c0,0.87-0.714,1.588-1.586,1.588c-0.012,0-0.012-0.006-0.027-0.006
		c0,0-0.006,0.006-0.013,0.006c-0.88,0-1.592-0.711-1.592-1.588V88.441c0-0.028,0.039-0.052,0.039-0.084V84.08
		c0-0.899-0.868-1.636-1.942-1.636c-1.078,0-1.952,0.742-1.952,1.636v6.329c0,0.033,0.038,0.055,0.038,0.082v19.053
		c0,0.87-0.71,1.588-1.59,1.588c-0.005,0-0.005-0.006-0.023-0.006c0,0-0.005,0.006-0.016,0.006c-0.873,0-1.591-0.711-1.591-1.588
		V90.414c-0.058-0.829-0.87-1.529-1.86-1.529c-1.036,0-1.907,0.738-1.907,1.606v19.053c0,0.87-0.711,1.588-1.589,1.588
		c-0.005,0-0.01-0.006-0.022-0.006c-0.018,0-0.025,0.006-0.035,0.006c-0.873,0-1.585-0.711-1.585-1.588V95.691
		c0-0.87-0.908-1.608-1.982-1.608c-1.076,0-1.984,0.738-1.984,1.608v0.219v24.473v1.242c0,2.533,1.726,4.591,3.843,4.591
		c0.873,0,1.62,0.714,1.62,1.592v61.325h3.259h4.35v-6.266H85.616z M111.521,179.887c2.232,0,4.066-2.068,4.066-4.607v-19.918
		v-0.006c0-0.881-0.915-1.62-1.987-1.62c-1.084,0-1.995,0.744-1.995,1.626v7.83c0,0.881-0.719,1.592-1.593,1.592
		c-0.877,0-1.588-0.711-1.588-1.592v-7.83v-13.242c0-0.887-0.898-1.638-1.954-1.638c-1.019,0-1.845,0.713-1.896,1.56v21.155
		c0,0.882-0.719,1.593-1.589,1.593c-0.017,0-0.017-0.006-0.032-0.006c0,0-0.004,0.006-0.013,0.006c-0.874,0-1.584-0.711-1.584-1.593
		v-21.083c0-0.032,0.033-0.055,0.033-0.088v-4.29c0-0.892-0.867-1.625-1.943-1.625c-1.078,0-1.952,0.728-1.952,1.625v6.381
		c0,0.026,0.035,0.043,0.035,0.071v19.022c0,0.878-0.716,1.591-1.593,1.591c-0.01,0-0.01-0.007-0.016-0.007
		c-0.004,0-0.004,0.007-0.017,0.007c-0.875,0-1.593-0.713-1.593-1.591v-19.083c-0.043-0.859-0.849-1.56-1.87-1.56
		c-1.048,0-1.898,0.728-1.898,1.625v19.021c0,0.88-0.718,1.592-1.592,1.592c-0.007,0-0.018-0.005-0.018-0.005
		c-0.016,0-0.016,0.005-0.021,0.005c-0.875,0-1.592-0.712-1.592-1.592v-13.823c0-0.88-0.908-1.625-1.984-1.625
		c-1.097,0-1.989,0.728-1.989,1.625v0.186v24.488v1.225c0,2.54,1.727,4.608,3.85,4.608c0.882,0,1.615,0.711,1.615,1.592v7.649
		h19.074l-0.066-7.639c0-0.426,0.159-0.832,0.464-1.132c0.297-0.307,0.7-0.471,1.116-0.471h2.123V179.887z M157.513,178.907
		c2.456,0,4.448-2.348,4.448-5.243v-1.351v-27.065v-0.214c0-1.083-1.06-1.963-2.375-1.963c-1.28,0-2.353,0.902-2.353,1.963v15.284
		c0,0.875-0.711,1.593-1.585,1.593c-0.008,0-0.023-0.004-0.033-0.004c-0.013,0-0.023,0.004-0.032,0.004
		c-0.867,0-1.578-0.712-1.578-1.593v-21.023c0-1.089-1.028-1.97-2.269-1.97c-1.21,0-2.186,0.831-2.219,1.882v21.107
		c0,0.874-0.709,1.593-1.597,1.593c0,0,0-0.008-0.022-0.008c0,0,0,0.008-0.011,0.008c-0.876,0-1.597-0.714-1.597-1.593V139.29
		c0-0.066,0.042-0.121,0.042-0.182v-6.933c0-1.078-1.04-1.964-2.319-1.964c-1.271,0-2.315,0.875-2.315,1.964v4.612
		c0.013,0.083,0.05,0.144,0.05,0.22v23.311c0,0.875-0.718,1.593-1.587,1.593c-0.01,0-0.022-0.004-0.022-0.004
		c-0.011,0-0.02,0.004-0.02,0.004c-0.888,0-1.601-0.712-1.601-1.593V136.92c-0.07-1.023-1.051-1.865-2.265-1.865
		c-1.28,0-2.315,0.869-2.315,1.958v14.643v8.663c0,0.875-0.711,1.593-1.592,1.593c-0.864,0-1.585-0.712-1.585-1.593v-8.663
		c0-1.066-1.083-1.975-2.382-1.975c-1.286,0-2.362,0.892-2.375,1.964l0.013,0.006v22.014c0,2.896,2.083,5.243,4.651,5.243h2.34
		c0.421,0,0.826,0.169,1.124,0.476c0.305,0.306,0.458,0.706,0.458,1.132l-0.065,8.619h21.408v-8.629
		C155.92,179.631,156.626,178.907,157.513,178.907z M169.437,107.064c2.462,0,4.45-2.353,4.45-5.248v-1.34V73.413v-0.219
		c0-1.086-1.056-1.967-2.371-1.967c-1.28,0-2.364,0.903-2.364,1.967v15.28c0,0.881-0.709,1.592-1.573,1.592
		c-0.014,0-0.019-0.005-0.028-0.005c-0.027,0-0.027,0.005-0.04,0.005c-0.87,0-1.579-0.711-1.579-1.592V67.45
		c0-1.086-1.023-1.961-2.273-1.961c-1.209,0-2.172,0.834-2.22,1.882v21.103c0,0.881-0.713,1.592-1.587,1.592
		c-0.013,0-0.013-0.005-0.023-0.005c0,0-0.009,0.005-0.022,0.005c-0.869,0-1.579-0.711-1.579-1.592V67.45
		c0-0.06,0.037-0.117,0.037-0.18v-6.931c0-1.086-1.051-1.961-2.324-1.961c-1.275,0-2.312,0.875-2.312,1.961v4.613
		c0.006,0.077,0.05,0.14,0.05,0.216v23.305c0,0.881-0.712,1.592-1.596,1.592c0,0-0.014-0.005-0.023-0.005
		c0,0-0.01,0.005-0.022,0.005c-0.874,0-1.587-0.711-1.587-1.592V65.076c-0.076-1.021-1.051-1.872-2.26-1.872
		c-1.286,0-2.326,0.878-2.326,1.965v14.643v8.662c0,0.881-0.711,1.592-1.587,1.592c-0.875,0-1.587-0.711-1.587-1.592v-8.662
		c0-1.064-1.083-1.967-2.378-1.967c-1.299,0-2.371,0.892-2.382,1.957l0.011,0.006v22.009c0,2.896,2.091,5.248,4.65,5.248h2.343
		c0.416,0,0.822,0.171,1.116,0.466c0.312,0.3,0.471,0.705,0.471,1.139l-0.088,18.948c1.812,0.844,3.086,2.556,3.086,4.559v2.445
		c0.691-0.289,1.434-0.471,2.228-0.471c3.004,0,5.458,2.315,5.458,5.145v1.166c0.73-0.351,1.523-0.569,2.41-0.569
		c3.059,0,5.546,2.309,5.546,5.143v0.214v27.065v1.351c0,4.058-2.596,7.447-6.041,8.252v7.223h8.749v-80.481
		C167.84,107.776,168.555,107.064,169.437,107.064z M48.943,39.3c3.871-1.833,6.251-4.714,5.831-6.763
		c0.013-0.058,0.068-0.096,0.068-0.145V10.818l15.201-6.775v18.317c-1.748-0.112-3.95,0.318-6.201,1.39
		c-4.188,1.99-6.774,5.231-5.822,7.251c0.958,2.033,5.132,2.096,9.307,0.107c3.873-1.833,6.26-4.714,5.84-6.764
		c0.01-0.058,0.063-0.096,0.063-0.145V1.59c0-0.539-0.272-1.043-0.73-1.335c-0.441-0.285-1.018-0.34-1.508-0.118l-18.383,8.2
		c-0.579,0.252-0.948,0.824-0.948,1.45v20.766c-1.749-0.112-3.95,0.32-6.197,1.39c-4.186,1.984-6.78,5.234-5.821,7.25
		C40.583,41.226,44.762,41.289,48.943,39.3z"/>
</g>
<g>
</g>
<g>
</g>
<g>
</g>
<g>
</g>
<g>
</g>
<g>
</g>
<g>
</g>
<g>
</g>
<g>
</g>
<g>
</g>
<g>
</g>
<g>
</g>
<g>
</g>
<g>
</g>
<g>
</g>
</svg>
