<?xml version="1.0" encoding="iso-8859-1"?>
<!-- Generator: Adobe Illustrator 16.0.0, SVG Export Plug-In . SVG Version: 6.00 Build 0)  -->
<!DOCTYPE svg PUBLIC "-//W3C//DTD SVG 1.1//EN" "http://www.w3.org/Graphics/SVG/1.1/DTD/svg11.dtd">
<svg version="1.1" id="Capa_1" xmlns="http://www.w3.org/2000/svg" xmlns:xlink="http://www.w3.org/1999/xlink" x="0px" y="0px"
	 width="176.697px" height="176.696px" viewBox="0 0 176.697 176.696" style="enable-background:new 0 0 176.697 176.696;"
	 xml:space="preserve">
<g>
	<g>
		<path d="M120.651,37.12c2.679-6.293-1.358-8.312-6.077-8.762c-4.567-0.435-28.927,4.159-28.927,4.159l-0.167-5.729
			c2.694-4.713,0.338-5.063-1.69-4.384c-2.493,0.837-0.505,4.216-0.505,4.216c0.505,5.393-0.338,5.058-0.338,5.058
			c-1.851,0.84-1.625-5.115-1.625-5.115c2.637-5.843-2.695-4.262-2.695-4.262c-3.373,1.571,0.226,4.488,0.226,4.488v4.719
			c0.454,4.043-4.041,0.676-4.041,0.676c-4.938-2.021-1.802,2.691-1.802,2.691c2.917,4.271,1.62,8.93,1.62,8.93l-13.292,97.339
			c-6.421-4.238-15.755-6.979-26.293-6.979C15.688,134.163,0,143.218,0,154.386c0,11.167,15.688,20.215,35.043,20.215
			c17.75,0,32.267-7.653,34.574-17.53l0.423,0.067L84.244,55.321C84.25,55.314,114.416,51.68,120.651,37.12z"/>
		<path d="M174.046,14.311c0,0-5.23,2.046-3.721-1.732l1.255-4.54c0,0,4.408-2.076,1.418-4.277
			c-1.017-0.743-4.116-2.083-3.732,3.392c0,0-1.376,5.8-2.935,4.491c0,0-0.901,0.091,1.022-4.96c0,0,3.374-3.328,0.341-4.506
			c0,0-4.883-1.011-2.484,4.077l-1.692,5.474c0,0-18.377,7.176-24.003,8.75c-3.587,1.002-13.02,4.938-12.118,11.009
			c2.296,15.67,31.444,2.919,31.444,2.919l-1.474,10.848l-0.036-0.012l-9.938,73.861c-6.418-4.238-15.759-6.979-26.299-6.979
			c-19.357,0-35.043,9.055-35.043,20.223s15.686,20.216,35.043,20.216c17.762,0,32.278-7.642,34.574-17.519l0.42,0.055
			l12.318-89.949h0.067l2.643-19.62c0,0,0-4.825,3.945-8.171C175.051,17.379,179.35,13.668,174.046,14.311z"/>
	</g>
</g>
<g>
</g>
<g>
</g>
<g>
</g>
<g>
</g>
<g>
</g>
<g>
</g>
<g>
</g>
<g>
</g>
<g>
</g>
<g>
</g>
<g>
</g>
<g>
</g>
<g>
</g>
<g>
</g>
<g>
</g>
</svg>
