<?xml version="1.0" encoding="iso-8859-1"?>
<!-- Generator: Adobe Illustrator 16.0.0, SVG Export Plug-In . SVG Version: 6.00 Build 0)  -->
<!DOCTYPE svg PUBLIC "-//W3C//DTD SVG 1.1//EN" "http://www.w3.org/Graphics/SVG/1.1/DTD/svg11.dtd">
<svg version="1.1" id="Capa_1" xmlns="http://www.w3.org/2000/svg" xmlns:xlink="http://www.w3.org/1999/xlink" x="0px" y="0px"
	 width="209.484px" height="209.484px" viewBox="0 0 209.484 209.484" style="enable-background:new 0 0 209.484 209.484;"
	 xml:space="preserve">
<g>
	<path d="M144.473,191.132c-0.268,0-0.548-0.049-0.804-0.14c-1.254-0.438-1.906-1.827-1.455-3.069l7.033-19.521
		c0.225-0.615,0.682-1.096,1.267-1.352l40.626-18.578l13.274-51.648c-0.676-0.487-1.254-0.512-1.681-0.512
		c-2.739,0.18-6.332,4.092-8.11,6.723l-11.295,37.74c-0.195,0.664-0.658,1.218-1.291,1.498l-16.289,7.41
		c-4.719,2.187-8.744,2.442-11.959,0.731c-4.438-2.351-5.328-7.478-5.364-7.685c-0.177-1.072,0.384-2.131,1.37-2.563l16.294-7.453
		c3.867-1.772,6.284-4.025,7.204-6.704c0.535-1.571,0.45-3.094,0.219-4.269l-45.206,20.685l-10.887,23.15
		c-0.572,1.194-1.979,1.675-3.191,1.164c-1.199-0.572-1.704-1.992-1.15-3.222l11.271-23.942c0.244-0.523,0.658-0.914,1.176-1.157
		l48.402-22.152c1.072-0.511,2.484-0.097,3.105,1.035c0.109,0.183,2.588,4.811,0.816,10.133c-1.315,4.03-4.616,7.258-9.768,9.62
		l-14.346,6.564c0.438,0.914,1.163,1.961,2.313,2.545c1.827,0.963,4.421,0.67,7.691-0.84l15.313-6.979l11.076-37.034
		c0.067-0.231,0.171-0.438,0.293-0.633c0.584-0.901,5.857-8.756,11.995-9.161c1.784-0.231,4.244,0.332,6.497,2.993
		c0.506,0.587,0.688,1.385,0.493,2.134l-13.901,54.111c-0.183,0.694-0.664,1.278-1.327,1.583l-40.761,18.62l-6.687,18.578
		C146.385,190.529,145.441,191.132,144.473,191.132z M65.855,190.992c1.239-0.438,1.882-1.827,1.434-3.069l-7.048-19.521
		c-0.222-0.615-0.679-1.096-1.263-1.352L18.36,148.472L5.062,96.823c0.691-0.487,1.251-0.487,1.69-0.512
		c2.737,0.18,6.345,4.092,8.135,6.723l11.262,37.74c0.198,0.664,0.667,1.218,1.297,1.498l16.292,7.41
		c4.747,2.162,8.781,2.388,11.993,0.731c4.415-2.375,5.307-7.478,5.337-7.685c0.174-1.072-0.387-2.131-1.373-2.563l-16.292-7.453
		c-3.867-1.772-6.287-4.025-7.204-6.704c-0.523-1.571-0.454-3.094-0.216-4.269l45.193,20.685l10.896,23.15
		c0.563,1.194,2.004,1.675,3.188,1.164c1.203-0.572,1.708-1.992,1.148-3.222l-11.274-23.942c-0.237-0.523-0.654-0.914-1.172-1.157
		l-48.394-22.152c-1.066-0.487-2.469-0.073-3.09,1.035c-0.119,0.183-2.6,4.811-0.843,10.133c1.321,4.03,4.615,7.258,9.776,9.62
		l14.343,6.564c-0.436,0.914-1.154,1.961-2.308,2.545c-2.231,1.219-5.419,0.184-7.7-0.84l-15.314-6.979l-11.061-37.034
		c-0.064-0.231-0.161-0.438-0.28-0.633c-0.587-0.901-5.888-8.781-12.035-9.161c-1.565-0.28-4.229,0.332-6.485,2.993
		c-0.505,0.587-0.691,1.385-0.493,2.159l13.932,54.099c0.173,0.683,0.667,1.267,1.321,1.571l40.746,18.62l6.698,18.578
		c0.356,0.957,1.279,1.571,2.256,1.571C65.298,191.132,65.582,191.089,65.855,190.992z M71.11,120.882V20.678
		c0-1.291,1.023-2.326,2.326-2.326h62.608c1.304,0,2.326,1.035,2.326,2.326v100.204c0,1.303-1.022,2.326-2.326,2.326H73.437
		C72.134,123.208,71.11,122.185,71.11,120.882z M107.646,117.958c0-1.625-1.321-2.928-2.92-2.928c-1.622,0-2.92,1.303-2.92,2.928
		c0,1.62,1.298,2.924,2.92,2.924C106.324,120.882,107.646,119.578,107.646,117.958z M91.156,23.093c0,0.639,0.523,1.163,1.166,1.163
		h24.811c0.651,0,1.175-0.524,1.175-1.163c0-0.651-0.529-1.175-1.175-1.175H92.322C91.68,21.93,91.156,22.453,91.156,23.093z
		 M75.769,112.515h57.944V28.384H75.769V112.515z M127.125,33.167H105.18c-1.304,0-2.326,1.023-2.326,2.326s1.022,2.326,2.326,2.326
		h19.619v28.875c0,1.291,1.022,2.326,2.326,2.326c1.297,0,2.326-1.035,2.326-2.326V35.493
		C129.451,34.208,128.422,33.167,127.125,33.167z"/>
</g>
<g>
</g>
<g>
</g>
<g>
</g>
<g>
</g>
<g>
</g>
<g>
</g>
<g>
</g>
<g>
</g>
<g>
</g>
<g>
</g>
<g>
</g>
<g>
</g>
<g>
</g>
<g>
</g>
<g>
</g>
</svg>
