<?xml version="1.0" encoding="iso-8859-1"?>
<!-- Generator: Adobe Illustrator 16.0.0, SVG Export Plug-In . SVG Version: 6.00 Build 0)  -->
<!DOCTYPE svg PUBLIC "-//W3C//DTD SVG 1.1//EN" "http://www.w3.org/Graphics/SVG/1.1/DTD/svg11.dtd">
<svg version="1.1" id="Capa_1" xmlns="http://www.w3.org/2000/svg" xmlns:xlink="http://www.w3.org/1999/xlink" x="0px" y="0px"
	 width="191.321px" height="191.321px" viewBox="0 0 191.321 191.321" style="enable-background:new 0 0 191.321 191.321;"
	 xml:space="preserve">
<g>
	<path d="M171.763,104.831c0.299-2.57-2.971-9.907-9.675-21.702c-2.399-4.615-0.865-7.782,0.761-11.131
		c0.847-1.754,1.724-3.568,1.912-5.511c2.308-23.869-6.997-37.053-15.351-45.876C133.304,3.577,112.918,0,98.645,0h-0.648
		C63.434,0.25,48.631,11.49,37.78,23.592C15.415,48.561,19.848,70.588,19.985,70.987c0.551,13.369,17.704,36.139,18.365,37.01
		c12.52,17.987,6.957,31.518,6.723,32.065c-0.545,1.218-0.25,2.643,0.728,3.556l50.644,46.875c0.588,0.535,1.346,0.828,2.119,0.828
		c0.344,0,0.676-0.061,1.005-0.158c1.08-0.378,1.884-1.304,2.067-2.448c0.682-4.019,8.987-20.825,13.749-29.983
		c2.009-2.521,4.847-3.689,8.944-3.689c2.174,0,4.33,0.316,6.248,0.609l2.058,0.292c2.467,0.304,4.811,0.462,6.954,0.462
		c8.641,0,12.318-2.508,13.524-3.629c4.244-2.996,3.202-10.692,2.709-13.286c-0.663-2.362,0.079-3.361,1.443-5.212
		c2.813-3.934,2.704-6.845,2.149-8.562c2.686-1.741,3.118-3.971,3.203-4.823l-0.109-6.808c-0.079-0.548-0.098-0.938-0.086-1.242
		c3.1-0.304,5.511-1.352,7.191-3.117C171.775,107.425,171.8,104.854,171.763,104.831z M165.065,105.415
		c-0.719,0.779-2.253,1.218-4.628,1.291c-0.408,0.055-1.821,0.335-2.953,1.778c-1.146,1.474-1.547,3.629-1.2,6.028l0.073,5.699
		c-0.213,0.183-0.682,0.523-1.613,0.834c-0.469,0.152-0.901,0.408-1.236,0.762c-1.254,1.266-1.76,3.708-0.049,5.814
		c0,0.013,0.22,0.932-1.553,3.398c-1.254,1.687-3.593,4.834-2.18,9.864c0.505,2.722,0.371,6.162-0.213,6.783
		c-0.299,0.183-0.427,0.268-0.652,0.523c-0.023,0.043-3.702,2.996-15.496,1.547l-1.882-0.269c-2.021-0.304-4.536-0.663-7.167-0.663
		c-5.974,0-10.619,2.034-14.146,6.527c-1.132,2.155-9.438,18.024-13.073,27.268l-45.592-42.204
		c1.477-5.213,3.653-19.126-8.132-36.066C38.73,98.2,26.595,80.209,26.135,70.202c-0.045-0.192-3.985-19.83,16.279-42.444
		C51.63,17.47,64.28,6.473,98.633,6.235c13.043,0,31.663,3.233,46.247,18.66c7.44,7.864,15.728,19.616,13.664,40.992
		c-0.079,0.828-0.67,2.07-1.315,3.386c-1.803,3.723-4.519,9.34-0.621,16.821c4.128,7.27,8.713,16.331,8.938,18.443
		C165.552,104.575,165.448,105.02,165.065,105.415z M111.146,70.22h-0.079c-9.249,0-15.211,7.319-15.211,17.056
		c0,10.331,6.552,16.557,14.785,16.557c7.891,0,15.119-6.064,15.119-17.482C125.766,77.031,120.475,70.22,111.146,70.22z
		 M110.981,96.857c-3.611,0-5.614-4.113-5.541-9.831c0-5.551,1.674-9.91,5.462-9.91h0.079c3.866,0,5.383,4.283,5.383,9.828
		C116.357,93.167,114.592,96.857,110.981,96.857z M86.448,63.842c0-9.414-5.295-16.298-14.624-16.298h-0.079
		c-9.329,0-15.29,7.401-15.29,17.141c0,10.254,6.555,16.465,14.873,16.465C79.226,81.144,86.448,75.183,86.448,63.842z
		 M71.664,74.254c-3.696,0-5.712-4.107-5.629-9.812c0-5.568,1.684-9.929,5.462-9.929h0.082c3.952,0,5.462,4.29,5.462,9.828
		C77.04,70.564,75.274,74.254,71.664,74.254z M110.141,47.623l-31.338,56.374h-6.884l31.427-56.374H110.141L110.141,47.623z"/>
</g>
<g>
</g>
<g>
</g>
<g>
</g>
<g>
</g>
<g>
</g>
<g>
</g>
<g>
</g>
<g>
</g>
<g>
</g>
<g>
</g>
<g>
</g>
<g>
</g>
<g>
</g>
<g>
</g>
<g>
</g>
</svg>
