<?xml version="1.0" encoding="iso-8859-1"?>
<!-- Generator: Adobe Illustrator 16.0.0, SVG Export Plug-In . SVG Version: 6.00 Build 0)  -->
<!DOCTYPE svg PUBLIC "-//W3C//DTD SVG 1.1//EN" "http://www.w3.org/Graphics/SVG/1.1/DTD/svg11.dtd">
<svg version="1.1" id="Capa_1" xmlns="http://www.w3.org/2000/svg" xmlns:xlink="http://www.w3.org/1999/xlink" x="0px" y="0px"
	 width="173.102px" height="173.102px" viewBox="0 0 173.102 173.102" style="enable-background:new 0 0 173.102 173.102;"
	 xml:space="preserve">
<g>
	<path d="M151.019,105.537c0.183,0.633,0.048,1.333-0.378,1.826l-39.244,48.458c-0.384,0.475-0.963,0.755-1.577,0.755H59.517
		l-15.606,15.93c-0.399,0.389-0.923,0.596-1.446,0.596c-0.518,0-1.035-0.17-1.422-0.578c-0.807-0.773-0.813-2.064-0.034-2.88
		l16.207-16.521c0.38-0.377,0.904-0.596,1.446-0.596h50.189l37.924-46.832c-0.597-1.291-1.413-1.748-2.016-1.985
		c-3.44-1.291-9.737,1.767-11.996,3.16l-29.033,33.119c-0.39,0.463-0.938,0.694-1.534,0.694H82.187
		c-5.599,0-9.621-1.547-11.965-4.573c-3.197-4.208-1.821-9.493-1.757-9.742c0.244-0.871,1.042-1.479,1.964-1.479h20.015
		c4.963,0,8.628-1.255,10.912-3.721c1.619-1.724,2.24-3.781,2.49-5.262H47.338l-21.991,18.578c-0.85,0.713-2.14,0.646-2.862-0.243
		c-0.725-0.853-0.624-2.144,0.243-2.85l22.558-19.071c0.368-0.322,0.837-0.475,1.309-0.475h59.424c1.06,0,1.942,0.815,2.021,1.887
		c0.024,0.22,0.384,5.828-3.702,10.218c-3.081,3.301-7.758,4.981-13.896,4.981H72.198c-0.067,1.291,0.088,3.203,1.272,4.707
		c1.541,1.984,4.473,3.002,8.717,3.002h19.089l28.632-32.675c0.128-0.146,0.273-0.274,0.433-0.39
		c0.986-0.633,9.767-6.028,15.874-3.666C147.865,100.55,150.044,102.042,151.019,105.537z M111.213,8.561H84.388
		c-1.121,0-2.031,0.895-2.031,2.019c0,1.135,0.91,2.021,2.031,2.021h24.786v29.767c0,1.142,0.907,2.027,2.039,2.027
		c1.127,0,2.028-0.907,2.028-2.027V10.562C113.242,9.456,112.34,8.561,111.213,8.561z M40.774,104.148V2.019
		C40.774,0.883,41.685,0,42.811,0h76.477c1.127,0,2.04,0.904,2.04,2.019v102.13c0,1.133-0.913,2.021-2.04,2.021H42.805
		C41.691,106.17,40.774,105.281,40.774,104.148z M83.584,100.373c0-1.406-1.154-2.533-2.542-2.533c-1.41,0-2.545,1.139-2.545,2.533
		c0,1.413,1.136,2.545,2.545,2.545C82.437,102.918,83.584,101.786,83.584,100.373z M44.845,95.605h72.403V4.058H44.845V95.605z"/>
</g>
<g>
</g>
<g>
</g>
<g>
</g>
<g>
</g>
<g>
</g>
<g>
</g>
<g>
</g>
<g>
</g>
<g>
</g>
<g>
</g>
<g>
</g>
<g>
</g>
<g>
</g>
<g>
</g>
<g>
</g>
</svg>
