<?xml version="1.0" encoding="iso-8859-1"?>
<!-- Generator: Adobe Illustrator 16.0.0, SVG Export Plug-In . SVG Version: 6.00 Build 0)  -->
<!DOCTYPE svg PUBLIC "-//W3C//DTD SVG 1.1//EN" "http://www.w3.org/Graphics/SVG/1.1/DTD/svg11.dtd">
<svg version="1.1" id="Capa_1" xmlns="http://www.w3.org/2000/svg" xmlns:xlink="http://www.w3.org/1999/xlink" x="0px" y="0px"
	 width="187.059px" height="187.059px" viewBox="0 0 187.059 187.059" style="enable-background:new 0 0 187.059 187.059;"
	 xml:space="preserve">
<g>
	<path d="M187.059,74.767c0,4.29-0.683,8.497-1.985,12.519c-6.375,28.634-60.897,63.166-63.205,64.639
		c-0.811,0.518-1.742,0.773-2.674,0.773c-0.938,0-1.869-0.268-2.685-0.773c-1.596-1.011-39.361-24.874-55.96-49.34
		c-1.571-2.296-0.977-5.426,1.328-6.987c2.235-1.571,5.425-1.011,6.972,1.33c13.013,19.162,41.516,38.892,50.357,44.73
		c16.373-10.74,51.782-37.43,56.147-57.043c1.146-3.482,1.62-6.64,1.62-9.855c0-11.107-6.04-21.333-15.746-26.701
		c-12.605-6.933-29.07-3.778-38.155,7.246c-0.956,1.153-2.387,1.814-3.879,1.826c-1.498,0-2.929-0.673-3.854-1.814
		c-9.109-10.924-25.564-14.154-38.255-7.258c-5.212,2.868-9.45,7.209-12.251,12.507c-1.279,2.433-4.372,3.38-6.783,2.101
		c-2.469-1.291-3.41-4.332-2.107-6.789c3.702-7.045,9.353-12.8,16.298-16.63c15.159-8.287,34.568-5.729,46.936,5.575
		c12.33-11.354,31.895-13.862,46.898-5.575C179.027,46.376,187.059,60,187.059,74.767z M167.537,84.168
		c0.244,0.088,0.518,0.131,0.786,0.131c1.053,0,2.039-0.661,2.381-1.714c0.84-2.509,1.254-5.146,1.254-7.818
		c0-9.292-5.042-17.823-13.116-22.28c-3.823-2.107-7.977-3.191-12.33-3.191c-1.407,0-2.503,1.126-2.503,2.518
		c0,1.385,1.108,2.512,2.503,2.512c3.489,0,6.795,0.861,9.895,2.558c6.479,3.586,10.522,10.431,10.522,17.884
		c0,2.137-0.341,4.238-1.011,6.229C165.497,82.317,166.209,83.739,167.537,84.168z M23.27,62.171L15.265,85.52l-0.35-23.461
		c-0.487-0.052-0.975-0.089-1.522-0.089C7.021,61.97,0,66.808,0,71.877c0,2.749,1.434,3.724,4.064,3.724
		c-0.024-0.344-0.536-0.648-0.536-2.594c0-4.22,1.839-7.183,5.991-8.479v26.077h5.849L25.97,62.171H23.27z M59.08,90.826
		c-2.875,0-4.591-1.57-5.313-4.231c-2.146,3.522-4.914,4.231-6.591,4.231c-2.031,0-3.492-1.309-3.821-3.766
		c-2.015,3.169-4.445,3.766-6.043,3.766c-2.167,0-3.528-1.239-3.766-3.51c-1.172,1.735-2.975,3.51-5.693,3.51
		c-2.573,0-5.082-1.595-5.082-6.146c0-5.158,3.2-13.369,9.828-13.369c2.165,0,3.093,0.85,3.093,1.946v0.28l0.436-2.027h5.474
		l-2.743,12.988c-0.131,0.493-0.167,0.886-0.167,1.218c0,1.065,0.542,1.632,1.595,1.632c1.498,0,2.494-1.668,3.093-3.571h0.024
		l4.064-19.123l5.675-0.761l-4.396,20.612c-0.125,0.493-0.137,0.886-0.137,1.218c0,1.065,0.493,1.403,1.571,1.403
		c1.23,0,2.308-1.117,2.98-2.582c0.076-4.445,2.545-13.356,10.275-13.356c3.392,0,4.18,1.748,4.18,3.66
		c0,4.384-4.18,7.782-8.792,8.044c0,0.548-0.052,1.09-0.052,1.546c0,2.588,0.91,3.194,2.752,3.194c2.993,0,4.832-1.684,6.753-3.843
		h0.024l2.6-12.263h5.475l-0.405,2c1.62-1.863,3.279-2.171,4.457-2.171c2.47,0,4.26,1.278,4.26,4.335
		c0,3.09-1.839,7.706-1.839,9.843c0,0.943,0.387,1.598,1.513,1.598c1.69,0,2.366-1.367,3.225-3.343h0.024l2.308-10.744h-1.251
		l0.268-1.519h1.275l1.136-5.258l5.679-0.773l-1.304,6.031h2.271l-0.316,1.519h-2.283l-2.43,11.469
		c-0.101,0.49-0.144,0.883-0.144,1.215c0,1.066,0.484,1.404,1.574,1.404c1.468,0,2.838-1.434,3.435-3.343l2.605-12.263h5.505
		l-2.752,12.988c-0.122,0.49-0.146,0.883-0.146,1.215c0,1.066,0.499,1.404,1.571,1.404c1.474,0,2.85-1.434,3.422-3.343l0,0
		l2.631-12.263h5.498l-0.433,2c1.62-1.863,3.282-2.171,4.47-2.171c2.454,0,4.25,1.278,4.25,4.335c0,3.09-1.845,7.706-1.845,9.843
		c0,0.943,0.396,1.598,1.517,1.598c1.357,0,2.046-1.011,2.709-2.344c0-0.012,0-0.012,0-0.012c0-4.384,2.503-13.582,10.31-13.582
		c3.416,0,4.226,1.747,4.226,3.659c0,4.427-4.226,7.782-8.793,8.044c-0.024,0.393-0.098,0.81-0.098,1.154
		c0,2.408,1.035,3.167,2.405,3.167c1.443,0,3.271-0.947,4.5-2.025c-0.815,4.372-3.55,5.654-6.606,5.654
		c-2.746,0-4.445-1.52-5.206-4.028c-1.925,3.379-4.104,4.028-5.699,4.028c-3.337,0-4.519-2.131-4.519-4.32
		c0-2.594,1.717-7.289,1.717-9.733c0-1.279-0.438-1.939-1.382-1.939c-1.382,0-2.417,1.596-2.99,3.511l-2.569,12.254h-5.541
		l0.523-2.472c-1.918,2.164-4.067,2.7-5.48,2.7c-2.033,0-3.507-1.321-3.823-3.839c-2.119,3.215-4.769,3.839-6.376,3.839
		c-1.988,0-3.392-1.297-3.778-3.666c-1.845,3.105-3.955,3.666-5.526,3.666c-3.315,0-4.5-2.131-4.5-4.32
		c0-2.594,1.714-7.289,1.714-9.733c0-1.279-0.463-1.939-1.379-1.939c-1.376,0-2.411,1.596-2.993,3.511l-2.594,12.254h-5.48
		l1.035-4.853C65.769,88.439,63.12,90.826,59.08,90.826z M132.798,81.05c2.978-0.131,5.571-3.093,5.571-6.311
		c0-0.941-0.207-1.544-0.919-1.544C135.52,73.195,133.608,77.421,132.798,81.05z M59.159,81.05c2.901-0.173,5.507-3.118,5.507-6.311
		c0-0.941-0.195-1.544-0.922-1.544C61.765,73.195,59.902,77.284,59.159,81.05z M35.354,75.126c0-0.442-0.356-1.446-1.571-1.446
		c-3.249,0-5.343,6.884-5.343,10.446c0,2.959,1.214,2.987,1.915,2.987c1.132,0,2.704-1.142,3.19-3.343L35.354,75.126z
		 M107.236,66.409c0-1.672-1.37-3.042-3.044-3.042c-1.688,0-3.015,1.37-3.015,3.042c0,1.689,1.327,3.044,3.015,3.044
		C105.866,69.466,107.236,68.104,107.236,66.409z M144.507,69.17h2.851l-1.084-7.207h-4.031L144.507,69.17z M160.169,70.333
		c0.444,9.868,0.853,11.366,0.853,13.896c0,4.972-4.531,6.604-7.648,6.604c-3.909,0-5.578-2.56-5.578-4.893
		c0-1.748,0.987-3.057,2.01-3.538c2.144-3.791,3.532-7.557,4.719-11.305L160.169,70.333z M155.456,84.256
		c0-1.979-0.341-3.157-0.73-9.024c-0.742,2.469-1.814,4.74-3.093,7.188c0.535,0.225,0.913,0.712,0.913,1.355
		c0,0.91-0.67,1.851-1.692,1.851c-0.384,0-0.841-0.113-1.035-0.478c0,1.775,0.651,2.673,2.368,2.673
		C153.836,87.821,155.456,86.923,155.456,84.256z M131.964,117.521l0.268-1.279c-1.229,1.4-2.527,1.688-3.507,1.688
		c-1.547,0-2.631-0.999-2.875-2.881c-1.546,2.418-3.385,2.881-4.615,2.881c-1.619,0-2.654-0.938-2.813-2.668
		c-0.913,1.322-2.259,2.668-4.299,2.668c-1.57,0-2.812-1.145-3.349-3.186c-1.547,2.582-3.477,2.984-4.75,2.984
		c-1.57,0-2.605-0.847-2.85-2.467c-0.858,1.322-2.204,2.668-4.286,2.668c-1.949,0-3.812-1.242-3.812-4.664
		c0-3.904,2.405-10.115,7.404-10.115c1.675,0,2.351,0.64,2.351,1.456v0.134l1.413-6.662l4.286-0.572l-3.336,15.613
		c-0.104,0.383-0.104,0.67-0.104,0.926c0,0.81,0.347,1.065,1.175,1.065c0.907,0,1.547-0.81,1.985-1.852l0,0
		c0-3.903,2.387-10.114,7.435-10.114c1.62,0,2.332,0.64,2.332,1.455v0.226l0.316-1.534h4.178l-2.089,9.822
		c-0.098,0.383-0.128,0.67-0.128,0.925c0,0.81,0.39,1.242,1.175,1.242c1.127,0,1.919-1.278,2.357-2.722l1.96-9.273h4.178
		l-2.064,9.821c-0.079,0.226-0.104,0.506-0.104,0.719c0,0.676,0.194,1.278,0.889,1.278c1.133,0,1.863-1.102,2.308-2.545l1.967-9.273
		h4.165l-3.531,16.757c-0.841,4.135-3.337,4.921-5.249,4.921c-1.771,0-3.422-1.242-3.422-3.131
		C126.947,119.147,129.236,118.331,131.964,117.521z M131.763,118.429c-1.839,0.627-3.215,1.443-3.215,3.002
		c0,0.401,0.542,0.956,1.156,0.956c0.591,0,1.346-0.555,1.718-2.253L131.763,118.429z M104.563,105.958
		c-0.049-0.371-0.323-1.035-1.169-1.035c-2.473,0-4.044,5.206-4.044,7.929c0,2.229,0.926,2.252,1.426,2.252
		c0.834,0,2.009-0.81,2.404-2.393v-0.152L104.563,105.958z M119.761,106.037c0-0.365-0.249-1.114-1.181-1.114
		c-2.454,0-4.037,5.206-4.037,7.929c0,2.229,0.919,2.252,1.442,2.252c0.828,0,2.059-0.87,2.399-2.545L119.761,106.037z"/>
</g>
<g>
</g>
<g>
</g>
<g>
</g>
<g>
</g>
<g>
</g>
<g>
</g>
<g>
</g>
<g>
</g>
<g>
</g>
<g>
</g>
<g>
</g>
<g>
</g>
<g>
</g>
<g>
</g>
<g>
</g>
</svg>
