<?xml version="1.0" encoding="iso-8859-1"?>
<!-- Generator: Adobe Illustrator 16.0.0, SVG Export Plug-In . SVG Version: 6.00 Build 0)  -->
<!DOCTYPE svg PUBLIC "-//W3C//DTD SVG 1.1//EN" "http://www.w3.org/Graphics/SVG/1.1/DTD/svg11.dtd">
<svg version="1.1" id="Capa_1" xmlns="http://www.w3.org/2000/svg" xmlns:xlink="http://www.w3.org/1999/xlink" x="0px" y="0px"
	 width="157.216px" height="157.216px" viewBox="0 0 157.216 157.216" style="enable-background:new 0 0 157.216 157.216;"
	 xml:space="preserve">
<g>
	<path d="M83.935,41.744c0-1.04,0.82-1.877,1.866-1.877c3.234,0,6.326,0.805,9.183,2.381c6.019,3.321,9.772,9.691,9.772,16.602
		c0,1.998-0.312,3.962-0.929,5.828c-0.265,0.788-0.986,1.286-1.774,1.286c-0.196,0-0.405-0.043-0.578-0.104
		c-1.004-0.317-1.522-1.385-1.195-2.37c0.495-1.478,0.747-3.042,0.747-4.641c0-5.554-3.012-10.659-7.839-13.33
		c-2.309-1.259-4.782-1.904-7.374-1.904C84.764,43.615,83.935,42.773,83.935,41.744z M157.216,70.33v45.545
		c0,1.308-0.673,2.517-1.789,3.204c-1.139,0.69-2.507,0.723-3.676,0.126l-17.774-9.171v14.689c0,2.065-1.686,3.745-3.741,3.745
		H3.754c-2.068,0-3.754-1.68-3.754-3.745V61.487c0-2.063,1.686-3.749,3.754-3.749h11.218c0.396-10.555,6.17-20.213,15.476-25.346
		c11.247-6.172,25.776-4.285,34.988,4.153c9.212-8.465,23.759-10.331,34.951-4.153c9.316,5.133,15.073,14.791,15.479,25.346h14.371
		c2.056,0,3.741,1.686,3.741,3.749v14.687l17.774-9.166c1.169-0.607,2.537-0.558,3.676,0.131
		C156.543,67.818,157.216,69.027,157.216,70.33z M22.323,58.849c0,2.358,0.38,4.711,1.132,6.994
		c3.333,14.966,29.751,34.878,41.973,42.884c12.211-8.011,38.618-27.902,41.868-42.528c0.835-2.599,1.213-4.952,1.213-7.349
		c0-8.279-4.496-15.901-11.76-19.896c-9.367-5.177-21.654-2.818-28.424,5.396c-0.717,0.859-1.775,1.357-2.897,1.363
		c-1.114,0-2.185-0.504-2.881-1.358c-4.352-5.231-10.742-8.234-17.526-8.234c-3.793,0-7.587,0.979-10.983,2.828
		C26.822,42.948,22.323,50.576,22.323,58.849z M149.711,76.486l-17.765,9.165c-1.169,0.599-2.55,0.564-3.677-0.126
		c-1.111-0.689-1.788-1.894-1.788-3.196V65.246H115c-0.219,0.969-0.163,1.992-0.471,2.944c-4.767,21.352-45.391,47.083-47.101,48.17
		c-0.604,0.389-1.293,0.58-1.994,0.58c-0.69,0-1.391-0.187-1.984-0.58c-1.727-1.083-42.378-26.818-47.211-48.521
		c-0.258-0.782-0.22-1.751-0.406-2.588h-8.32v55.731h118.978v-17.078c0-1.303,0.678-2.517,1.783-3.2
		c1.141-0.69,2.508-0.713,3.68-0.126l17.771,9.171V76.486H149.711z"/>
</g>
<g>
</g>
<g>
</g>
<g>
</g>
<g>
</g>
<g>
</g>
<g>
</g>
<g>
</g>
<g>
</g>
<g>
</g>
<g>
</g>
<g>
</g>
<g>
</g>
<g>
</g>
<g>
</g>
<g>
</g>
</svg>
