<?xml version="1.0" encoding="iso-8859-1"?>
<!-- Generator: Adobe Illustrator 16.0.0, SVG Export Plug-In . SVG Version: 6.00 Build 0)  -->
<!DOCTYPE svg PUBLIC "-//W3C//DTD SVG 1.1//EN" "http://www.w3.org/Graphics/SVG/1.1/DTD/svg11.dtd">
<svg version="1.1" id="Capa_1" xmlns="http://www.w3.org/2000/svg" xmlns:xlink="http://www.w3.org/1999/xlink" x="0px" y="0px"
	 width="116.796px" height="116.796px" viewBox="0 0 116.796 116.796" style="enable-background:new 0 0 116.796 116.796;"
	 xml:space="preserve">
<g>
	<path d="M94.047,90.683H77.923v-2.989c0-1.607-1.261-2.887-2.88-2.887H38.124v-6.619c0-1.619-1.278-2.886-2.886-2.886H18.045
		c-1.614,0-2.88,1.267-2.88,2.886v6.619h-0.733c-1.617,0-2.89,1.279-2.89,2.887v20.801c0,1.619,1.272,2.886,2.89,2.886h60.611
		c1.619,0,2.88-1.267,2.88-2.886v-2.083h16.124c1.614,0,2.881-1.278,2.881-2.886v-9.95C96.928,91.961,95.661,90.683,94.047,90.683z
		 M72.156,105.613H17.312v-15.04h0.734c1.617,0,2.889-1.278,2.889-2.886v-6.619h11.414v6.619c0,1.607,1.272,2.886,2.89,2.886h36.918
		V105.613z M91.154,100.627H77.923v-4.178h13.231V100.627z M25.118,44.262c0,7.097,5.736,12.839,12.839,12.839
		c7.1,0,12.836-5.742,12.836-12.839s-5.736-12.845-12.836-12.845C30.854,31.429,25.118,37.165,25.118,44.262z M37.957,37.192
		c3.897,0,7.063,3.167,7.063,7.07c0,3.903-3.167,7.073-7.063,7.073c-3.897,0-7.073-3.17-7.073-7.073
		C30.884,40.359,34.06,37.192,37.957,37.192z M14.261,62.807c0,5.34,4.32,9.682,9.679,9.682c5.331,0,9.67-4.329,9.67-9.682
		c0-5.34-4.327-9.664-9.67-9.664C18.581,53.143,14.261,57.454,14.261,62.807z M27.837,62.807c0,2.155-1.748,3.896-3.897,3.896
		c-2.158,0-3.909-1.741-3.909-3.896c0-2.149,1.751-3.896,3.909-3.896C26.083,58.91,27.837,60.657,27.837,62.807z M32.918,21.872
		c0-9.072-7.377-16.456-16.462-16.456C7.389,5.416,0,12.8,0,21.872c0,9.073,7.389,16.456,16.456,16.456
		C25.541,38.328,32.918,30.945,32.918,21.872z M5.782,21.872c0-5.879,4.807-10.695,10.68-10.695c5.879,0,10.693,4.811,10.693,10.695
		c0,5.886-4.808,10.687-10.693,10.687C10.589,32.559,5.782,27.751,5.782,21.872z M85.193,49.1c0,0-5.133-8.192-5.133-18.343
		s5.133-18.374,5.133-18.374s5.146,8.223,5.146,18.374S85.193,49.1,85.193,49.1z M105.434,44.655
		c-5.9,6.312-13.706,9.365-13.706,9.365s1.747-7.152,7.685-13.43c5.869-6.335,13.676-9.389,13.676-9.389
		S111.34,38.358,105.434,44.655z M116.796,53.399c0,0-4.634,4.208-11.453,5.711C98.56,60.529,92.202,58.6,92.202,58.6
		s4.609-4.217,11.423-5.657C110.445,51.466,116.796,53.399,116.796,53.399z M105.294,68.402c0,0-4.53,0.926-8.598-0.676
		c-4.02-1.674-5.992-5.268-5.992-5.268s4.53-0.9,8.531,0.707C103.314,64.785,105.294,68.402,105.294,68.402z M64.953,44.655
		c-5.903-6.302-7.663-13.454-7.663-13.454s7.81,3.054,13.686,9.396c5.925,6.271,7.678,13.423,7.678,13.423
		S70.859,50.954,64.953,44.655z M65.021,59.11c-6.805-1.504-11.445-5.711-11.445-5.711s6.384-1.933,13.173-0.457
		c6.82,1.44,11.418,5.657,11.418,5.657S71.815,60.523,65.021,59.11z M79.677,62.459c0,0-1.967,3.594-5.992,5.268
		c-4.037,1.62-8.536,0.676-8.536,0.676s1.967-3.617,5.991-5.236C75.165,61.564,79.677,62.459,79.677,62.459z M85.193,56.078
		c1.613,0,2.887,1.272,2.887,2.887v27.596c0,1.607-1.273,2.874-2.887,2.874s-2.886-1.267-2.886-2.874V58.965
		C82.308,57.357,83.58,56.078,85.193,56.078z"/>
</g>
<g>
</g>
<g>
</g>
<g>
</g>
<g>
</g>
<g>
</g>
<g>
</g>
<g>
</g>
<g>
</g>
<g>
</g>
<g>
</g>
<g>
</g>
<g>
</g>
<g>
</g>
<g>
</g>
<g>
</g>
</svg>
