<?xml version="1.0" encoding="iso-8859-1"?>
<!-- Generator: Adobe Illustrator 16.0.0, SVG Export Plug-In . SVG Version: 6.00 Build 0)  -->
<!DOCTYPE svg PUBLIC "-//W3C//DTD SVG 1.1//EN" "http://www.w3.org/Graphics/SVG/1.1/DTD/svg11.dtd">
<svg version="1.1" id="Capa_1" xmlns="http://www.w3.org/2000/svg" xmlns:xlink="http://www.w3.org/1999/xlink" x="0px" y="0px"
	 width="187.059px" height="187.059px" viewBox="0 0 187.059 187.059" style="enable-background:new 0 0 187.059 187.059;"
	 xml:space="preserve">
<g>
	<path d="M166.27,67.793c0,3.671-0.597,7.307-1.717,10.78c-0.487,1.44-1.827,2.363-3.288,2.363c-0.354,0-0.713-0.037-1.071-0.167
		c-1.803-0.575-2.789-2.527-2.205-4.342c0.914-2.792,1.389-5.693,1.389-8.622c0-10.263-5.578-19.692-14.528-24.643
		c-4.189-2.356-8.769-3.529-13.64-3.529c-1.912,0-3.447-1.522-3.447-3.434c0-1.927,1.535-3.443,3.447-3.443
		c6.052,0,11.776,1.44,16.988,4.378C159.329,43.25,166.27,55.037,166.27,67.793z M187.059,67.793c0,5.791-0.926,11.578-2.74,17.247
		c-8.781,39.449-83.909,87.054-87.105,89.045c-1.127,0.706-2.387,1.078-3.666,1.078c-1.284,0-2.542-0.372-3.672-1.078
		C86.676,172.1,11.5,124.49,2.576,84.398C0.922,79.372,0,73.578,0,67.793C0,47.453,11.073,28.698,28.887,18.91
		c12.291-6.771,25.572-9.024,40.922-5.058c1.921,0.466,3.538,1.775,4.448,3.565l19.595,38.791c0.913,1.814,0.98,3.934,0.188,5.785
		c-0.81,1.897-2.387,3.3-4.348,3.91l-18.736,5.724l19.778,36.392l0.557-23.803c0.067-2.387,1.346-4.545,3.395-5.754l17.963-10.607
		L94.406,32.981c-1.519-2.898-0.779-6.497,1.76-8.549c17.287-14.011,42.369-16.297,61.981-5.562
		C176,28.698,187.059,47.453,187.059,67.793z M173.254,67.793c0-15.32-8.312-29.426-21.732-36.833
		c-13.28-7.237-29.495-6.802-42.118,0.944l18.505,35.354c1.692,3.261,0.548,7.271-2.606,9.122l-20.307,12.02l-1.072,45.784
		c-0.066,3.13-2.223,5.803-5.267,6.527c-3.015,0.779-6.199-0.657-7.679-3.397L54.802,70.792c-0.993-1.814-1.111-4.009-0.32-5.916
		c0.795-1.915,2.396-3.367,4.378-3.973l18.986-5.8l-14.44-28.588c-2.673-0.536-5.169-0.773-7.557-0.773
		c-7.002,0-14.023,1.82-20.301,5.264c-13.402,7.371-21.732,21.468-21.732,36.788c0,4.378,0.694,8.716,2.07,12.994
		c6.181,27.639,55.077,64.472,77.674,79.286c22.572-14.814,71.443-51.611,77.472-78.681C172.56,76.51,173.254,72.171,173.254,67.793
		z"/>
</g>
<g>
</g>
<g>
</g>
<g>
</g>
<g>
</g>
<g>
</g>
<g>
</g>
<g>
</g>
<g>
</g>
<g>
</g>
<g>
</g>
<g>
</g>
<g>
</g>
<g>
</g>
<g>
</g>
<g>
</g>
</svg>
