<?xml version="1.0" encoding="iso-8859-1"?>
<!-- Generator: Adobe Illustrator 16.0.0, SVG Export Plug-In . SVG Version: 6.00 Build 0)  -->
<!DOCTYPE svg PUBLIC "-//W3C//DTD SVG 1.1//EN" "http://www.w3.org/Graphics/SVG/1.1/DTD/svg11.dtd">
<svg version="1.1" id="Capa_1" xmlns="http://www.w3.org/2000/svg" xmlns:xlink="http://www.w3.org/1999/xlink" x="0px" y="0px"
	 width="153.806px" height="153.806px" viewBox="0 0 153.806 153.806" style="enable-background:new 0 0 153.806 153.806;"
	 xml:space="preserve">
<g>
	<path d="M153.806,55.024c0-23.121-18.17-41.933-41.103-43.735V3.775c0-1.939-1.57-3.51-3.501-3.51H3.51
		C1.565,0.265,0,1.835,0,3.775v146.259c0,1.942,1.571,3.508,3.51,3.508h105.692c1.937,0,3.501-1.571,3.501-3.508V98.739
		C135.636,96.936,153.806,78.139,153.806,55.024z M105.677,146.526H7.015V7.286h3.312c8.004,19.248,20.009,45.735,28.305,59.765
		c-7.998,5.849-10.787,19.169-6.089,32.23c5.404,15.052,18.654,24.046,29.584,20.112c10.936-3.922,15.427-19.321,10.001-34.343
		c-4.701-13.086-15.338-21.571-25.221-20.975C44.67,49.873,38.471,26.354,32.86,7.286h72.823v139.24H105.677z M112.704,91.724
		V18.316c19.06,1.778,34.075,17.458,34.075,36.715C146.779,74.272,131.763,89.946,112.704,91.724z"/>
</g>
<g>
</g>
<g>
</g>
<g>
</g>
<g>
</g>
<g>
</g>
<g>
</g>
<g>
</g>
<g>
</g>
<g>
</g>
<g>
</g>
<g>
</g>
<g>
</g>
<g>
</g>
<g>
</g>
<g>
</g>
</svg>
