<?xml version="1.0" encoding="iso-8859-1"?>
<!-- Generator: Adobe Illustrator 16.0.0, SVG Export Plug-In . SVG Version: 6.00 Build 0)  -->
<!DOCTYPE svg PUBLIC "-//W3C//DTD SVG 1.1//EN" "http://www.w3.org/Graphics/SVG/1.1/DTD/svg11.dtd">
<svg version="1.1" id="Capa_1" xmlns="http://www.w3.org/2000/svg" xmlns:xlink="http://www.w3.org/1999/xlink" x="0px" y="0px"
	 width="145.341px" height="145.342px" viewBox="0 0 145.341 145.342" style="enable-background:new 0 0 145.341 145.342;"
	 xml:space="preserve">
<g>
	<path d="M4.692,73.213h135.96c2.6,0,4.688-2.101,4.688-4.692c0-2.588-2.089-4.689-4.688-4.689h-13.101
		c-0.595-29.775-24.952-53.819-54.87-53.819c-29.916,0-54.284,24.049-54.889,53.819H4.692C2.091,63.831,0,65.932,0,68.521
		C0,71.112,2.091,73.213,4.692,73.213z M77.363,23.987c12.451,8.764,20.246,23.579,20.591,39.839H77.363V23.987z M67.981,23.987
		v39.839H47.389C47.735,47.571,55.53,32.745,67.981,23.987z M118.119,63.826h-10.79c-0.308-15.694-6.546-30.235-16.842-40.802
		C106.442,29.825,117.661,45.521,118.119,63.826z M54.84,23.041C44.531,33.607,38.307,48.149,38.009,63.831H27.218
		C27.695,45.527,38.9,29.842,54.84,23.041z M145.341,130.642c0,2.596-2.089,4.688-4.688,4.688H4.692
		c-2.602,0-4.692-2.093-4.692-4.688c0-2.6,2.091-4.689,4.692-4.689h135.96C143.252,125.94,145.341,128.042,145.341,130.642z
		 M15.825,75.93c2.583,0,4.685,2.098,4.685,4.681v37.909c0,2.588-2.103,4.685-4.685,4.685c-2.594,0-4.695-2.097-4.695-4.685V80.611
		C11.146,78.028,13.237,75.93,15.825,75.93z M53.727,75.93c2.589,0,4.69,2.098,4.69,4.681v37.909c0,2.588-2.102,4.685-4.69,4.685
		c-2.596,0-4.69-2.097-4.69-4.685V80.611C49.037,78.028,51.131,75.93,53.727,75.93z M91.623,75.93c2.6,0,4.701,2.098,4.701,4.681
		v37.909c0,2.588-2.102,4.685-4.701,4.685c-2.593,0-4.684-2.097-4.684-4.685V80.611C86.939,78.028,89.03,75.93,91.623,75.93z
		 M129.517,75.93c2.596,0,4.696,2.098,4.696,4.681v37.909c0,2.588-2.101,4.685-4.696,4.685c-2.583,0-4.685-2.097-4.685-4.685V80.611
		C124.833,78.028,126.934,75.93,129.517,75.93z"/>
</g>
<g>
</g>
<g>
</g>
<g>
</g>
<g>
</g>
<g>
</g>
<g>
</g>
<g>
</g>
<g>
</g>
<g>
</g>
<g>
</g>
<g>
</g>
<g>
</g>
<g>
</g>
<g>
</g>
<g>
</g>
</svg>
