<?xml version="1.0" encoding="iso-8859-1"?>
<!-- Generator: Adobe Illustrator 16.0.0, SVG Export Plug-In . SVG Version: 6.00 Build 0)  -->
<!DOCTYPE svg PUBLIC "-//W3C//DTD SVG 1.1//EN" "http://www.w3.org/Graphics/SVG/1.1/DTD/svg11.dtd">
<svg version="1.1" id="Capa_1" xmlns="http://www.w3.org/2000/svg" xmlns:xlink="http://www.w3.org/1999/xlink" x="0px" y="0px"
	 width="217.826px" height="217.826px" viewBox="0 0 217.826 217.826" style="enable-background:new 0 0 217.826 217.826;"
	 xml:space="preserve">
<g>
	<path d="M215.936,104.508c-0.7-0.593-16.753-14.457-41.673-26.128c-2.759-1.275-6.054-0.082-7.399,2.673
		c-1.248,2.792-0.056,6.093,2.703,7.389c15.393,7.176,27.349,15.394,33.768,20.232c-12.323,9.253-45.128,30.774-84.259,34.155
		c8.865-5.646,36.914-24.753,40.812-41.77c0.915-2.978,1.4-5.845,1.4-8.752c0-10.458-5.831-20.055-15.196-25.103
		c-10.423-5.538-23.453-4.214-32.316,2.701c-3.729-2.941-8.274-4.545-13.027-5.407c-0.968-0.673-2.105-1.25-3.294-1.281
		c-3.137,0.191-12.322,1.705-12.378,1.705C38.004,73.389,3.357,103.25,1.893,104.508C0.702,105.562,0,107.075,0,108.673
		c0,1.592,0.702,3.103,1.893,4.159c1.996,1.701,48.538,41.778,107.019,41.778c58.482,0,105.011-40.077,107.019-41.778
		c1.194-1.057,1.896-2.567,1.896-4.159C217.831,107.075,217.131,105.562,215.936,104.508z M14.495,108.673
		c11.142-8.351,38.753-26.78,72.485-32.83c0.058,0,4.763-0.818,8.276-1.277c0.112,0,0.157,0.133,0.325,0.133
		c5.406,0,10.54,2.32,13.997,6.405c2.114,2.481,6.329,2.481,8.43,0c5.407-6.351,15.081-8.277,22.862-4.159
		c5.778,3.111,9.356,8.993,9.356,15.349c0,1.775-0.284,3.567-1.039,5.86c-2.375,10.518-21.888,26.191-35.391,34.94
		c-13.51-8.735-32.976-24.401-35.35-34.94c-0.701-2.999-3.513-4.763-6.658-4.159c-2.968,0.701-4.858,3.677-4.159,6.657
		c4.214,18.296,34.811,38.4,41.896,42.832c-0.217,0.027-0.374,0.061-0.593,0.061C65.47,143.528,27.96,118.752,14.495,108.673z
		 M99.845,104.113c-0.117-7.62,5.951-13.941,13.622-14.062c7.619-0.134,13.891,5.97,13.998,13.602
		c0.111,7.62-5.953,13.933-13.625,14.054C106.223,117.833,99.947,111.726,99.845,104.113z"/>
</g>
<g>
</g>
<g>
</g>
<g>
</g>
<g>
</g>
<g>
</g>
<g>
</g>
<g>
</g>
<g>
</g>
<g>
</g>
<g>
</g>
<g>
</g>
<g>
</g>
<g>
</g>
<g>
</g>
<g>
</g>
</svg>
