<?xml version="1.0" encoding="iso-8859-1"?>
<!-- Generator: Adobe Illustrator 16.0.0, SVG Export Plug-In . SVG Version: 6.00 Build 0)  -->
<!DOCTYPE svg PUBLIC "-//W3C//DTD SVG 1.1//EN" "http://www.w3.org/Graphics/SVG/1.1/DTD/svg11.dtd">
<svg version="1.1" id="Capa_1" xmlns="http://www.w3.org/2000/svg" xmlns:xlink="http://www.w3.org/1999/xlink" x="0px" y="0px"
	 width="168.1px" height="168.101px" viewBox="0 0 168.1 168.101" style="enable-background:new 0 0 168.1 168.101;"
	 xml:space="preserve">
<g>
	<path d="M83.591,70.445c-35.207,0-63.194,25.192-64.366,26.265c-0.785,0.711-1.24,1.712-1.24,2.779c0,1.073,0.455,2.111,1.24,2.812
		c0.74,0.668,18.323,16.505,43.089,23.269c2.028,0.481,4.106-0.624,4.657-2.671c0.553-1.992-0.64-4.093-2.657-4.662
		c-16.911-4.575-30.515-14.019-36.583-18.758c6.577-5.111,22.031-15.761,41.009-19.83c-5.042,4.366-8.304,10.62-8.533,17.685
		c-0.288,8.515,3.103,16.864,9.283,22.862c5.363,5.259,12.19,8.061,19.366,8.061c0.539,0,1.075-0.038,1.622-0.038
		c1.89-0.121,7.447-1.068,7.47-1.111c28.313-5.28,49.144-24.045,50.016-24.826c0.78-0.7,1.234-1.74,1.234-2.813
		c0-1.066-0.454-2.068-1.234-2.779C146.788,95.637,118.796,70.445,83.591,70.445z M96.591,119.68c0,0-4.857,0.887-6.533,0.965
		c-5.688,0.338-11.061-1.741-15.28-5.845c-4.592-4.477-7.207-10.911-7.005-17.192c0.301-9.292,8.288-16.658,17.924-16.658
		c0.197,0,0.386,0,0.582,0.045c3.741,0.114,7.166,1.62,9.678,4.29c2.337,2.473,3.59,5.696,3.469,9.061
		c-0.174,5.286-4.824,9.588-10.45,9.292c-2.01-0.044-3.872-0.853-5.229-2.298c-1.259-1.33-1.915-3.031-1.861-4.8
		c0.047-1.263,0.602-2.456,1.566-3.293c0.95-0.887,2.19-1.335,3.514-1.335c0.115,0,0.238,0,0.314,0c2.03,0,3.722-1.631,3.779-3.661
		c0.082-2.102-1.558-3.847-3.646-3.918c-3.19,0.114-6.585,1.071-9.05,3.294c-2.498,2.254-3.932,5.33-4.043,8.656
		c-0.129,3.819,1.258,7.432,3.903,10.244c2.748,2.922,6.495,4.585,10.524,4.706c0.195,0,0.387,0,0.581,0
		c9.477,0,17.344-7.332,17.651-16.613c0.173-5.221-1.654-10.211-5.173-14.129c17.429,4.52,31.447,14.237,37.625,19.021
		C132.652,104.775,116.389,115.993,96.591,119.68z M17.517,86.172c-0.722,0.622-1.604,0.917-2.477,0.917
		c-1.064,0-2.118-0.437-2.869-1.285L0.924,72.781c-1.373-1.585-1.193-3.996,0.386-5.36c1.592-1.331,3.968-1.186,5.346,0.401
		l11.245,13.018C19.27,82.438,19.097,84.802,17.517,86.172z M167.142,72.887l-11.445,12.834c-0.752,0.854-1.792,1.292-2.829,1.292
		c-0.9,0-1.808-0.34-2.53-0.963c-1.541-1.4-1.69-3.809-0.299-5.362l11.444-12.837c1.409-1.584,3.795-1.697,5.359-0.296
		C168.389,68.931,168.532,71.33,167.142,72.887z M85.239,58.466V43.661c0-2.112,1.708-3.816,3.799-3.816
		c2.095,0,3.795,1.705,3.795,3.816v14.805c0,2.065-1.7,3.775-3.795,3.775C86.947,62.241,85.239,60.531,85.239,58.466z
		 M27.114,57.609c-0.995-1.85-0.312-4.148,1.524-5.147c1.845-1.006,4.137-0.342,5.139,1.519l7.067,13.023
		c0.996,1.85,0.314,4.141-1.525,5.144c-0.577,0.295-1.193,0.443-1.805,0.443c-1.338,0-2.643-0.7-3.327-1.962L27.114,57.609z
		 M58.214,61.338L54.583,46.95c-0.521-2.022,0.712-4.102,2.746-4.624c2.005-0.482,4.078,0.752,4.594,2.774l3.638,14.396
		c0.516,2.027-0.71,4.065-2.752,4.577c-0.304,0.079-0.614,0.118-0.925,0.118C60.192,64.192,58.644,63.048,58.214,61.338z
		 M109.029,59.497l3.642-14.396c0.514-2.022,2.597-3.256,4.585-2.774c2.036,0.522,3.265,2.602,2.745,4.624l-3.622,14.388
		c-0.438,1.71-1.984,2.854-3.67,2.854c-0.309,0-0.626-0.039-0.925-0.118C109.743,63.562,108.51,61.524,109.029,59.497z
		 M134.014,72.731c-1.844-0.998-2.527-3.294-1.514-5.144l7.064-13.022c0.994-1.842,3.298-2.542,5.131-1.52
		c1.845,1.004,2.527,3.303,1.527,5.144l-7.074,13.024c-0.686,1.266-1.983,1.968-3.329,1.968
		C135.204,73.186,134.594,73.036,134.014,72.731z"/>
</g>
<g>
</g>
<g>
</g>
<g>
</g>
<g>
</g>
<g>
</g>
<g>
</g>
<g>
</g>
<g>
</g>
<g>
</g>
<g>
</g>
<g>
</g>
<g>
</g>
<g>
</g>
<g>
</g>
<g>
</g>
</svg>
