<?xml version="1.0" encoding="iso-8859-1"?>
<!-- Generator: Adobe Illustrator 16.0.0, SVG Export Plug-In . SVG Version: 6.00 Build 0)  -->
<!DOCTYPE svg PUBLIC "-//W3C//DTD SVG 1.1//EN" "http://www.w3.org/Graphics/SVG/1.1/DTD/svg11.dtd">
<svg version="1.1" id="Capa_1" xmlns="http://www.w3.org/2000/svg" xmlns:xlink="http://www.w3.org/1999/xlink" x="0px" y="0px"
	 width="188.816px" height="188.816px" viewBox="0 0 188.816 188.816" style="enable-background:new 0 0 188.816 188.816;"
	 xml:space="preserve">
<g>
	<path d="M84.395,91.154c0,1.303-1.053,2.35-2.356,2.35c-5.748,0-10.418,4.689-10.418,10.438c0,1.32-1.057,2.355-2.359,2.355
		c-1.303,0-2.356-1.035-2.356-2.355c0-8.343,6.786-15.138,15.141-15.138C83.342,88.803,84.395,89.838,84.395,91.154z
		 M188.812,103.91c0.018,0.256,0.127,5.919-4.025,10.218c-1.942,2.021-5.529,4.445-11.654,4.445c-8.799,0-15.979-4.805-20.168-8.257
		c-9.925,7.312-38.702,26.092-73.682,26.092c-24.332,0-45.991-9.365-59.877-17.232c-2.265-1.267-3.063-4.141-1.778-6.418
		c1.291-2.246,4.189-3.026,6.421-1.771c9.697,5.48,23.434,11.764,39.117,14.522c-6.05-5.328-10.078-12.866-10.078-21.567
		c0-9.055,4.439-16.81,10.96-22.128c-14.94,2.5-28.089,8.203-37.378,13.201c-11.618,6.285-18.864,12.289-18.931,12.344
		c-2.016,1.656-4.969,1.424-6.64-0.609c-1.671-1.973-1.403-4.969,0.584-6.625c0.274-0.244,6.397-5.176,16.218-10.902l-7.489-12.197
		c-1.352-2.208-0.667-5.1,1.559-6.485c2.208-1.334,5.121-0.648,6.479,1.564l7.776,12.678c5.462-2.737,11.749-5.504,18.9-7.843
		l-5.489-13.582c-0.977-2.426,0.195-5.151,2.6-6.141c2.469-0.91,5.17,0.174,6.144,2.6l5.922,14.65
		c6.281-1.559,12.896-2.594,19.841-2.984V57.121c0-2.605,2.119-4.713,4.713-4.713c2.6,0,4.722,2.107,4.722,4.713v14.273
		c7.106,0.292,13.905,1.327,20.351,2.886l4.463-14.858c0.749-2.502,3.404-3.909,5.87-3.145c2.484,0.73,3.896,3.373,3.147,5.857
		l-4.396,14.632c7.215,2.344,13.871,5.109,19.612,7.983l7.764-12.653c1.395-2.207,4.293-2.874,6.479-1.565
		c2.223,1.385,2.904,4.284,1.553,6.485l-7.526,12.264c5.328,3.145,9.341,5.849,12.068,7.858c4.184-3.446,11.369-8.254,20.168-8.254
		c6.113,0,9.718,2.408,11.654,4.442C188.928,97.62,188.83,103.302,188.812,103.91z M101.579,103.935
		c0-10.777-8.766-19.534-19.546-19.534c-10.769,0-19.525,8.756-19.525,19.534c0,10.778,8.756,19.559,19.525,19.559
		C92.819,123.493,101.579,114.725,101.579,103.935z M145.987,103.728c-7.624-5.358-23.65-15.198-43.416-20.194
		c5.212,5.246,8.439,12.449,8.439,20.401c0,7.709-3.136,14.663-8.059,19.851C122.55,118.78,138.424,109.025,145.987,103.728z
		 M179.386,103.844c0-0.244,0-2.594-1.437-4.037c-0.98-0.986-2.601-1.486-4.811-1.486c-5.353,0-10.309,2.972-13.506,5.42
		c3.197,2.447,8.153,5.4,13.506,5.4c2.223,0,3.842-0.492,4.822-1.491C179.386,106.193,179.386,103.868,179.386,103.844z"/>
</g>
<g>
</g>
<g>
</g>
<g>
</g>
<g>
</g>
<g>
</g>
<g>
</g>
<g>
</g>
<g>
</g>
<g>
</g>
<g>
</g>
<g>
</g>
<g>
</g>
<g>
</g>
<g>
</g>
<g>
</g>
</svg>
