<?xml version="1.0" encoding="iso-8859-1"?>
<!-- Generator: Adobe Illustrator 16.0.0, SVG Export Plug-In . SVG Version: 6.00 Build 0)  -->
<!DOCTYPE svg PUBLIC "-//W3C//DTD SVG 1.1//EN" "http://www.w3.org/Graphics/SVG/1.1/DTD/svg11.dtd">
<svg version="1.1" id="Capa_1" xmlns="http://www.w3.org/2000/svg" xmlns:xlink="http://www.w3.org/1999/xlink" x="0px" y="0px"
	 width="188.461px" height="188.461px" viewBox="0 0 188.461 188.461" style="enable-background:new 0 0 188.461 188.461;"
	 xml:space="preserve">
<g>
	<path d="M32.091,91.682c-1.272-1.391-1.155-3.528,0.206-4.784c0.864-0.785,21.208-19.088,48.855-24.273
		c0.033-0.011,5.435-0.952,7.272-1.053c7.5-0.449,14.745,2.298,20.326,7.763c6.008,5.832,9.28,13.907,9.007,22.156
		c-0.403,12.925-11.403,23.156-24.638,23.156c-0.267,0-0.531,0-0.794,0c-5.57-0.158-10.697-2.457-14.446-6.457
		c-3.614-3.841-5.484-8.793-5.323-13.98c0.336-9.114,8.309-16,17.54-15.995c3.883,0.118,7.47,1.707,10.104,4.498
		c2.526,2.689,3.856,6.187,3.754,9.83c-0.252,6.499-5.699,11.266-12.492,11.412c-1.865-0.065-3.338-1.62-3.289-3.484
		c0.074-1.834,1.571-3.301,3.384-3.301c0.091,0,0.162,0,0.287,0c2.857,0,5.218-2.139,5.316-4.848
		c0.076-1.816-0.602-3.59-1.904-4.969c-1.379-1.475-3.283-2.309-5.36-2.364c-5.236-0.101-10.39,4.059-10.576,9.45
		c-0.118,3.365,1.127,6.605,3.49,9.117c2.512,2.681,5.951,4.218,9.694,4.316c0.197,0.022,0.394,0.022,0.593,0.022
		c9.629,0,17.576-7.344,17.865-16.63c0.206-6.249-2.398-12.648-6.938-17.091c-4.215-4.096-9.821-6.069-15.23-5.855
		c-1.634,0.107-6.443,0.979-6.443,0.979c-25.669,4.794-45.308,22.438-45.504,22.614C35.486,93.131,33.317,93.039,32.091,91.682z
		 M182.951,75.895c-3.021-1.748-8.23-2.864-15.968,1.674c-1.619,0.941-2.166,3.01-1.224,4.629c0.939,1.599,3.021,2.145,4.617,1.216
		c3.868-2.241,7.113-2.803,9.203-1.653c1.588,0.909,2.112,2.618,2.112,3.239c0,4.38-1.617,7.355-4.824,8.842
		c-4.227,1.981-9.688,0.768-12.347-1.505c-16.485-13.917-32.874-23.233-48.666-27.683c-1.852-0.517-3.679,0.548-4.183,2.332
		c-0.514,1.797,0.547,3.663,2.331,4.178c14.873,4.196,30.404,13.056,46.153,26.351c3.118,2.665,7.573,4.065,11.948,4.065
		c2.671,0,5.286-0.516,7.597-1.587c5.658-2.627,8.76-7.94,8.76-14.987C188.466,82.048,186.766,78.097,182.951,75.895z
		 M147.196,95.402c-0.142,0.198-16.222,21.057-44.596,24.312c-23.302,2.726-48.31-6.905-74.299-28.508
		c-4.924-4.072-13.569-5.022-19.688-2.189C3.064,91.637,0,96.847,0,103.748c0,2.948,1.726,6.9,5.52,9.105
		c3.009,1.733,8.196,2.845,15.975-1.681c1.619-0.941,2.167-3.01,1.214-4.618c-0.953-1.62-3.032-2.188-4.616-1.227
		c-3.861,2.239-7.083,2.835-9.196,1.653c-1.587-0.908-2.112-2.615-2.112-3.233c0-4.242,1.58-7.125,4.706-8.595
		c4.097-1.938,9.892-0.878,12.485,1.251c24.396,20.284,48.205,30.533,70.886,30.533c2.9,0,5.768-0.164,8.635-0.515
		c31.269-3.655,48.418-26.008,49.128-26.965c1.115-1.489,0.816-3.596-0.678-4.721C150.436,93.597,148.357,93.887,147.196,95.402z"/>
</g>
<g>
</g>
<g>
</g>
<g>
</g>
<g>
</g>
<g>
</g>
<g>
</g>
<g>
</g>
<g>
</g>
<g>
</g>
<g>
</g>
<g>
</g>
<g>
</g>
<g>
</g>
<g>
</g>
<g>
</g>
</svg>
