<?xml version="1.0" encoding="iso-8859-1"?>
<!-- Generator: Adobe Illustrator 16.0.0, SVG Export Plug-In . SVG Version: 6.00 Build 0)  -->
<!DOCTYPE svg PUBLIC "-//W3C//DTD SVG 1.1//EN" "http://www.w3.org/Graphics/SVG/1.1/DTD/svg11.dtd">
<svg version="1.1" id="Capa_1" xmlns="http://www.w3.org/2000/svg" xmlns:xlink="http://www.w3.org/1999/xlink" x="0px" y="0px"
	 width="187.042px" height="187.042px" viewBox="0 0 187.042 187.042" style="enable-background:new 0 0 187.042 187.042;"
	 xml:space="preserve">
<g>
	<path d="M79.177,99.507c-0.265-0.791-0.396-1.541-0.396-2.375c0-2.85,1.635-5.315,4.086-6.582c1.142-0.627,2.457-0.969,3.815-0.969
		c2.463,0,4.604,1.097,6.104,2.759c1.449-1.675,3.599-2.759,6.064-2.759c1.352,0,2.68,0.354,3.806,0.969
		c2.467,1.267,4.086,3.732,4.086,6.582c0,0.834-0.134,1.584-0.39,2.375c-1.37,5.84-13.566,13.171-13.566,13.171
		S80.535,105.347,79.177,99.507z M179.155,95.025c-1.967,1.626-4.073,2.637-6.181,3.386c1.358,1.096,2.32,1.888,2.467,2.016
		c0.956,0.834,1.528,2.058,1.528,3.385c0,1.268-0.572,2.491-1.528,3.374c-1.632,1.364-39.434,33.94-86.956,33.94
		c-47.52,0-85.331-32.589-86.944-33.94C0.566,106.309,0,105.079,0,103.812c0-1.327,0.566-2.551,1.534-3.385
		c1.185-1.06,29.38-25.307,67.583-32.19c0.043,0,0.707-0.101,1.672-0.268c2.557-0.478,20.824-4.701,20.824-17.528
		c0-2.493,2.025-4.524,4.527-4.524c2.454,0,4.476,2.013,4.476,4.524c0,9.572-5.662,15.765-11.901,19.817
		c1.228,0.648,2.595,1.142,3.742,2.006c5.846-4.518,13.743-5.916,21.074-3.995c0.263-0.052,0.433-0.219,0.652-0.219
		c0.091,0,3.909,0.356,7.806-1.178c4.701-1.896,7.295-5.712,7.874-11.73c0.213-2.46,2.21-3.952,4.92-4.04
		c2.466,0.219,4.262,2.426,4.037,4.92c-0.707,6.859-3.337,12.215-7.91,15.95c-1.894,1.535-3.909,2.5-5.931,3.249
		c3.769,4.223,6.059,9.526,6.059,15.28c0,2.411-0.384,4.829-1.175,7.197c-3.118,13.743-25.91,29.24-33.119,33.868
		c31.804-2.765,58.456-20.253,68.46-27.755c-5.225-3.957-14.937-10.631-27.443-16.477c-2.277-1.054-3.252-3.733-2.198-5.974
		c0.877-1.931,3.026-2.631,4.963-2.231c0.353-0.049,0.657-0.305,1.011-0.305c0.085,0,3.951,0.356,7.77-1.185
		c4.7-1.896,7.295-5.705,7.861-11.722c0.219-2.472,2.063-4.043,4.92-4.043c2.466,0.262,4.269,2.463,4.037,4.92
		c-0.707,6.89-3.337,12.251-7.867,15.944c-1.486,1.228-3.069,2.107-4.658,2.804c3.477,1.979,6.411,3.824,9.14,5.626
		c0.755,0.085,4.037,0.158,7.514-1.182c4.701-1.894,7.234-5.714,7.818-11.733c0.256-2.46,2.059-4.077,4.92-4.028
		c2.461,0.22,4.293,2.415,4.025,4.908C186.376,85.983,183.734,91.329,179.155,95.025z M88.485,132.126
		c0.131,0,0.307-0.036,0.475-0.036c-5.748-3.604-30.653-19.936-34.026-34.83c-0.582-2.423,0.953-4.822,3.374-5.395
		c2.542-0.481,4.826,1.011,5.398,3.373c1.945,8.573,17.753,21.3,28.723,28.418c10.973-7.118,26.822-19.845,28.759-28.418
		c0.621-1.888,0.828-3.288,0.828-4.737c0-5.191-2.898-9.98-7.599-12.474c-6.321-3.386-14.097-1.802-18.608,3.374
		c-0.841,1.008-2.119,1.583-3.38,1.583h-0.052c-1.315,0-2.542-0.618-3.386-1.583c-2.798-3.337-6.978-5.228-11.365-5.228
		c-0.131,0-0.17-0.085-0.262-0.085c-1.635,0.216-3.425,0.472-4.789,0.691c-0.268,0.052-0.707,0.131-0.792,0.173
		c-0.131,0-0.268,0-0.438,0.045c-0.304,0.049-0.697,0.101-0.697,0.101c-27.41,4.905-49.846,19.881-58.885,26.689
		C22.697,111.978,53.167,132.126,88.485,132.126z"/>
</g>
<g>
</g>
<g>
</g>
<g>
</g>
<g>
</g>
<g>
</g>
<g>
</g>
<g>
</g>
<g>
</g>
<g>
</g>
<g>
</g>
<g>
</g>
<g>
</g>
<g>
</g>
<g>
</g>
<g>
</g>
</svg>
