<?xml version="1.0" encoding="iso-8859-1"?>
<!-- Generator: Adobe Illustrator 16.0.0, SVG Export Plug-In . SVG Version: 6.00 Build 0)  -->
<!DOCTYPE svg PUBLIC "-//W3C//DTD SVG 1.1//EN" "http://www.w3.org/Graphics/SVG/1.1/DTD/svg11.dtd">
<svg version="1.1" id="Capa_1" xmlns="http://www.w3.org/2000/svg" xmlns:xlink="http://www.w3.org/1999/xlink" x="0px" y="0px"
	 width="217.457px" height="217.457px" viewBox="0 0 217.457 217.457" style="enable-background:new 0 0 217.457 217.457;"
	 xml:space="preserve">
<g>
	<path d="M135.66,94.596c-2.582-0.572-5.322,0.874-6.028,3.456c-0.694,2.637,0.84,5.319,3.446,6.034
		c21.872,5.979,39.482,18.188,47.312,24.271c-8.47,6.606-28.442,20.423-53.061,25.696c6.54-5.645,10.753-13.786,11.052-22.883
		c0.371-11.04-4.019-21.821-12.014-29.615c-7.466-7.282-16.752-10.68-27.14-10.339c-2.451,0.137-9.646,1.391-9.697,1.391
		C52.936,99.455,26,123.718,24.865,124.776c-1.02,0.902-1.602,2.205-1.602,3.594c0,1.375,0.582,2.679,1.602,3.629
		c1.51,1.388,37.719,33.922,83.266,33.922c45.541,0,81.741-32.54,83.257-33.922c1.029-0.95,1.607-2.241,1.607-3.629
		c0-1.407-0.578-2.698-1.607-3.594C190.438,123.852,167.707,103.364,135.66,94.596z M105.452,152.324c-0.268,0-0.5,0-0.767,0
		c-4.826-0.146-9.292-2.106-12.522-5.554c-3.029-3.251-4.637-7.416-4.5-11.733c0.237-6.887,6.729-12.392,13.524-12.068
		c2.606,0.097,5.033,1.157,6.771,2.989c1.629,1.711,2.47,3.971,2.394,6.26c-0.122,3.361-3.036,5.992-6.559,5.992
		c-0.125,0-0.311,0-0.398,0c-2.631,0-4.808,2.058-4.908,4.737c-0.1,2.679,2.034,4.98,4.747,5.06
		c9.137,0.195,16.626-6.643,16.937-15.496c0.141-4.933-1.65-9.621-5.066-13.263c-3.553-3.775-8.399-5.934-13.618-6.083
		c-0.237,0-0.478,0-0.74,0c-12.254,0-22.454,9.523-22.88,21.531c-0.21,6.746,2.189,13.213,6.698,18.298
		c-22.508-5.882-40.66-18.426-48.661-24.649c8.768-6.795,29.749-21.309,55.433-26.092c0,0,6.305-1.16,8.467-1.291
		c7.246-0.334,14.285,2.247,19.741,7.615c5.943,5.8,9.341,14.118,9.049,22.252C128.2,142.85,117.892,152.324,105.452,152.324z
		 M22.657,111.451c-0.922,0.773-2.049,1.196-3.203,1.196c-1.374,0-2.731-0.572-3.718-1.72L1.19,94.084
		c-1.769-2.055-1.535-5.118,0.5-6.89c2-1.714,5.093-1.625,6.908,0.481l14.553,16.843C24.941,106.567,24.691,109.673,22.657,111.451z
		 M216.22,94.268l-14.791,16.608c-0.98,1.099-2.32,1.635-3.659,1.635c-1.176,0-2.326-0.386-3.258-1.245
		c-2.021-1.772-2.204-4.883-0.402-6.893l14.797-16.608c1.839-2.109,4.896-2.201,6.905-0.426
		C217.845,89.14,218.01,92.258,216.22,94.268z M110.277,75.562V56.417c0-2.679,2.201-4.88,4.904-4.88c2.71,0,4.902,2.208,4.902,4.88
		v19.145c0,2.73-2.211,4.917-4.902,4.917C112.479,80.479,110.277,78.286,110.277,75.562z M35.079,74.45
		c-1.291-2.393-0.399-5.355,1.958-6.646c2.344-1.34,5.355-0.387,6.646,1.958l9.149,16.849c1.291,2.393,0.399,5.349-1.964,6.64
		c-0.736,0.43-1.553,0.631-2.338,0.631c-1.748,0-3.425-0.956-4.305-2.582L35.079,74.45z M75.322,79.288L70.6,60.67
		c-0.648-2.582,0.932-5.261,3.562-5.931c2.749-0.667,5.267,0.911,5.961,3.538l4.713,18.611c0.648,2.631-0.929,5.325-3.56,5.992
		c-0.398,0.094-0.819,0.131-1.193,0.131C77.877,83.018,75.889,81.541,75.322,79.288z M141.036,76.901l4.714-18.618
		c0.688-2.582,3.27-4.159,5.955-3.538c2.63,0.669,4.214,3.349,3.562,5.931l-4.713,18.62c-0.584,2.244-2.563,3.733-4.773,3.733
		c-0.39,0-0.779-0.049-1.188-0.131C141.956,82.214,140.379,79.52,141.036,76.901z M173.357,94.036
		c-2.368-1.291-3.257-4.271-1.967-6.652l9.152-16.843c1.291-2.351,4.287-3.255,6.644-1.964c2.375,1.303,3.251,4.271,1.961,6.652
		l-9.146,16.849c-0.889,1.626-2.558,2.582-4.299,2.582C174.91,94.654,174.095,94.459,173.357,94.036z"/>
</g>
<g>
</g>
<g>
</g>
<g>
</g>
<g>
</g>
<g>
</g>
<g>
</g>
<g>
</g>
<g>
</g>
<g>
</g>
<g>
</g>
<g>
</g>
<g>
</g>
<g>
</g>
<g>
</g>
<g>
</g>
</svg>
