<?xml version="1.0" encoding="iso-8859-1"?>
<!-- Generator: Adobe Illustrator 16.0.0, SVG Export Plug-In . SVG Version: 6.00 Build 0)  -->
<!DOCTYPE svg PUBLIC "-//W3C//DTD SVG 1.1//EN" "http://www.w3.org/Graphics/SVG/1.1/DTD/svg11.dtd">
<svg version="1.1" id="Capa_1" xmlns="http://www.w3.org/2000/svg" xmlns:xlink="http://www.w3.org/1999/xlink" x="0px" y="0px"
	 width="161.668px" height="161.668px" viewBox="0 0 161.668 161.668" style="enable-background:new 0 0 161.668 161.668;"
	 xml:space="preserve">
<g>
	<path d="M156.542,10.394L62.307,93.404c-1.878-0.783-3.943-0.865-5.557,0.557L1.835,142.336c-2.24,1.985-2.458,5.416-0.493,7.659
		c1.979,2.232,5.407,2.456,7.65,0.471l54.918-48.378c1.608-1.423,1.781-3.486,1.256-5.449l2.454-2.179
		c0.07,0.196,0.049,0.416,0.194,0.587c0.801,0.901,2.136,0.995,3.045,0.185l6.873-6.04l8.665,9.833l-1.523,1.346
		c-5.447,4.787-5.956,13.105-1.16,18.556c4.785,5.429,13.097,5.947,18.541,1.159l2.432-2.145l7.714,3.797l-1.494,1.308
		c-0.9,0.806-0.99,2.151-0.191,3.049c0.799,0.914,2.147,0.998,3.054,0.186l7.979-7.021c0.897-0.799,0.995-2.155,0.188-3.051
		c-0.793-0.9-2.152-0.985-3.05-0.199l-2.96,2.617l-7.716-3.794l5.419-4.755c5.832,3.097,13.21,2.55,18.449-2.068
		c5.309-4.673,6.698-12,4.258-18.223c4.095-4.316,3.712-10.18-1.406-15.991c-5.111-5.812-10.878-6.928-15.683-3.415
		c-5.883-3.204-13.325-2.755-18.621,1.918c-5.253,4.615-6.714,11.885-4.37,18.068l-6.597,5.801L81,86.329l6.869-6.047
		c0.893-0.796,0.978-2.139,0.182-3.042c-0.133-0.156-0.365-0.167-0.545-0.269l25.548-22.508l4.837,5.496
		c0.809,0.908,2.148,0.993,3.054,0.197c0.892-0.807,0.982-2.134,0.179-3.053l-4.838-5.491l16.082-14.172l4.556,5.154
		c0.791,0.908,2.134,0.998,3.04,0.191c0.91-0.802,1.003-2.145,0.196-3.048l-4.552-5.155l17.438-15.354l4.851,5.491
		c0.786,0.908,2.134,0.994,3.04,0.197c0.897-0.802,0.985-2.134,0.182-3.053l-4.842-5.491l3.139-2.758
		c0.9-0.796,0.998-2.139,0.2-3.031C158.797,9.68,157.452,9.592,156.542,10.394z M131.66,76.668c2.255,2.55,4.028,5.97,2.301,9.042
		c-0.199-0.244-0.231-0.558-0.439-0.794l-9.812-11.137c-0.217-0.247-0.509-0.321-0.726-0.562
		C126.238,71.913,129.434,74.132,131.66,76.668z M103.458,75.554c4.996-4.399,12.621-3.901,17.007,1.081l9.817,11.144
		c4.394,4.98,3.912,12.597-1.067,16.991c-5.002,4.398-12.618,3.917-17.016-1.057l-9.806-11.141
		C97.981,87.587,98.457,79.962,103.458,75.554z M110.085,107.424l-6.074,5.346l-3.588-1.752c0.271-1.936-0.093-3.929-1.507-5.521
		c-2.555-2.905-6.977-3.162-9.871-0.624c-2.908,2.556-3.188,6.982-0.632,9.894c2.547,2.906,6.981,3.169,9.901,0.606
		c0.115-0.104,0.093-0.317,0.191-0.421l1.97,0.931l-1.094,0.975c-3.628,3.194-9.221,2.851-12.443-0.794
		c-3.203-3.65-2.851-9.241,0.791-12.448l10.7-9.429c0.29,0.389,0.378,0.865,0.7,1.236l9.818,11.141
		C109.275,106.941,109.742,107.095,110.085,107.424z"/>
</g>
<g>
</g>
<g>
</g>
<g>
</g>
<g>
</g>
<g>
</g>
<g>
</g>
<g>
</g>
<g>
</g>
<g>
</g>
<g>
</g>
<g>
</g>
<g>
</g>
<g>
</g>
<g>
</g>
<g>
</g>
</svg>
