<?xml version="1.0" encoding="iso-8859-1"?>
<!-- Generator: Adobe Illustrator 18.1.1, SVG Export Plug-In . SVG Version: 6.00 Build 0)  -->
<svg version="1.1" id="Capa_1" xmlns="http://www.w3.org/2000/svg" xmlns:xlink="http://www.w3.org/1999/xlink" x="0px" y="0px"
	 viewBox="0 0 44.881 44.881" style="enable-background:new 0 0 44.881 44.881;" xml:space="preserve">
<g>
	<path style="fill:#010002;" d="M22.441,26.931c4.835,0,8.769-3.935,8.769-8.771c0-3.886-5.469-13.334-7.819-17.215
		c-0.457-0.758-1.44-0.757-1.899,0c-2.351,3.884-7.819,13.336-7.819,17.215C13.672,22.996,17.605,26.931,22.441,26.931z
		 M22.441,25.678c-1.701,0-3.085-1.384-3.085-3.085c0-0.968,1.121-3.439,2.998-6.61c0.043-0.073,0.078-0.1,0.081-0.109
		c0.015,0.009,0.05,0.036,0.093,0.109c1.877,3.169,2.997,5.64,2.997,6.609C25.525,24.294,24.141,25.678,22.441,25.678z
		 M22.347,1.463c0.049-0.082,0.093-0.111,0.085-0.115c0.012,0.004,0.055,0.033,0.104,0.114c3.71,6.126,7.675,13.729,7.675,16.698
		c0,3.214-1.962,5.979-4.75,7.159c0.655-0.725,1.065-1.675,1.065-2.727c0-1.506-1.705-4.703-3.136-7.119
		c-0.453-0.766-1.443-0.765-1.896,0c-1.431,2.417-3.137,5.615-3.137,7.119c0,1.052,0.41,2.002,1.066,2.727
		c-2.789-1.181-4.75-3.945-4.75-7.159C14.672,14.431,20.546,4.437,22.347,1.463z M44.75,26.829c-0.188-0.324-0.548-0.516-0.99-0.525
		c-0.698-0.015-1.721-0.03-2.937-0.03c-5.771,0-13.21,0.324-15.881,1.868c-0.865,0.499-1.634,1.141-2.283,1.906
		c-0.15,0.176-0.287,0.176-0.438,0c-0.649-0.766-1.418-1.407-2.283-1.906c-2.671-1.544-10.11-1.868-15.881-1.868
		c-1.217,0-2.238,0.016-2.936,0.03c-0.442,0.01-0.803,0.201-0.99,0.525c-0.188,0.324-0.173,0.732,0.04,1.12
		c2.186,3.977,7.633,13.437,10.998,15.38c1.33,0.769,2.841,1.175,4.368,1.175c2.58,0,5.017-1.125,6.684-3.085
		c0.15-0.178,0.289-0.178,0.439,0c1.667,1.96,4.104,3.085,6.684,3.085c1.527,0,3.038-0.406,4.368-1.175
		c3.365-1.943,8.812-11.403,10.998-15.38C44.923,27.561,44.938,27.153,44.75,26.829z M43.832,27.467
		c-3.449,6.276-8.051,13.512-10.621,14.997c-1.179,0.68-2.517,1.04-3.868,1.04c-2.287,0-4.445-0.996-5.922-2.733
		c-0.271-0.317-0.618-0.491-0.981-0.491s-0.711,0.174-0.981,0.491c-1.477,1.737-3.635,2.733-5.922,2.733
		c-1.352,0-2.689-0.36-3.868-1.04c-2.57-1.485-7.172-8.721-10.621-14.997c-0.051-0.093-0.056-0.132-0.057-0.131
		c0.009-0.008,0.056-0.03,0.151-0.032c0.693-0.015,1.707-0.03,2.915-0.03c7.984,0,13.446,0.616,15.381,1.733
		c0.766,0.442,1.445,1.01,2.021,1.688c0.539,0.635,1.422,0.635,1.961,0c0.576-0.678,1.256-1.245,2.021-1.688
		c1.935-1.117,7.396-1.733,15.381-1.733c1.207,0,2.223,0.016,2.915,0.03c0.095,0.002,0.149,0.025,0.142,0.017
		C43.882,27.333,43.878,27.384,43.832,27.467z"/>
</g>
<g>
</g>
<g>
</g>
<g>
</g>
<g>
</g>
<g>
</g>
<g>
</g>
<g>
</g>
<g>
</g>
<g>
</g>
<g>
</g>
<g>
</g>
<g>
</g>
<g>
</g>
<g>
</g>
<g>
</g>
</svg>
