<?xml version="1.0" encoding="iso-8859-1"?>
<!-- Generator: Adobe Illustrator 18.1.1, SVG Export Plug-In . SVG Version: 6.00 Build 0)  -->
<svg version="1.1" id="Capa_1" xmlns="http://www.w3.org/2000/svg" xmlns:xlink="http://www.w3.org/1999/xlink" x="0px" y="0px"
	 viewBox="0 0 44.882 44.882" style="enable-background:new 0 0 44.882 44.882;" xml:space="preserve">
<g>
	<path style="fill:#010002;" d="M22.442,29.999c4.835,0,8.769-3.935,8.769-8.771c0-3.885-5.469-13.334-7.819-17.214
		c-0.457-0.758-1.44-0.757-1.899,0c-2.351,3.884-7.819,13.336-7.819,17.215C13.672,26.065,17.606,29.999,22.442,29.999z
		 M22.442,28.61c-1.701,0-3.085-1.384-3.085-3.085c0-0.969,1.121-3.439,2.998-6.61c0.043-0.073,0.078-0.1,0.081-0.109
		c0.015,0.009,0.05,0.036,0.093,0.109c1.877,3.169,2.997,5.64,2.997,6.609C25.526,27.226,24.142,28.61,22.442,28.61z M22.347,4.531
		c0.049-0.082,0.093-0.111,0.085-0.115c0.012,0.004,0.055,0.033,0.104,0.114c3.71,6.126,7.675,13.729,7.675,16.697
		c0,3.285-2.051,6.094-4.937,7.229c0.77-0.743,1.252-1.78,1.252-2.932c0-1.506-1.705-4.703-3.136-7.119
		c-0.453-0.766-1.443-0.765-1.896,0c-1.431,2.418-3.137,5.614-3.137,7.119c0,1.151,0.482,2.188,1.252,2.932
		c-2.886-1.136-4.937-3.944-4.937-7.229C14.672,17.499,20.546,7.505,22.347,4.531z M44.711,24.882
		c-2.186,3.977-7.633,13.437-10.998,15.38c-3.662,2.113-8.312,1.312-11.052-1.91c-0.15-0.178-0.289-0.178-0.439,0
		c-1.714,2.016-4.176,3.085-6.675,3.085c-1.496,0-3.005-0.383-4.377-1.175c-3.365-1.943-8.811-11.403-10.999-15.38
		c-0.213-0.388-0.228-0.796-0.04-1.12c0.187-0.324,0.548-0.515,0.99-0.525c1.907-0.04,6.823-0.095,11.253,0.263l-0.08,0.996
		c-4.384-0.354-9.259-0.299-11.151-0.259c-0.095,0.002-0.142,0.024-0.151,0.032c0.001-0.001,0.006,0.038,0.057,0.131
		C4.498,30.676,9.1,37.912,11.67,39.397c3.244,1.874,7.362,1.162,9.79-1.693c0.541-0.635,1.422-0.635,1.963,0
		c2.428,2.855,6.546,3.566,9.79,1.693c2.57-1.485,7.172-8.721,10.621-14.997c0.046-0.083,0.05-0.134,0.047-0.146
		c0.007,0.008-0.047-0.015-0.142-0.017c-1.893-0.04-6.769-0.094-11.152,0.26l-0.08-0.996c4.429-0.359,9.346-0.305,11.254-0.264
		c0.442,0.009,0.802,0.201,0.99,0.525C44.939,24.086,44.924,24.494,44.711,24.882z"/>
</g>
<g>
</g>
<g>
</g>
<g>
</g>
<g>
</g>
<g>
</g>
<g>
</g>
<g>
</g>
<g>
</g>
<g>
</g>
<g>
</g>
<g>
</g>
<g>
</g>
<g>
</g>
<g>
</g>
<g>
</g>
</svg>
