<?xml version="1.0" encoding="iso-8859-1"?>
<!-- Generator: Adobe Illustrator 16.0.0, SVG Export Plug-In . SVG Version: 6.00 Build 0)  -->
<!DOCTYPE svg PUBLIC "-//W3C//DTD SVG 1.1//EN" "http://www.w3.org/Graphics/SVG/1.1/DTD/svg11.dtd">
<svg version="1.1" id="Capa_1" xmlns="http://www.w3.org/2000/svg" xmlns:xlink="http://www.w3.org/1999/xlink" x="0px" y="0px"
	 width="168.1px" height="168.1px" viewBox="0 0 168.1 168.1" style="enable-background:new 0 0 168.1 168.1;" xml:space="preserve"
	>
<g>
	<path d="M84.05,0C37.706,0,0,37.705,0,84.051C0,130.398,37.706,168.1,84.05,168.1c46.35,0,84.05-37.701,84.05-84.049
		C168.1,37.705,130.399,0,84.05,0z M127.542,149.659c-5.832-12.082-29.187-60.367-29.998-62.074l-0.384,0.181
		c-1.646-2.074-4.081-3.491-6.938-3.491c-4.982,0-9.017,4.043-9.017,9.015c0,2.569,1.086,4.856,2.817,6.499
		c2.123,6.095,7.743,17.92,19.291,42.199c0.897,1.915,2.788,3.012,4.769,3.012c0.769,0,1.535-0.154,2.269-0.509
		c0.896-0.429,1.541-1.124,2.055-1.909c2.651,5.476,4.756,9.837,5.934,12.261c-10.388,5.044-21.987,7.972-34.272,7.972
		c-30.903,0-57.467-18.024-70.356-43.989l35.61-33.953l0.901,0.896c1.851,1.845,4.277,2.741,6.898,2.741
		c3.754,0,7.945-1.837,11.473-5.361L86.448,65.3c2.061-2.06,2.061-5.407,0-7.469c-2.059-2.061-5.406-2.061-7.468,0L61.128,75.684
		c-1.877,1.877-3.655,2.298-3.437,2.618l-0.919-0.892l19.339-19.335c2.062-2.063,2.062-5.409,0-7.469
		c-2.063-2.063-5.402-2.063-7.465,0L49.191,70.069l-0.396-0.392c-0.07-0.432,0.348-2.207,2.229-4.084l17.857-17.848
		c2.064-2.057,2.064-5.406,0-7.469c-2.062-2.063-5.405-2.063-7.468,0L43.561,58.124c-5.979,5.979-7.116,13.886-2.626,18.373
		L41.84,77.4L9.634,109.616C6.859,101.571,5.29,92.991,5.29,84.034c0-43.432,35.334-78.772,78.765-78.772
		c43.437,0,78.771,35.341,78.771,78.772C162.826,111.415,148.783,135.53,127.542,149.659z"/>
</g>
<g>
</g>
<g>
</g>
<g>
</g>
<g>
</g>
<g>
</g>
<g>
</g>
<g>
</g>
<g>
</g>
<g>
</g>
<g>
</g>
<g>
</g>
<g>
</g>
<g>
</g>
<g>
</g>
<g>
</g>
</svg>
