<?xml version="1.0" encoding="iso-8859-1"?>
<!-- Generator: Adobe Illustrator 16.0.0, SVG Export Plug-In . SVG Version: 6.00 Build 0)  -->
<!DOCTYPE svg PUBLIC "-//W3C//DTD SVG 1.1//EN" "http://www.w3.org/Graphics/SVG/1.1/DTD/svg11.dtd">
<svg version="1.1" id="Capa_1" xmlns="http://www.w3.org/2000/svg" xmlns:xlink="http://www.w3.org/1999/xlink" x="0px" y="0px"
	 width="174.265px" height="174.266px" viewBox="0 0 174.265 174.266" style="enable-background:new 0 0 174.265 174.266;"
	 xml:space="preserve">
<g>
	<path d="M174.265,90.733c0-20.38-16.562-36.955-36.931-36.955c-10.766,0-20.387,4.704-27.133,12.06
		c-0.39-0.179-0.694-0.459-1.169-0.459H92.384c3.557-2.508,6.162-5.24,6.918-8.476c1.668-7.158-4.221-13.643-7.697-17.534
		c-0.548-0.597-1.071-1.172-1.449-1.656c-3.19-3.781-4.375-7.24-3.504-10.196c1.452-5.063,8.704-8.378,11.384-9.209
		c1.4-0.46,2.18-1.946,1.735-3.35c-0.457-1.4-1.955-2.155-3.344-1.738c-0.486,0.155-12.306,3.973-14.888,12.803
		c-1.409,4.768,0.131,9.852,4.509,15.107c0.46,0.524,1.015,1.154,1.623,1.796c2.983,3.31,7.478,8.33,6.479,12.781
		c-0.755,3.267-4.603,6.412-11.176,9.048c-0.311,0.131-0.405,0.417-0.648,0.63h-18.63c-6.753-7.115-16.225-11.594-26.768-11.594
		C16.562,53.791,0,70.365,0,90.722c0,8.251,2.801,15.765,7.395,21.921c2.914,16.775,21.175,48.519,37.299,48.519
		c15.877,0,21.482-28.766,22.055-45.084h40.761c0.56,16.318,6.174,45.084,22.055,45.084c16.124,0,34.379-31.719,37.29-48.458
		C171.446,106.522,174.265,98.973,174.265,90.733z M137.334,59.079c17.434,0,31.64,14.206,31.64,31.654
		c0,17.434-14.206,31.634-31.64,31.634c-17.464,0-31.657-14.2-31.657-31.634C105.677,73.276,119.871,59.079,137.334,59.079z
		 M106.402,70.658c-3.794,5.794-6.028,12.666-6.028,20.076c0,7.404,2.217,14.23,5.991,20.021H67.903
		c3.767-5.791,5.992-12.659,5.992-20.052c0-7.38-2.22-14.251-5.992-20.045H106.402z M36.918,59.079
		c17.479,0,31.694,14.206,31.694,31.624c0,17.439-14.215,31.64-31.694,31.64c-17.434,0-31.636-14.2-31.636-31.64
		C5.282,73.276,19.485,59.079,36.918,59.079z M44.682,155.845c-10.145,0-23.769-19.808-29.572-35.493
		c6.104,4.512,13.609,7.288,21.809,7.288c9.417,0,17.884-3.635,24.411-9.413C60.34,133.778,54.802,155.845,44.682,155.845z
		 M129.571,155.845c-10.12,0-15.655-22.066-16.666-37.618c6.546,5.803,15.016,9.438,24.43,9.438c8.166,0,15.68-2.759,21.812-7.289
		C153.3,136.073,139.715,155.845,129.571,155.845z M130.491,74.138c0-3.778,3.057-6.841,6.844-6.841
		c3.788,0,6.838,3.057,6.838,6.841c0,3.791-3.05,6.854-6.838,6.854C133.547,80.991,130.491,77.928,130.491,74.138z M130.491,107.327
		c0-3.781,3.057-6.845,6.844-6.845c3.788,0,6.838,3.051,6.838,6.845c0,3.793-3.05,6.85-6.838,6.85
		C133.547,114.177,130.491,111.132,130.491,107.327z M147.089,90.733c0-3.775,3.045-6.85,6.845-6.85c3.774,0,6.838,3.054,6.838,6.85
		c0,3.8-3.057,6.845-6.838,6.845C150.134,97.578,147.089,94.533,147.089,90.733z M113.891,90.733c0-3.775,3.057-6.85,6.851-6.85
		c3.781,0,6.832,3.054,6.832,6.85c0,3.8-3.051,6.845-6.832,6.845C116.948,97.578,113.891,94.533,113.891,90.733z M29.943,78.346
		c-1.035-1.042-1.075-2.731-0.019-3.767l5.148-5.236c0.5-0.487,1.178-0.779,1.903-0.779h0.012c0.709,0,1.428,0.292,1.903,0.804
		l5.112,5.337c0.999,1.068,0.987,2.752-0.088,3.766c-0.523,0.487-1.19,0.718-1.839,0.718c-0.697,0-1.403-0.256-1.921-0.804
		l-3.228-3.361l-3.236,3.279C32.68,79.356,30.979,79.381,29.943,78.346z M29.885,106.712c-1.017-1.06-0.977-2.74,0.095-3.764
		c1.053-1.011,2.755-0.98,3.748,0.08l3.224,3.367l3.249-3.276c1.035-1.035,2.73-1.071,3.766-0.024
		c1.042,1.035,1.054,2.716,0.019,3.751l-5.146,5.243c-0.499,0.492-1.208,0.779-1.899,0.779h-0.046c-0.679,0-1.388-0.287-1.875-0.805
		L29.885,106.712z M49.279,93.925l3.358-3.222l-3.261-3.261c-1.035-1.035-1.035-2.691,0-3.727c1.035-1.047,2.7-1.047,3.742,0
		l5.176,5.179c0.518,0.481,0.816,1.188,0.779,1.888c0,0.737-0.274,1.413-0.792,1.912l-5.325,5.066
		c-0.523,0.493-1.19,0.725-1.851,0.725c-0.694,0-1.403-0.256-1.921-0.804C48.18,96.622,48.199,94.936,49.279,93.925z M15.6,92.603
		c-0.511-0.518-0.804-1.175-0.779-1.924c0-0.7,0.289-1.406,0.807-1.888l5.325-5.139c1.072-1.008,2.737-0.983,3.766,0.088
		c0.996,1.06,0.971,2.731-0.088,3.767l-3.373,3.239l3.261,3.233c1.035,1.035,1.065,2.716,0.03,3.751
		c-0.518,0.523-1.221,0.779-1.9,0.779c-0.67,0-1.349-0.231-1.873-0.749L15.6,92.603z"/>
</g>
<g>
</g>
<g>
</g>
<g>
</g>
<g>
</g>
<g>
</g>
<g>
</g>
<g>
</g>
<g>
</g>
<g>
</g>
<g>
</g>
<g>
</g>
<g>
</g>
<g>
</g>
<g>
</g>
<g>
</g>
</svg>
