<?xml version="1.0" encoding="iso-8859-1"?>
<!-- Generator: Adobe Illustrator 16.0.0, SVG Export Plug-In . SVG Version: 6.00 Build 0)  -->
<!DOCTYPE svg PUBLIC "-//W3C//DTD SVG 1.1//EN" "http://www.w3.org/Graphics/SVG/1.1/DTD/svg11.dtd">
<svg version="1.1" id="Capa_1" xmlns="http://www.w3.org/2000/svg" xmlns:xlink="http://www.w3.org/1999/xlink" x="0px" y="0px"
	 width="187.059px" height="187.059px" viewBox="0 0 187.059 187.059" style="enable-background:new 0 0 187.059 187.059;"
	 xml:space="preserve">
<g>
	<path d="M159.731,19.437c-7.6-4.165-16.259-6.58-25.538-6.58c-16.331,0-30.994,7.444-40.663,19.135
		C83.808,20.301,69.2,12.857,52.833,12.857c-9.234,0-17.938,2.415-25.504,6.58C11.037,28.427,0,45.779,0,65.727
		c0,5.7,0.91,11.18,2.594,16.292c9.061,40.772,90.936,92.184,90.936,92.184s81.838-51.404,90.898-92.174
		c1.681-5.115,2.631-10.595,2.631-16.294C187.059,45.779,176.025,28.427,159.731,19.437z M109.093,120.386H77.929l4.969-31.713
		c-3.873-3.105-6.503-7.709-6.503-13.082c0-9.496,7.669-17.172,17.135-17.172c9.462,0,17.135,7.669,17.135,17.172
		c0,5.812-3.105,10.668-7.526,13.771L109.093,120.386z M170.216,77.305c-0.512,1.61-1.973,2.594-3.544,2.594
		c-0.365,0-0.768-0.036-1.133-0.18c-1.973-0.624-3.068-2.737-2.411-4.676c0.986-3.105,1.498-6.248,1.498-9.316
		c0-11.067-6.028-21.263-15.723-26.6c-4.591-2.555-9.523-3.833-14.711-3.833c-2.083,0-3.739-1.647-3.739-3.729
		s1.656-3.736,3.739-3.736c6.467,0,12.629,1.571,18.328,4.713c12.068,6.649,19.559,19.364,19.559,33.174
		C172.08,69.599,171.458,73.508,170.216,77.305z"/>
</g>
<g>
</g>
<g>
</g>
<g>
</g>
<g>
</g>
<g>
</g>
<g>
</g>
<g>
</g>
<g>
</g>
<g>
</g>
<g>
</g>
<g>
</g>
<g>
</g>
<g>
</g>
<g>
</g>
<g>
</g>
</svg>
