<?xml version="1.0" encoding="iso-8859-1"?>
<!-- Generator: Adobe Illustrator 16.0.0, SVG Export Plug-In . SVG Version: 6.00 Build 0)  -->
<!DOCTYPE svg PUBLIC "-//W3C//DTD SVG 1.1//EN" "http://www.w3.org/Graphics/SVG/1.1/DTD/svg11.dtd">
<svg version="1.1" id="Capa_1" xmlns="http://www.w3.org/2000/svg" xmlns:xlink="http://www.w3.org/1999/xlink" x="0px" y="0px"
	 width="196.966px" height="196.967px" viewBox="0 0 196.966 196.967" style="enable-background:new 0 0 196.966 196.967;"
	 xml:space="preserve">
<g>
	<path d="M166.563,19.064C144.8,7.06,116.437,10.689,98.529,27.151C80.535,10.747,52.293,7.042,30.421,19.064
		C11.639,29.413,0,49.16,0,70.591c0,6.144,0.999,12.254,2.731,17.479c9.408,42.243,88.555,92.352,91.9,94.464l3.885,2.448
		l3.885-2.448c3.337-2.119,82.43-52.221,91.679-93.773c1.894-5.842,2.887-11.953,2.887-18.17
		C196.984,49.16,185.341,29.413,166.563,19.064z M180.032,84.889c-6.345,28.479-57.749,67.199-81.497,82.782
		c-23.793-15.583-75.229-54.34-81.713-83.479c-1.458-4.439-2.208-9.015-2.208-13.618c0-16.118,8.756-30.958,22.834-38.739
		c6.591-3.599,13.993-5.505,21.376-5.505c13.216,0,25.645,5.849,34.124,16.03l5.593,6.747l5.62-6.765
		c13.214-15.975,37.083-20.575,55.363-10.52c14.108,7.782,22.87,22.622,22.87,38.739C182.382,75.25,181.669,79.832,180.032,84.889z
		 M175.076,70.585c0,3.885-0.609,7.715-1.814,11.344c-0.5,1.532-1.925,2.494-3.459,2.494c-0.39,0-0.779-0.082-1.151-0.201
		c-1.93-0.63-2.953-2.691-2.308-4.612c0.956-2.89,1.455-5.931,1.455-9.03c0-10.805-5.869-20.749-15.283-25.949
		c-4.488-2.46-9.286-3.705-14.353-3.705c-2.027,0-3.641-1.641-3.641-3.653c0-2.01,1.613-3.647,3.641-3.647
		c6.303,0,12.331,1.565,17.878,4.625C167.781,44.733,175.076,57.106,175.076,70.585z M70.065,107.388
		c1.933,0,3.915-0.286,5.979-1.139c-0.697,6.839-3.547,11.187-7.432,11.187c-10.193,0-19.206-16.186-31.819-16.186
		c-0.572,0-1.071,0-1.641,0.079l10.607-49.45c-6.192,2.582-9.977,7.913-9.977,15.546c0,3.653,0.923,4.202,0.999,4.862
		c-4.92,0-7.627-1.803-7.627-6.927c0-9.478,13.113-18.544,25.042-18.544c0.999,0,1.927,0.076,2.85,0.137L46.04,98.185
		C53.472,99.838,60.98,107.388,70.065,107.388z M89.3,76.604l-2.493,11.578c-0.28,1.392-0.356,2.637-0.356,3.453
		c0,5.632,3.349,8.421,8.799,8.421c14.562,0,20.347-19.912,20.347-31.329c0-3.136-1.071-6.199-4.493-6.199
		c-3.021,0-4.458,1.647-4.458,3.848c0,1.565,0.901,3.635,2.606,3.635c0.561,0,2.059-0.219,2.271-0.712
		c0,7.858-5.377,23.851-12.358,23.851c-1.701,0-2.423-0.916-2.423-2.351c0-0.673,0.143-1.601,0.365-2.6l5.118-24.244H91.946
		l-1.998,9.502c-1.994,0.844-4.028,1.416-5.699,1.416c-0.21,0-0.496,0-0.786-0.155c0-7.48-2.987-11.399-9.115-11.399
		c-14.708,0-19.522,17.117-19.522,25.316c0,8.162,4.777,11.292,11.399,11.292c8.753,0,15.88-8.266,17.016-21.479
		C85.379,78.075,87.382,77.372,89.3,76.604z M75.408,75.654c0,1.428,0.426,2.634,1.927,2.987
		c-1.142,8.418-4.777,14.854-8.254,14.854c-2.719,0-3.642-1.066-3.642-5.806c0-6.984,4.421-20.039,9.484-20.039
		c1.857,0,2.561,1.142,2.71,4.152C76.331,72.357,75.408,73.654,75.408,75.654z M142.779,70.149c0-3.562-1.535-6.847-7.88-6.847
		c-14.614,0-19.241,17.187-19.241,25.379c0,8.086,4.42,11.363,11.045,11.363c5.7,0,10.827-2.436,12.325-10.583
		c-2.266,2.031-5.7,3.809-8.403,3.809c-2.496,0-4.421-1.428-4.421-5.949c0-0.648,0.073-1.428,0.141-2.144
		C134.899,84.697,142.779,78.425,142.779,70.149z M135.471,67.081c1.353,0,1.778,1.142,1.778,2.919
		c0,5.998-4.847,11.484-10.412,11.771C128.335,75,131.903,67.081,135.471,67.081z M138.467,111.772h-6.198l-2.972,13.89
		c-0.64,2.186-1.767,3.812-3.446,3.812c-0.999,0-1.291-0.92-1.291-1.931c0-0.359,0-0.706,0.121-1.065l3.094-14.705h-6.199
		l-1.145,5.236c-1.242,0.53-2.484,1.389-3.556,1.389c-0.141,0-0.28,0-0.5-0.104c0-4.53-1.777-6.911-5.528-6.911
		c-8.939,0-11.85,10.369-11.85,15.375c-1.148,2.776-2.569,4.28-4.844,5.108l4.277-20.088h-6.235l-3.026,14.133
		c-0.648,2.064-1.775,3.562-3.386,3.562c-0.989,0-1.315-0.92-1.315-1.925c0-0.365,0.076-0.712,0.131-1.071l3.136-14.705H81.47
		l-2.926,13.89c-0.21,1.035-0.353,1.996-0.353,2.812c0,3.635,2.058,5.2,4.625,5.2c1.492,0,3.386-0.384,5.2-2.417l-0.496,2.35
		c-3.276,0.999-7.061,2.783-7.061,6.412c0,2.844,2.208,4.201,4.847,4.201c2.847,0,6.476-1.15,7.761-7.343l0.642-3.136
		c2.034-0.542,4.21-2.211,5.949-5.127c0.825,3.202,2.963,4.986,6.232,4.986c5.334,0,9.7-5.066,10.364-13.037
		c1.57-0.268,2.496-1.175,3.812-1.783l-1.498,6.874c-0.207,1.035-0.316,1.997-0.316,2.813c0,3.635,2.021,5.2,4.628,5.2
		c1.814,0,4.299-0.566,6.442-4.129c0.328,2.563,1.851,4.129,4.28,4.129c2.308,0,4.561-1.353,4.78-4.451
		c-0.39,0.109-0.615,0.249-1.432,0.249c-1.199,0-1.777-0.389-1.777-1.602c0-0.396,0.079-0.821,0.183-1.394L138.467,111.772z
		 M86.807,137.023c-0.572,2.564-1.607,3.849-2.487,3.849c-0.953,0-1.492-0.853-1.492-1.431c0-1.735,2.058-2.85,4.241-3.702
		L86.807,137.023z M111.493,118.859c0,0.859,0.243,1.645,1.169,1.852c-0.7,5.066-2.923,8.976-5.023,8.976
		c-1.639,0-2.211-0.651-2.211-3.501c0-4.275,2.686-12.179,5.779-12.179c1.107,0,1.534,0.706,1.649,2.527
		C112.065,116.863,111.493,117.648,111.493,118.859z"/>
</g>
<g>
</g>
<g>
</g>
<g>
</g>
<g>
</g>
<g>
</g>
<g>
</g>
<g>
</g>
<g>
</g>
<g>
</g>
<g>
</g>
<g>
</g>
<g>
</g>
<g>
</g>
<g>
</g>
<g>
</g>
</svg>
