<?xml version="1.0" encoding="iso-8859-1"?>
<!-- Generator: Adobe Illustrator 16.0.0, SVG Export Plug-In . SVG Version: 6.00 Build 0)  -->
<!DOCTYPE svg PUBLIC "-//W3C//DTD SVG 1.1//EN" "http://www.w3.org/Graphics/SVG/1.1/DTD/svg11.dtd">
<svg version="1.1" id="Capa_1" xmlns="http://www.w3.org/2000/svg" xmlns:xlink="http://www.w3.org/1999/xlink" x="0px" y="0px"
	 width="177.871px" height="177.871px" viewBox="0 0 177.871 177.871" style="enable-background:new 0 0 177.871 177.871;"
	 xml:space="preserve">
<g>
	<path d="M150.853,17.586c-20.01-10.979-46.047-7.155-61.918,8.628c-15.92-15.753-41.909-19.583-61.942-8.628
		C10.352,26.762,0,44.287,0,63.328c0,5.468,0.874,10.881,2.463,15.661c8.488,38.197,80.992,84.128,84.073,86.053l2.399,1.504
		l2.399-1.504c3.084-1.943,75.557-47.855,83.948-85.626c1.717-5.261,2.588-10.662,2.588-16.094
		C177.871,44.305,167.519,26.787,150.853,17.586z M88.935,155.865c-12.596-8.27-70.814-47.94-77.792-79.263
		c-1.428-4.299-2.137-8.756-2.137-13.274c0-1.985,0.505-3.842,0.767-5.778c0.648,1.954,1.395,4.213,2.381,6.783l4.226-1.632
		c-2-5.146-3.124-9.122-3.785-11.497l-0.347-1.187l-1.053,0.311c3.291-10.413,10.3-19.437,20.152-24.856
		c4.077-2.247,8.522-3.538,13.062-4.39c-0.292,2.405-0.792,4.774-0.792,7.216c0,6.741,1.078,13.42,3.075,19.424
		c7.058,31.725,51.855,63.309,82.137,78.117C112.193,140.221,95.088,151.815,88.935,155.865z M166.587,77.035
		c-3.002,13.585-16.027,28.74-30.629,42.271c-30.445-14.139-74.202-45.352-80.575-73.965c-1.827-5.517-2.743-11.259-2.743-17.037
		c0-2.729,0.478-5.383,0.877-8.057c12.379,0.384,23.976,5.919,31.977,15.516l3.453,4.159l3.479-4.177
		c12.951-15.588,36.2-20.106,54.108-10.26c13.792,7.605,22.341,22.122,22.341,37.856C168.852,67.797,168.133,72.267,166.587,77.035z
		 M158.72,63.333c0,3.392-0.555,6.802-1.669,10.108c-0.305,0.943-1.169,1.553-2.119,1.553c-0.243,0-0.463-0.049-0.706-0.128
		c-1.182-0.378-1.82-1.656-1.425-2.838c0.932-2.855,1.425-5.791,1.425-8.701c0-10.425-5.669-20.009-14.748-25.039
		c-4.335-2.363-8.987-3.556-13.835-3.556c-1.248,0-2.234-1.011-2.234-2.253s0.986-2.253,2.234-2.253
		c5.603,0,11.004,1.389,15.99,4.122C152.199,40.17,158.72,51.265,158.72,63.333z M32.562,46.747
		c-2.046-5.358-3.212-9.456-3.891-11.898l-0.338-1.139l4.305-1.279l0.359,1.182c0.655,2.368,1.784,6.357,3.772,11.502L32.562,46.747
		z M42.188,57.245c2.003,3.909,4.248,7.776,6.64,11.502l-3.772,2.442c-2.475-3.849-4.808-7.849-6.872-11.898L42.188,57.245z
		 M56.48,79.604c2.646,3.397,5.52,6.832,8.598,10.169l-3.334,3.038c-3.124-3.428-6.098-6.947-8.823-10.449L56.48,79.604z
		 M106.341,123.428l-2.363,3.817c-3.8-2.351-7.63-4.884-11.371-7.538l2.603-3.666C98.875,118.641,102.608,121.12,106.341,123.428z
		 M81.753,111.487c-3.538-2.855-7.021-5.87-10.333-8.951l3.069-3.301c3.242,3.009,6.646,5.968,10.074,8.757L81.753,111.487z
		 M21.787,74.836c1.988,3.909,4.248,7.775,6.628,11.496l-3.772,2.448c-2.475-3.848-4.801-7.855-6.865-11.892L21.787,74.836z
		 M36.078,97.196c2.63,3.397,5.52,6.826,8.592,10.162l-3.334,3.033c-3.124-3.435-6.098-6.948-8.817-10.449L36.078,97.196z
		 M54.093,116.827c3.23,3.015,6.622,5.968,10.062,8.75l-2.81,3.502c-3.544-2.85-7.015-5.864-10.333-8.963L54.093,116.827z
		 M74.799,133.627c3.671,2.594,7.407,5.078,11.137,7.398l-2.375,3.817c-3.793-2.351-7.633-4.89-11.363-7.538L74.799,133.627z"/>
</g>
<g>
</g>
<g>
</g>
<g>
</g>
<g>
</g>
<g>
</g>
<g>
</g>
<g>
</g>
<g>
</g>
<g>
</g>
<g>
</g>
<g>
</g>
<g>
</g>
<g>
</g>
<g>
</g>
<g>
</g>
</svg>
