<?xml version="1.0" encoding="iso-8859-1"?>
<!-- Generator: Adobe Illustrator 16.0.0, SVG Export Plug-In . SVG Version: 6.00 Build 0)  -->
<!DOCTYPE svg PUBLIC "-//W3C//DTD SVG 1.1//EN" "http://www.w3.org/Graphics/SVG/1.1/DTD/svg11.dtd">
<svg version="1.1" id="Capa_1" xmlns="http://www.w3.org/2000/svg" xmlns:xlink="http://www.w3.org/1999/xlink" x="0px" y="0px"
	 width="168.1px" height="168.099px" viewBox="0 0 168.1 168.099" style="enable-background:new 0 0 168.1 168.099;"
	 xml:space="preserve">
<g>
	<path d="M0,35.682h19.029v19.029H0V35.682z M0,80.608h19.029V61.582H0V80.608z M24.847,28.812h19.029V9.784H24.847V28.812z
		 M24.847,54.716h19.029V35.688H24.847V54.716z M24.847,80.608h19.029V61.582H24.847V80.608z M24.847,106.517h19.029V87.491H24.847
		V106.517z M49.691,28.812H68.72V9.784H49.691V28.812z M49.691,106.517H68.72V87.491H49.691V106.517z M49.691,132.412H68.72V113.39
		H49.691V132.412z M74.534,54.716h19.032V35.688H74.534V54.716z M74.534,158.316h19.032v-19.021H74.534V158.316z M74.534,132.948
		h19.032v-19.031H74.534V132.948z M99.383,28.812h19.026V9.784H99.383V28.812z M99.383,106.517h19.026V87.491H99.383V106.517z
		 M99.383,132.412h19.026V113.39H99.383V132.412z M124.226,28.812h19.031V9.784h-19.031V28.812z M124.226,54.716h19.031V35.688
		h-19.031V54.716z M124.226,80.608h19.031V61.582h-19.031V80.608z M124.226,106.517h19.031V87.491h-19.031V106.517z M149.067,35.682
		v19.029H168.1V35.682H149.067z M149.067,80.608H168.1V61.582h-19.032V80.608z"/>
</g>
<g>
</g>
<g>
</g>
<g>
</g>
<g>
</g>
<g>
</g>
<g>
</g>
<g>
</g>
<g>
</g>
<g>
</g>
<g>
</g>
<g>
</g>
<g>
</g>
<g>
</g>
<g>
</g>
<g>
</g>
</svg>
