<?xml version="1.0" encoding="iso-8859-1"?>
<!-- Generator: Adobe Illustrator 16.0.0, SVG Export Plug-In . SVG Version: 6.00 Build 0)  -->
<!DOCTYPE svg PUBLIC "-//W3C//DTD SVG 1.1//EN" "http://www.w3.org/Graphics/SVG/1.1/DTD/svg11.dtd">
<svg version="1.1" id="Capa_1" xmlns="http://www.w3.org/2000/svg" xmlns:xlink="http://www.w3.org/1999/xlink" x="0px" y="0px"
	 width="221.523px" height="221.523px" viewBox="0 0 221.523 221.523" style="enable-background:new 0 0 221.523 221.523;"
	 xml:space="preserve">
<g>
	<path d="M153.865,153.52c0,2.217-0.365,4.481-1.072,6.668c-0.231,0.797-0.962,1.272-1.729,1.272c-0.177,0-0.391-0.024-0.561-0.091
		c-0.956-0.305-1.498-1.328-1.176-2.29c0.604-1.857,0.901-3.739,0.901-5.577c0-6.632-3.604-12.739-9.413-15.954
		c-2.74-1.517-5.712-2.277-8.793-2.277c-1.023,0-1.827-0.815-1.827-1.827c0-1.022,0.804-1.814,1.827-1.814
		c3.714,0,7.271,0.907,10.546,2.716C149.548,138.199,153.865,145.543,153.865,153.52z M160.526,134.156
		c3.824,5.669,6.162,12.307,6.162,19.363c0,3.605-0.591,7.21-1.717,10.705c-5.505,24.789-52.884,54.814-54.897,56.057l-1.945,1.242
		l-1.946-1.242c-2.021-1.242-49.422-31.28-54.997-56.422c-1.035-3.057-1.62-6.662-1.62-10.34c0-6.917,2.208-13.445,5.891-19.022
		c-2.986-5.724-13.761-28.71-6.872-50.848c4.128-13.25,13.789-23.556,28.677-30.677c1.303-0.585,2.807-0.417,3.915,0.499
		c1.099,0.91,1.571,2.375,1.19,3.76c-0.109,0.393-9.901,37.692,9.097,44.415c2.688-0.874,10.559-3.968,13.202-11.062
		c2.499-6.774-0.131-15.658-7.855-26.451c-0.904-1.267-1.939-2.569-3.044-3.967c-9.015-11.414-24.116-30.546,10.157-59.303
		c1.254-1.053,3.032-1.16,4.372-0.231c1.367,0.886,1.964,2.57,1.482,4.129c-0.073,0.225-6.999,22.895,0.588,36.048
		c2.582,4.445,6.497,7.23,11.968,8.461c2.351,0.56,6.613,1.06,8.635-1.44c1.395-1.729,3.763-7.657-4.359-25.093
		c-0.555-1.19-0.408-2.625,0.383-3.696c0.78-1.09,2.083-1.608,3.423-1.465c0.73,0.098,18.353,2.555,25.672,17.452
		c6.04,12.315,3.051,28.939-8.891,49.407c-1.875,3.249-2.144,7.091-0.572,8.589c1.596,1.595,6.796,1.458,16.051-4.36
		c1.31-0.843,3.063-0.749,4.274,0.274c0.329,0.268,7.971,6.677,8.239,17.604C175.438,115.693,170.47,124.992,160.526,134.156z
		 M60.585,128.268c2.077-1.948,4.345-3.727,6.89-5.127c13.226-7.222,30.059-4.811,40.654,5.225
		c10.538-10.029,27.438-12.403,40.609-5.249c2.66,1.462,5.035,3.282,7.167,5.322c8.019-7.526,12.111-14.797,11.977-21.604
		c-0.109-4.847-2.253-8.442-3.885-10.446c-12.604,7.185-19.138,5.069-22.469,1.897c-4.116-3.967-4.384-11.168-0.657-17.534
		c10.638-18.23,13.529-32.531,8.634-42.499c-3.051-6.235-8.713-9.651-13.243-11.499c4.457,11.874,4.591,20.483,0.407,25.672
		c-3.354,4.141-9.006,5.562-15.95,4.003c-7.496-1.695-13.119-5.735-16.712-12.004c-5.276-9.146-4.987-21.272-3.742-30.12
		c-18.118,19.351-8.96,30.951-0.749,41.321c1.166,1.477,2.284,2.898,3.249,4.25c9.222,12.909,12.179,24.113,8.726,33.329
		c-4.579,12.215-18.645,15.695-19.263,15.834c-0.584,0.134-1.239,0.128-1.839-0.048c-20.42-5.843-18.974-32.142-16.772-45.66
		c-9.134,5.836-15.196,13.381-18.058,22.502C50.353,102.544,57.023,120.498,60.585,128.268z M159.369,153.52
		c0-9.974-5.413-19.15-14.163-24.004c-11.423-6.234-26.098-3.36-34.261,6.54l-2.816,3.392l-2.826-3.385
		c-5.236-6.327-12.918-9.938-21.086-9.938c-4.558,0-9.119,1.188-13.213,3.422c-8.705,4.805-14.124,13.986-14.124,23.979
		c0,2.887,0.451,5.712,1.349,8.397c3.982,17.89,35.67,41.668,49.883,50.917c8.884-5.846,45.468-31.012,49.815-50.527
		C158.925,159.201,159.369,156.357,159.369,153.52z"/>
</g>
<g>
</g>
<g>
</g>
<g>
</g>
<g>
</g>
<g>
</g>
<g>
</g>
<g>
</g>
<g>
</g>
<g>
</g>
<g>
</g>
<g>
</g>
<g>
</g>
<g>
</g>
<g>
</g>
<g>
</g>
</svg>
