<?xml version="1.0" encoding="iso-8859-1"?>
<!-- Generator: Adobe Illustrator 18.1.1, SVG Export Plug-In . SVG Version: 6.00 Build 0)  -->
<svg version="1.1" id="Capa_1" xmlns="http://www.w3.org/2000/svg" xmlns:xlink="http://www.w3.org/1999/xlink" x="0px" y="0px"
	 viewBox="0 0 50.269 50.269" style="enable-background:new 0 0 50.269 50.269;" xml:space="preserve">
<g>
	<path style="fill:#030104;" d="M43.705,9.03c-1.821-0.981-3.871-1.501-5.927-1.501c-4.61,0-8.832,2.519-11.019,6.573
		c-0.791,1.467-1.302,3.916-1.623,6.799c-0.345-2.884-0.875-5.342-1.675-6.792c-2.201-3.991-6.401-6.471-10.962-6.471
		c-2.098,0-4.183,0.539-6.03,1.559c-2.925,1.613-5.046,4.269-5.972,7.48c-0.927,3.21-0.548,6.589,1.066,9.515
		c2.691,4.877,16.229,13.033,21.927,16.313c0.272,0.156,0.547,0.235,0.815,0.236c0.386,0,0.705-0.177,0.931-0.459
		c0.225,0.283,0.543,0.458,0.934,0.458c0.272,0,0.551-0.082,0.826-0.244c4.419-2.599,19.052-11.472,21.775-16.519
		C52.046,19.908,49.774,12.305,43.705,9.03z M4.981,13.383c0.349-1.208,1.146-2.206,2.249-2.813
		c0.693-0.384,1.477-0.587,2.266-0.587c1.716,0,3.296,0.933,4.124,2.433c0.698,1.267,1.018,5.236,0.854,10.619
		c-0.005,0.155-0.043,0.416-0.247,0.416c-0.088,0-0.198-0.038-0.313-0.105c-4.645-2.732-7.834-5.119-8.532-6.384
		C4.774,15.861,4.631,14.591,4.981,13.383z M24.569,41.321c-0.005,0.156-0.047,0.42-0.262,0.42
		c-0.062-0.001-0.169-0.018-0.317-0.103C19.602,39.112,5.082,30.496,2.44,25.709c-1.485-2.692-1.833-5.802-0.98-8.755
		c0.577-2.002,1.67-3.761,3.146-5.154c-0.241,0.408-0.45,0.838-0.585,1.306c-0.423,1.464-0.251,3.005,0.485,4.339
		c1.085,1.967,6.042,5.082,8.899,6.763c0.273,0.162,0.55,0.244,0.821,0.244c0.709,0,1.222-0.57,1.247-1.385
		c0.101-3.313,0.108-9.165-0.979-11.133c-0.973-1.765-2.806-2.872-4.812-2.938c0.921-0.234,1.868-0.357,2.818-0.357
		c4.196,0,8.06,2.281,10.087,5.953c1.407,2.551,1.936,8.519,2.092,14.308c-0.044,2.479-0.021,4.943,0.033,7.15
		C24.68,38.257,24.618,40.123,24.569,41.321z M42.961,10.41c2.282,1.23,3.139,4.091,1.908,6.375
		c-0.687,1.27-3.853,3.687-8.472,6.465c-0.114,0.069-0.226,0.106-0.313,0.106c-0.204,0-0.244-0.258-0.25-0.413
		c-0.216-5.378,0.065-9.351,0.754-10.627c0.822-1.524,2.41-2.472,4.145-2.472C41.505,9.844,42.276,10.04,42.961,10.41z
		 M47.891,25.503c-2.6,4.818-17.038,13.566-21.401,16.132c-0.148,0.087-0.255,0.105-0.318,0.105c-0.212,0-0.257-0.262-0.265-0.417
		c-0.059-1.225-0.142-3.148-0.193-5.422c0.026-2.01,0.026-4.295-0.032-6.631c0.089-5.907,0.551-12.082,1.96-14.693
		c2.012-3.73,5.896-6.048,10.138-6.048c0.91,0,1.818,0.116,2.704,0.332c-2.003,0.088-3.818,1.206-4.775,2.98
		c-1.068,1.983-1.005,7.832-0.873,11.142c0.032,0.809,0.546,1.373,1.25,1.373c0.274,0,0.553-0.084,0.829-0.249
		c2.842-1.711,7.77-4.874,8.836-6.848c0.979-1.818,0.863-3.935-0.112-5.599C49.344,15.146,50.419,20.816,47.891,25.503z"/>
</g>
<g>
</g>
<g>
</g>
<g>
</g>
<g>
</g>
<g>
</g>
<g>
</g>
<g>
</g>
<g>
</g>
<g>
</g>
<g>
</g>
<g>
</g>
<g>
</g>
<g>
</g>
<g>
</g>
<g>
</g>
</svg>
