<?xml version="1.0" encoding="iso-8859-1"?>
<!-- Generator: Adobe Illustrator 16.0.0, SVG Export Plug-In . SVG Version: 6.00 Build 0)  -->
<!DOCTYPE svg PUBLIC "-//W3C//DTD SVG 1.1//EN" "http://www.w3.org/Graphics/SVG/1.1/DTD/svg11.dtd">
<svg version="1.1" id="Capa_1" xmlns="http://www.w3.org/2000/svg" xmlns:xlink="http://www.w3.org/1999/xlink" x="0px" y="0px"
	 width="187.06px" height="187.059px" viewBox="0 0 187.06 187.059" style="enable-background:new 0 0 187.06 187.059;"
	 xml:space="preserve">
<g>
	<path d="M93.53,37.939c-1.053,0-2.076-0.454-2.773-1.297c-1.69-2.04-3.55-3.97-5.763-5.836c-1.507-1.303-1.69-3.583-0.387-5.094
		c1.297-1.464,3.586-1.613,5.063-0.387c1.403,1.185,2.67,2.387,3.867,3.617c1.19-1.23,2.493-2.433,3.866-3.617
		c1.514-1.227,3.8-1.06,5.066,0.387c1.297,1.51,1.127,3.791-0.39,5.094c-2.174,1.866-4.073,3.784-5.764,5.836
		C95.637,37.486,94.62,37.939,93.53,37.939z M72.796,156.875c1.2-1.595,0.88-3.83-0.697-5.029c-4.707-3.508-9.8-7.441-14.97-11.703
		c-1.51-1.23-3.791-1.096-5.057,0.487c-1.267,1.546-1.053,3.793,0.493,5.065c5.267,4.317,10.437,8.33,15.214,11.904
		c0.636,0.487,1.41,0.707,2.144,0.707C71.009,158.319,72.099,157.826,72.796,156.875z M43.042,132.739
		c1.373-1.474,1.267-3.77-0.21-5.097c-4.71-4.287-9.173-8.744-13.284-13.28c-1.37-1.432-3.614-1.614-5.054-0.244
		c-1.479,1.334-1.617,3.617-0.283,5.091c4.253,4.713,8.893,9.304,13.773,13.773c0.67,0.64,1.547,0.907,2.427,0.907
		C41.392,133.902,42.338,133.512,43.042,132.739z M17.011,104.771c1.653-1.09,2.106-3.337,1.017-4.987
		c-3.867-5.769-6.497-11.176-7.907-16.097c-0.56-1.939-2.707-3.093-4.463-2.463c-1.896,0.524-3.02,2.521-2.463,4.421
		c1.613,5.663,4.563,11.743,8.82,18.134c0.707,1.022,1.83,1.583,2.987,1.583C15.708,105.362,16.405,105.191,17.011,104.771z
		 M7.201,66.01c0.07-6.004,1.297-11.828,3.586-17.345c0.773-1.836-0.106-3.942-1.963-4.716c-1.796-0.703-3.934,0.112-4.677,1.967
		C1.511,52.273,0.107,58.984,0,65.868c-0.031,1.994,1.546,3.617,3.547,3.653h0.034C5.551,69.521,7.164,67.974,7.201,66.01z
		 M20.484,33.906c3.303-3.41,7.027-6.248,11.134-8.498c1.093-0.6,2.214-1.16,3.343-1.689c1.827-0.807,2.6-2.95,1.79-4.777
		c-0.843-1.796-3.057-2.533-4.777-1.76c-1.333,0.606-2.637,1.23-3.827,1.933c-4.71,2.57-9,5.867-12.827,9.74
		c-1.373,1.434-1.333,3.73,0.067,5.087c0.7,0.707,1.617,1.023,2.533,1.023S19.778,34.603,20.484,33.906z M74.206,19.812
		c0.636-1.863-0.387-3.934-2.25-4.563c-6.467-2.208-13.28-3.13-20.164-2.804c-1.964,0.073-3.511,1.756-3.444,3.727
		c0.107,2.003,1.69,3.663,3.76,3.443c5.937-0.28,11.947,0.536,17.534,2.469c0.387,0.137,0.773,0.173,1.16,0.173
		C72.272,22.233,73.676,21.322,74.206,19.812z M95.463,174.163c0,0,2.819-1.79,7.48-4.92c1.626-1.126,2.077-3.336,0.95-4.986
		c-1.12-1.688-3.337-2.076-4.99-0.98c-2.28,1.547-4.113,2.734-5.374,3.544c-1.227-0.81-3.093-1.997-5.374-3.544
		c-1.617-1.096-3.83-0.694-4.99,0.98c-1.09,1.65-0.667,3.86,0.986,4.986c4.64,3.13,7.48,4.92,7.48,4.92
		c0.563,0.365,1.23,0.524,1.897,0.524C94.197,174.687,94.863,174.51,95.463,174.163z M118.617,158.094
		c4.743-3.538,9.907-7.515,15.205-11.808c1.546-1.267,1.79-3.513,0.523-5.065c-1.218-1.547-3.502-1.827-5.061-0.561
		c-5.2,4.214-10.297,8.184-14.967,11.667c-1.613,1.187-1.931,3.435-0.743,5.017c0.706,0.95,1.797,1.438,2.893,1.438
		C117.211,158.806,117.984,158.599,118.617,158.094z M148.484,133.579c5.133-4.707,9.755-9.341,13.773-13.736
		c1.334-1.468,1.182-3.758-0.249-5.079c-1.511-1.419-3.794-1.229-5.097,0.237c-3.867,4.257-8.324,8.708-13.317,13.323
		c-1.443,1.334-1.547,3.617-0.213,5.061c0.736,0.779,1.692,1.169,2.667,1.169C146.938,134.529,147.778,134.2,148.484,133.579z
		 M174.485,104.564c4.28-6.33,7.337-12.34,9.097-17.951c0.561-1.909-0.493-3.91-2.387-4.509c-1.906-0.56-3.896,0.493-4.506,2.394
		c-1.504,4.914-4.25,10.29-8.153,15.987c-1.12,1.649-0.7,3.896,0.95,5.023c0.633,0.414,1.333,0.603,2.027,0.603
		C172.658,106.111,173.81,105.586,174.485,104.564z M187.06,66.753c0-6.884-1.267-13.6-3.781-20.027
		c-0.743-1.827-2.777-2.813-4.677-2.003c-1.827,0.7-2.74,2.807-2.04,4.67c2.204,5.557,3.307,11.387,3.307,17.36
		c0,2,1.613,3.58,3.61,3.58C185.445,70.333,187.06,68.753,187.06,66.753z M172.195,34.679c1.443-1.379,1.517-3.666,0.146-5.093
		c-3.897-4.147-8.409-7.663-13.457-10.507c-0.986-0.5-1.967-1.023-2.99-1.51c-1.863-0.78-3.934-0.073-4.779,1.708
		c-0.841,1.796-0.116,3.943,1.687,4.816c0.95,0.411,1.827,0.877,2.648,1.297c4.348,2.423,8.245,5.48,11.655,9.103
		c0.706,0.773,1.692,1.121,2.648,1.121C170.618,35.62,171.495,35.303,172.195,34.679z M118.197,21.779
		c5.59-1.76,11.563-2.496,17.536-2.152c1.895-0.316,3.69-1.364,3.818-3.374c0.14-1.958-1.37-3.69-3.373-3.785
		c-6.911-0.386-13.726,0.387-20.192,2.494c-1.905,0.6-2.929,2.633-2.319,4.497c0.493,1.546,1.894,2.494,3.44,2.494
		C117.454,21.953,117.844,21.922,118.197,21.779z"/>
</g>
<g>
</g>
<g>
</g>
<g>
</g>
<g>
</g>
<g>
</g>
<g>
</g>
<g>
</g>
<g>
</g>
<g>
</g>
<g>
</g>
<g>
</g>
<g>
</g>
<g>
</g>
<g>
</g>
<g>
</g>
</svg>
