<?xml version="1.0" encoding="iso-8859-1"?>
<!-- Generator: Adobe Illustrator 16.0.0, SVG Export Plug-In . SVG Version: 6.00 Build 0)  -->
<!DOCTYPE svg PUBLIC "-//W3C//DTD SVG 1.1//EN" "http://www.w3.org/Graphics/SVG/1.1/DTD/svg11.dtd">
<svg version="1.1" id="Capa_1" xmlns="http://www.w3.org/2000/svg" xmlns:xlink="http://www.w3.org/1999/xlink" x="0px" y="0px"
	 width="187.059px" height="187.059px" viewBox="0 0 187.059 187.059" style="enable-background:new 0 0 187.059 187.059;"
	 xml:space="preserve">
<g>
	<path d="M158.513,18.41c-20.862-11.524-48.007-7.782-64.96,8.604C76.693,10.741,49.215,6.951,28.564,18.41
		C10.954,28.098,0,46.6,0,66.752c0,5.742,0.922,11.46,2.618,16.499c8.93,40.155,84.825,88.229,88.049,90.244l2.886,1.827
		l2.887-1.827c3.239-2.009,79.074-50.059,87.928-89.721c1.766-5.449,2.691-11.173,2.691-17.016
		C187.059,46.6,176.123,28.068,158.513,18.41z M13.076,80.382c-1.486-4.479-2.213-9.048-2.213-13.637
		c0-16.182,8.778-31.045,22.95-38.852c6.509-3.604,13.923-5.52,21.394-5.52c12.65,0,24.466,5.456,32.873,14.827L71.782,69.815
		c-0.801,1.565-0.767,3.416,0.049,4.95c0.792,1.532,2.302,2.594,4.028,2.862l21.884,3.124l-19.61,22.993
		c-1.032,1.218-1.483,2.807-1.215,4.366c0.238,1.564,1.148,2.94,2.481,3.763l20.304,12.58l-9.584,35.664
		C72.266,148.097,19.796,110.613,13.076,80.382z M173.906,80.894c-6.04,27.088-50.162,60.645-71.56,75.576l8.866-33.102
		c0.608-2.301-0.341-4.768-2.387-6.004l-18.344-11.387L112.381,80.3c1.267-1.501,1.645-3.599,0.943-5.425
		c-0.7-1.857-2.362-3.178-4.305-3.471L84.819,67.96l15.835-31.654c0.049-0.106-0.024-0.213,0.024-0.326
		c13.651-13.679,35.5-17.528,52.604-8.099c14.158,7.779,22.95,22.688,22.95,38.858C176.208,71.435,175.49,76.01,173.906,80.894z
		 M166.721,66.752c0,3.654-0.585,7.228-1.718,10.668c-0.365,1.142-1.425,1.851-2.569,1.851c-0.292,0-0.584-0.024-0.84-0.131
		c-1.425-0.478-2.205-2.012-1.718-3.422c0.95-2.886,1.449-5.897,1.449-8.966c0-10.75-5.821-20.627-15.198-25.791
		c-4.487-2.469-9.268-3.702-14.273-3.702c-1.51,0-2.709-1.19-2.709-2.713s1.188-2.7,2.709-2.7c5.932,0,11.588,1.446,16.867,4.332
		C159.852,42.34,166.721,54.038,166.721,66.752z"/>
</g>
<g>
</g>
<g>
</g>
<g>
</g>
<g>
</g>
<g>
</g>
<g>
</g>
<g>
</g>
<g>
</g>
<g>
</g>
<g>
</g>
<g>
</g>
<g>
</g>
<g>
</g>
<g>
</g>
<g>
</g>
</svg>
