<?xml version="1.0" encoding="iso-8859-1"?>
<!-- Generator: Adobe Illustrator 16.0.0, SVG Export Plug-In . SVG Version: 6.00 Build 0)  -->
<!DOCTYPE svg PUBLIC "-//W3C//DTD SVG 1.1//EN" "http://www.w3.org/Graphics/SVG/1.1/DTD/svg11.dtd">
<svg version="1.1" id="Capa_1" xmlns="http://www.w3.org/2000/svg" xmlns:xlink="http://www.w3.org/1999/xlink" x="0px" y="0px"
	 width="233.842px" height="233.842px" viewBox="0 0 233.842 233.842" style="enable-background:new 0 0 233.842 233.842;"
	 xml:space="preserve">
<g>
	<path d="M181.654,76.495c-1.784-0.986-3.77-1.196-5.633-1.976V47.033C176.021,18.462,153.955,0,119.801,0
		C85.644,0,63.576,18.462,63.576,47.033v25.453c-3.909,1.108-7.843,2.07-11.435,4.046c-17.726,9.776-28.75,28.446-28.75,48.704
		c0,5.791,0.922,11.552,2.569,16.521c8.915,40.146,84.356,87.934,87.586,89.942l3.374,2.144l3.373-2.144
		c3.228-2.009,78.635-49.784,87.367-89.315c1.863-5.547,2.789-11.295,2.789-17.147C210.45,104.977,199.429,86.308,181.654,76.495z
		 M76.266,47.021c0-31.855,33.317-34.331,43.522-34.331c10.224,0,43.52,2.47,43.52,34.331V70.61
		c-16.66-2.472-34.051,2.35-46.399,13.965c-10.869-10.156-25.852-14.678-40.66-14.054V47.015h0.018V47.021z M195.471,139.027
		c-6.138,27.56-55.917,64.983-78.55,79.793c-22.664-14.81-72.449-52.27-78.733-80.377c-1.391-4.299-2.101-8.757-2.101-13.214
		c0-15.637,8.503-30.068,22.198-37.619c6.345-3.496,13.5-5.325,20.682-5.325c12.812,0,24.847,5.663,33.064,15.563l4.89,5.879
		l4.889-5.873c12.879-15.536,35.884-19.957,53.749-10.251c13.677,7.551,22.195,21.982,22.195,37.619
		C197.754,129.711,197.042,134.145,195.471,139.027z M189.832,125.229c0,3.52-0.561,7.148-1.735,10.705
		c-0.433,1.327-1.675,2.167-3.002,2.167c-0.311,0-0.646-0.023-0.986-0.146c-1.645-0.524-2.57-2.313-2.004-4.007
		c0.92-2.898,1.432-5.846,1.432-8.707c0-10.474-5.7-20.07-14.797-25.079c-4.336-2.375-9.012-3.617-13.901-3.617
		c-1.76,0-3.154-1.397-3.154-3.154c0-1.766,1.395-3.176,3.154-3.176c5.979,0,11.673,1.461,16.934,4.372
		C182.927,100.699,189.832,112.442,189.832,125.229z M132.898,134.424c0,5.407-2.911,9.938-7.003,12.86l5.511,28.911h-29.039
		l4.646-29.557c-3.593-2.922-6.074-7.185-6.074-12.19c0-8.854,7.146-16.014,15.975-16.014S132.898,125.57,132.898,134.424z"/>
</g>
<g>
</g>
<g>
</g>
<g>
</g>
<g>
</g>
<g>
</g>
<g>
</g>
<g>
</g>
<g>
</g>
<g>
</g>
<g>
</g>
<g>
</g>
<g>
</g>
<g>
</g>
<g>
</g>
<g>
</g>
</svg>
