<?xml version="1.0" encoding="iso-8859-1"?>
<!-- Generator: Adobe Illustrator 16.0.0, SVG Export Plug-In . SVG Version: 6.00 Build 0)  -->
<!DOCTYPE svg PUBLIC "-//W3C//DTD SVG 1.1//EN" "http://www.w3.org/Graphics/SVG/1.1/DTD/svg11.dtd">
<svg version="1.1" id="Capa_1" xmlns="http://www.w3.org/2000/svg" xmlns:xlink="http://www.w3.org/1999/xlink" x="0px" y="0px"
	 width="187.045px" height="187.045px" viewBox="0 0 187.045 187.045" style="enable-background:new 0 0 187.045 187.045;"
	 xml:space="preserve">
<g>
	<path d="M185.774,92.061c-1.315-14.931-10.193-24.682-24.387-26.771c-2.661-0.369-6.687-0.417-11.095-0.369
		c17.257-0.183,31.226-14.191,31.226-31.481c0.042-8.439-3.246-16.361-9.171-22.329c-5.967-5.985-13.901-9.286-22.426-9.304
		c-16.265,0-29.198,12.519-30.903,28.333v-3.708c0-2.058-1.638-3.735-3.714-3.735L7.563,22.583c-0.941,0-1.888,0.387-2.582,1.053
		c-8.336,8.025-4.399,17.327-1.166,21.111c0.718,0.837,1.741,1.312,2.837,1.312l61.22,0.066
		c3.815,6.884,16.928,30.485,21.468,39.239c4.542,8.881,13.871,15.14,21.622,19.062c-21.842,10.297-40.803,66.055-43.017,72.881
		c-0.399,1.127-0.18,2.375,0.511,3.35c0.679,0.949,1.815,1.534,3.011,1.534l39.677,0.049c1.565,0,2.947-0.968,3.489-2.411
		l10.814-28.498c4.95,17.494,7.137,22.938,15.32,28.461c5.347,3.605,11.095,5.444,17.11,5.444c14.005,0,26.208-10.498,27.767-19.899
		C188.648,147.302,185.902,94.424,185.774,92.061z M149.958,9.257c6.479,0,12.525,2.533,17.104,7.097
		c4.519,4.563,7.026,10.632,7.026,17.071c0,13.29-10.838,24.095-24.131,24.095v3.736l-0.036-3.736
		c-13.287-0.018-24.132-10.845-24.132-24.15C125.79,20.068,136.635,9.257,149.958,9.257z M119.019,42.124v-5.51
		c1.681,15.743,14.523,28.171,30.647,28.32c-2.953,0.055-5.938,0.112-9.104,0.237c-6.686,0.256-13.359,0.561-17.769,0.073
		c-5.852-0.709-11.569-10.866-14.882-19.379h7.393C117.381,45.859,119.019,44.182,119.019,42.124z M178.315,164.12
		c-0.914,5.443-9.493,13.664-20.411,13.664c-4.481,0-8.854-1.407-12.958-4.171c-6.588-4.458-7.794-8.239-13.98-30.294l-1.346-4.871
		c-0.433-1.547-1.82-2.655-3.428-2.729c-0.073,0-0.141,0-0.177,0c-1.528,0-2.953,0.944-3.489,2.399l-13.944,36.669l-31.883-0.036
		c9.21-26.135,26.865-63.236,40.475-64.484l7.423-0.67c1.778-0.158,3.203-1.559,3.386-3.35c0.183-1.766-0.944-3.409-2.655-3.921
		c-0.219-0.085-22.433-6.868-29.337-20.353c-5.398-10.376-22.494-41.071-22.688-41.385c-0.648-1.163-1.894-1.905-3.249-1.905
		L8.586,38.607c-1.023-1.781-2.149-5.112,0.618-8.556l102.398,0.113v8.245h-8.878c-1.176,0-2.302,0.561-2.99,1.507
		c-0.694,0.95-0.907,2.165-0.591,3.294c0.841,2.823,8.672,27.751,22.786,29.429c4.737,0.523,11.728,0.268,18.962-0.019
		c7.282-0.332,14.675-0.654,19.394,0.058c7.538,1.09,16.775,5.475,18.055,19.905C178.376,93.133,181.152,146.888,178.315,164.12z"/>
</g>
<g>
</g>
<g>
</g>
<g>
</g>
<g>
</g>
<g>
</g>
<g>
</g>
<g>
</g>
<g>
</g>
<g>
</g>
<g>
</g>
<g>
</g>
<g>
</g>
<g>
</g>
<g>
</g>
<g>
</g>
</svg>
