<?xml version="1.0" encoding="iso-8859-1"?>
<!-- Generator: Adobe Illustrator 16.0.0, SVG Export Plug-In . SVG Version: 6.00 Build 0)  -->
<!DOCTYPE svg PUBLIC "-//W3C//DTD SVG 1.1//EN" "http://www.w3.org/Graphics/SVG/1.1/DTD/svg11.dtd">
<svg version="1.1" id="Capa_1" xmlns="http://www.w3.org/2000/svg" xmlns:xlink="http://www.w3.org/1999/xlink" x="0px" y="0px"
	 width="181.481px" height="181.481px" viewBox="0 0 181.481 181.481" style="enable-background:new 0 0 181.481 181.481;"
	 xml:space="preserve">
<g>
	<path d="M40.122,181.481c-0.59,0-1.172-0.207-1.638-0.652c-0.91-0.895-0.938-2.381-0.027-3.307l18.608-18.974
		c0.423-0.426,1.023-0.669,1.656-0.669h57.631l43.531-53.78c-0.651-1.485-1.596-2.009-2.302-2.277
		c-3.903-1.528-11.174,2.034-13.773,3.63l-33.345,38.039c-0.432,0.523-1.071,0.797-1.753,0.797H85.72
		c-6.421,0-11.055-1.777-13.722-5.267c-3.705-4.805-2.11-10.899-2.028-11.174c0.274-1.005,1.197-1.711,2.244-1.711H95.21
		c5.699,0,9.925-1.425,12.556-4.269c1.839-1.979,2.569-4.354,2.85-6.041H45.703l-25.246,21.337c-0.947,0.853-2.469,0.73-3.273-0.269
		c-0.855-0.979-0.707-2.472,0.274-3.281l25.894-21.891c0.411-0.365,0.953-0.548,1.51-0.548h68.226c1.224,0,2.234,0.919,2.326,2.167
		c0.024,0.25,0.432,6.674-4.244,11.723c-3.557,3.805-8.915,5.723-15.973,5.723H74.243c-0.07,1.48,0.125,3.672,1.458,5.401
		c1.754,2.277,5.127,3.446,10.008,3.446h21.93l32.869-37.515c0.128-0.183,0.323-0.323,0.5-0.433
		c1.145-0.73,11.155-6.979,18.219-4.22c1.899,0.725,4.408,2.442,5.547,6.448c0.207,0.73,0.024,1.535-0.433,2.102l-45.065,55.648
		c-0.451,0.548-1.114,0.864-1.821,0.864H59.702l-17.915,18.298C41.339,181.262,40.74,181.481,40.122,181.481z M103.705,14.821
		H81.769c-1.303,0-2.326,1.029-2.326,2.326c0,1.304,1.023,2.323,2.326,2.323h19.61v28.878c0,1.297,1.023,2.326,2.326,2.326
		c1.297,0,2.326-1.029,2.326-2.326V17.146C106.031,15.85,105.001,14.821,103.705,14.821z M114.946,2.323v100.206
		c0,1.304-1.023,2.326-2.326,2.326H50.023c-1.303,0-2.317-1.022-2.317-2.326V2.323C47.706,1.02,48.72,0,50.023,0h62.597
		C113.922,0,114.946,1.02,114.946,2.323z M67.751,4.743c0,0.643,0.523,1.166,1.166,1.166h24.813c0.633,0,1.163-0.523,1.163-1.166
		s-0.53-1.166-1.163-1.166H68.917C68.275,3.577,67.751,4.101,67.751,4.743z M84.232,99.612c0-1.62-1.322-2.923-2.926-2.923
		c-1.62,0-2.911,1.303-2.911,2.923c0,1.626,1.291,2.916,2.911,2.916C82.91,102.528,84.232,101.238,84.232,99.612z M110.293,10.038
		H52.355v84.125h57.938V10.038z"/>
</g>
<g>
</g>
<g>
</g>
<g>
</g>
<g>
</g>
<g>
</g>
<g>
</g>
<g>
</g>
<g>
</g>
<g>
</g>
<g>
</g>
<g>
</g>
<g>
</g>
<g>
</g>
<g>
</g>
<g>
</g>
</svg>
