<?xml version="1.0" encoding="iso-8859-1"?>
<!-- Generator: Adobe Illustrator 18.1.1, SVG Export Plug-In . SVG Version: 6.00 Build 0)  -->
<svg version="1.1" id="Capa_1" xmlns="http://www.w3.org/2000/svg" xmlns:xlink="http://www.w3.org/1999/xlink" x="0px" y="0px"
	 viewBox="0 0 48.692 48.692" style="enable-background:new 0 0 48.692 48.692;" xml:space="preserve">
<g>
	<path style="fill:#010002;" d="M47.188,8.939c-0.274-0.323-0.739-0.434-1.215-0.277c-3.726,1.219-11.909,4.067-15.707,6.715
		c1.435-3.414,0.595-7.511-2.36-10.054C24.961,2.789,14.232,0.772,9.757,0.022C9.268-0.06,8.874,0.091,8.638,0.416
		C8.433,0.698,8.39,1.069,8.518,1.462c1.411,4.315,5.011,14.626,7.95,17.155c0.028,0.024,0.059,0.045,0.087,0.068
		c-1.048-0.43-2.174-0.664-3.322-0.664c-2.56,0-4.984,1.112-6.653,3.052c-2.534,2.945-4.551,13.674-5.301,18.149
		c-0.064,0.374,0.017,0.716,0.225,0.962c0.189,0.225,0.469,0.349,0.784,0.349c0.14,0,0.284-0.023,0.431-0.071
		c3.803-1.243,12.252-4.186,15.939-6.878c-1.284,3.358-0.418,7.309,2.461,9.786c2.945,2.534,13.674,4.551,18.149,5.301
		c0.086,0.015,0.169,0.021,0.247,0.021c0.368,0,0.678-0.147,0.872-0.415c0.205-0.282,0.248-0.653,0.12-1.046
		c-1.302-3.979-4.463-13.043-7.252-16.415c0.715,0.186,1.455,0.286,2.204,0.286c2.559,0,4.984-1.112,6.653-3.052
		c2.534-2.945,4.551-13.674,5.301-18.149C47.476,9.527,47.396,9.185,47.188,8.939z M9.468,1.151C9.44,1.065,9.444,1.014,9.438,1.012
		L9.59,1.008c7.064,1.183,15.413,3.137,17.663,5.072c2.437,2.097,3.253,5.385,2.331,8.269c-0.127-1.005-0.6-1.919-1.373-2.584
		c-1.143-0.983-4.678-1.775-7.443-2.267c-0.496-0.087-0.893,0.069-1.125,0.392c-0.203,0.283-0.242,0.654-0.11,1.045
		c0.898,2.661,2.21,6.04,3.351,7.021c0.741,0.637,1.687,0.988,2.662,0.988c0.02,0,0.04-0.007,0.061-0.007
		c-1.054,0.517-2.219,0.801-3.422,0.801c-1.856,0-3.655-0.668-5.065-1.881C14.294,15.427,10.548,4.456,9.468,1.151z M26.719,22.989
		c0.147,1.974,0.944,3.795,2.257,5.235c-0.694-0.175-1.411-0.271-2.138-0.271c-1.97,0-3.855,0.664-5.382,1.851
		c0.425-1.158,0.609-2.401,0.515-3.669c-0.175-2.336-1.249-4.464-3.025-5.992c-0.027-0.023-0.058-0.044-0.086-0.067
		c1.048,0.429,2.175,0.664,3.324,0.664c1.87,0,3.663-0.599,5.147-1.674C26.836,20.295,26.617,21.628,26.719,22.989z M23.478,30.747
		c0.736,0,1.45,0.266,2.01,0.746c0.734,0.632,1.877,3.094,3.056,6.584c0.027,0.081,0.024,0.126,0.029,0.133
		c-0.01,0.004-0.03,0.008-0.062,0.008L28.43,38.21c-3.626-0.645-6.23-1.407-6.966-2.04c-0.624-0.537-1.002-1.285-1.064-2.106
		c-0.062-0.823,0.2-1.62,0.737-2.244C21.724,31.138,22.577,30.747,23.478,30.747z M23.535,17.2
		c-0.734-0.632-1.877-3.094-3.056-6.584c-0.025-0.074-0.024-0.118-0.028-0.131l0.142-0.002c3.626,0.645,6.23,1.407,6.966,2.04
		c0.624,0.537,1.002,1.285,1.065,2.106c0.06,0.823-0.201,1.62-0.738,2.244C26.819,18.112,24.779,18.267,23.535,17.2z M18.128,21.092
		c1.289,1.109,1.435,3.061,0.327,4.351c-0.632,0.734-3.094,1.877-6.584,3.056c-0.058,0.02-0.097,0.023-0.12,0.023l-0.01,0.013
		c-0.006-0.011-0.019-0.06-0.003-0.149c0.645-3.626,1.407-6.231,2.04-6.966c0.587-0.682,1.439-1.073,2.34-1.073
		C16.855,20.346,17.568,20.612,18.128,21.092z M2.406,39.51c-0.057,0.018-0.097,0.022-0.12,0.022l-0.019,0.009
		c-0.006-0.011-0.019-0.06-0.004-0.153C3.446,32.324,5.4,23.975,7.335,21.725c1.479-1.719,3.628-2.704,5.896-2.704
		c0.812,0,1.611,0.135,2.374,0.381c-0.997,0.127-1.922,0.595-2.585,1.365c-0.983,1.143-1.775,4.678-2.267,7.443
		c-0.066,0.375,0.012,0.717,0.219,0.963c0.188,0.225,0.465,0.349,0.778,0.349c0.143,0,0.291-0.025,0.44-0.076
		c2.661-0.898,6.04-2.21,7.021-3.351c0.688-0.799,0.996-1.789,0.971-2.768c0.442,0.889,0.714,1.862,0.79,2.882
		c0.155,2.069-0.506,4.076-1.859,5.649C16.683,34.684,5.711,38.43,2.406,39.51z M39.555,47.543c0.029,0.087,0.023,0.137,0.03,0.137
		c-0.005,0.003-0.028,0.012-0.071,0.012l-0.081-0.008c-7.065-1.183-15.413-3.137-17.663-5.072c-2.436-2.097-3.253-5.385-2.331-8.268
		c0.127,1.005,0.6,1.919,1.373,2.584c1.143,0.983,4.678,1.775,7.443,2.267c0.09,0.016,0.176,0.023,0.256,0.023
		c0.362,0,0.68-0.151,0.869-0.416c0.203-0.283,0.242-0.654,0.11-1.045c-0.898-2.661-2.21-6.04-3.351-7.021
		c-0.741-0.637-1.687-0.988-2.662-0.988c-0.02,0-0.04,0.007-0.061,0.007c1.054-0.517,2.219-0.801,3.422-0.801
		c1.857,0,3.655,0.668,5.066,1.881C34.729,33.267,38.475,44.238,39.555,47.543z M30.234,23.68c0.632-0.734,3.094-1.877,6.584-3.056
		c0.058-0.02,0.097-0.023,0.13-0.036c0.006,0.011,0.019,0.06,0.003,0.149c-0.644,3.626-1.407,6.231-2.04,6.966
		c-1.067,1.24-3.106,1.396-4.35,0.328C29.272,26.922,29.125,24.969,30.234,23.68z M46.426,9.735
		c-1.183,7.064-3.137,15.413-5.072,17.663c-1.479,1.719-3.628,2.704-5.895,2.704c-0.813,0-1.611-0.135-2.374-0.381
		c0.997-0.127,1.922-0.595,2.585-1.365c0.983-1.143,1.775-4.678,2.267-7.443c0.066-0.375-0.012-0.717-0.219-0.963
		c-0.274-0.327-0.742-0.435-1.219-0.272c-2.661,0.898-6.04,2.21-7.022,3.351c-0.687,0.799-0.996,1.789-0.971,2.767
		c-0.442-0.888-0.714-1.862-0.79-2.882c-0.155-2.069,0.506-4.076,1.859-5.649c2.432-2.825,13.403-6.571,16.708-7.651
		c0.057-0.019,0.097-0.022,0.139-0.031C46.428,9.592,46.441,9.642,46.426,9.735z"/>
</g>
<g>
</g>
<g>
</g>
<g>
</g>
<g>
</g>
<g>
</g>
<g>
</g>
<g>
</g>
<g>
</g>
<g>
</g>
<g>
</g>
<g>
</g>
<g>
</g>
<g>
</g>
<g>
</g>
<g>
</g>
</svg>
