<?xml version="1.0" encoding="iso-8859-1"?>
<!-- Generator: Adobe Illustrator 16.0.0, SVG Export Plug-In . SVG Version: 6.00 Build 0)  -->
<!DOCTYPE svg PUBLIC "-//W3C//DTD SVG 1.1//EN" "http://www.w3.org/Graphics/SVG/1.1/DTD/svg11.dtd">
<svg version="1.1" id="Capa_1" xmlns="http://www.w3.org/2000/svg" xmlns:xlink="http://www.w3.org/1999/xlink" x="0px" y="0px"
	 width="142.181px" height="142.181px" viewBox="0 0 142.181 142.181" style="enable-background:new 0 0 142.181 142.181;"
	 xml:space="preserve">
<g>
	<path d="M122.087,30.125h-11.12V14.393h10.737c1.271,0,2.303-1.029,2.303-2.298c0-1.275-1.032-2.304-2.303-2.304H95.613
		c-1.275,0-2.31,1.028-2.31,2.304c0,1.269,1.04,2.298,2.31,2.298h10.748v15.732H95.235c-1.275,0-2.304,1.028-2.304,2.303V98.81
		c0,7.885,5.849,14.375,13.43,15.502v25.565c0,1.28,1.032,2.304,2.297,2.304c1.28,0,2.309-1.032,2.309-2.304v-25.565
		c7.573-1.122,13.423-7.611,13.423-15.502V32.429C124.39,31.16,123.356,30.125,122.087,30.125z M119.771,34.727v37.992h-8.82V34.727
		H119.771z M106.349,34.727v37.992h-8.831V34.727H106.349z M108.649,109.945c-6.14,0-11.132-4.996-11.132-11.123V77.326h22.265
		v21.496C119.771,104.949,114.789,109.945,108.649,109.945z M77.276,24.833V10.19c0-13.587-49.307-13.587-49.307,0v14.638
		c-6.565,2.55-10.178,6.085-10.178,10.09v68.083c0,9.105,17.948,14.009,34.831,14.009c16.895,0,34.826-4.908,34.826-14.009V34.918
		C87.448,32.057,85.579,28.057,77.276,24.833z M32.568,26.848c0.067-0.312,0.073-0.619,0-0.936v-9.445
		c4.711,2.693,12.404,4.077,20.049,4.077c7.641,0,15.34-1.384,20.054-4.077v11.36c0,2.03-7.618,5.751-20.054,5.751
		c-12.441,0-20.049-3.721-20.049-5.751V26.848z M52.622,4.45c12.439,0,20.055,3.721,20.055,5.74c0,2.025-7.616,5.746-20.055,5.746
		c-12.44,0-20.049-3.721-20.049-5.746C32.573,8.171,40.177,4.45,52.622,4.45z M28.315,29.654c2.017,5.598,13.201,8.521,24.302,8.521
		c11.105,0,22.306-2.928,24.305-8.537c4.305,1.893,5.924,3.901,5.924,5.269c0,3.929-11.505,9.407-30.229,9.407
		c-18.728,0-30.226-5.483-30.226-9.407C22.404,33.233,24.661,31.285,28.315,29.654z M52.622,112.413
		c-18.728,0-30.225-5.483-30.225-9.412V42.142c6.417,4.443,18.559,6.785,30.225,6.785c11.656,0,23.816-2.342,30.23-6.785v60.859
		C82.853,106.93,71.342,112.413,52.622,112.413z M74.683,63.181c0.265-0.126,0.509-0.306,0.723-0.525
		c0.771-0.766,1.013-1.861,0.732-2.834c-0.125-0.449-0.377-0.875-0.732-1.231c-0.63-0.635-1.483-0.909-2.297-0.833
		c0.077-0.82-0.202-1.674-0.829-2.309c-0.349-0.35-0.792-0.596-1.232-0.727c-0.978-0.285-2.074-0.039-2.843,0.727
		c-0.219,0.226-0.391,0.466-0.531,0.728c-0.646,1.023-0.618,2.939-0.448,4.526l-3.564,3.551c-0.661-0.8-1.457-1.533-2.425-2.15
		c-1.837-1.177-3.939-2.194-8.445-2.266c-2.862-0.044-7.011,0.498-10.113,3.743l-2.885-2.883c0.161-1.581,0.191-3.502-0.456-4.525
		c-0.127-0.256-0.308-0.509-0.528-0.728c-0.765-0.766-1.858-1.013-2.833-0.728c-0.449,0.132-0.873,0.373-1.238,0.728
		c-0.629,0.629-0.903,1.482-0.824,2.299c-0.826-0.072-1.676,0.202-2.309,0.831c-0.347,0.361-0.588,0.788-0.728,1.236
		c-0.28,0.979-0.035,2.068,0.728,2.835c0.225,0.224,0.465,0.399,0.733,0.52c1.027,0.651,2.937,0.625,4.524,0.459l3.46,3.469
		c-0.306,0.651-0.583,1.347-0.818,2.118c0,0-1.253,4.257,0.668,10.167c0,0,0.185,1.734-0.985,2.954
		c-0.936,0.991-1.851,4.126,1.053,5.336l-3.378,3.381c-1.583-0.164-3.503-0.196-4.528,0.461c-0.264,0.125-0.509,0.305-0.722,0.532
		c-0.77,0.758-1.015,1.854-0.735,2.826c0.135,0.455,0.376,0.876,0.735,1.237c0.626,0.629,1.471,0.908,2.295,0.82
		c-0.077,0.827,0.201,1.681,0.831,2.315c0.353,0.345,0.789,0.598,1.238,0.722c0.976,0.284,2.068,0.044,2.833-0.722
		c0.22-0.219,0.395-0.466,0.528-0.733c0.647-1.018,0.617-2.933,0.449-4.523l5.25-5.244c0.353,0.65,0.766,1.958,0.985,4.568
		c0,0,0.14,1.872,1.77,1.582c0,0,0.838-0.055,0.994-3.601c0,0,0.936-0.881,0.877,1.237c0,0-0.247,2.456,1.331,2.314
		c0,0,0.878,0.543,1.226-2.168c0,0,0-2.363,0.843-1.482c0,0,0.241,3.452,1.231,3.792c0,0,1.422,0.454,1.669-1.434
		c0,0-0.005-2.998,0.796-2.451c0,0,0.292,0.191,0.348,2.014c0,0-0.049,1.921,1.177,1.816c0,0,1.282,0,1.629-2.943
		c0,0-0.219-3.311,1.448-3.864l5.866,5.863c-0.17,1.584-0.197,3.501,0.443,4.523c0.134,0.263,0.317,0.515,0.536,0.729
		c0.769,0.776,1.865,1.018,2.843,0.732c0.44-0.13,0.872-0.377,1.232-0.732c0.627-0.625,0.906-1.479,0.824-2.293
		c0.818,0.07,1.672-0.209,2.302-0.838c0.355-0.351,0.597-0.782,0.732-1.229c0.28-0.971,0.038-2.069-0.732-2.83
		c-0.22-0.225-0.466-0.4-0.733-0.536c-1.021-0.641-2.925-0.619-4.518-0.453l-3.805-3.805c0.394-0.323,0.688-0.756,0.812-1.336
		c0,0,0.818-1.887-1.214-4.29c0,0-0.55-2.33,0.118-4.796c0.588-2.194,0.768-5.605-0.315-8.796l4.4-4.399
		C71.737,63.8,73.656,63.827,74.683,63.181z M45.764,84.276c-0.572-0.12-1.076-0.323-1.529-0.586
		c-1.476-0.864-2.326-2.424-2.001-3.979c0.409-2.041,2.668-3.293,5.031-2.812c0.992,0.202,1.823,0.683,2.456,1.308
		c0.866,0.88,1.321,2.062,1.074,3.25C50.393,83.488,48.128,84.751,45.764,84.276z M54.259,86.985
		c-0.171,0.119-0.359,0.196-0.567,0.196c-0.369,0-0.694-0.224-0.908-0.574c-0.219,0.345-0.542,0.574-0.909,0.574
		c-0.199,0-0.396-0.077-0.562-0.196c-0.367-0.27-0.607-0.794-0.607-1.385c0-0.164,0.019-0.334,0.057-0.481
		c0.203-1.22,2.022-2.751,2.022-2.751s1.823,1.531,2.025,2.751c0.038,0.153,0.055,0.317,0.055,0.481
		C54.864,86.191,54.623,86.716,54.259,86.985z M62.103,83.001c-0.621,0.609-1.445,1.067-2.417,1.275
		c-0.793,0.158-1.567,0.114-2.267-0.093c-1.396-0.378-2.488-1.38-2.769-2.73c0,0,0-0.012,0-0.028
		c-0.295-1.521,0.521-3.059,1.95-3.923c0.465-0.284,1.002-0.493,1.585-0.613c2.365-0.481,4.623,0.777,5.039,2.813
		C63.481,80.916,63.012,82.115,62.103,83.001z"/>
</g>
<g>
</g>
<g>
</g>
<g>
</g>
<g>
</g>
<g>
</g>
<g>
</g>
<g>
</g>
<g>
</g>
<g>
</g>
<g>
</g>
<g>
</g>
<g>
</g>
<g>
</g>
<g>
</g>
<g>
</g>
</svg>
