<?xml version="1.0" encoding="iso-8859-1"?>
<!-- Generator: Adobe Illustrator 16.0.0, SVG Export Plug-In . SVG Version: 6.00 Build 0)  -->
<!DOCTYPE svg PUBLIC "-//W3C//DTD SVG 1.1//EN" "http://www.w3.org/Graphics/SVG/1.1/DTD/svg11.dtd">
<svg version="1.1" id="Capa_1" xmlns="http://www.w3.org/2000/svg" xmlns:xlink="http://www.w3.org/1999/xlink" x="0px" y="0px"
	 width="168.094px" height="168.094px" viewBox="0 0 168.094 168.094" style="enable-background:new 0 0 168.094 168.094;"
	 xml:space="preserve">
<g>
	<path d="M166.655,16.457H1.45c-0.812,0-1.45,0.657-1.45,1.444v132.291c0,0.79,0.638,1.444,1.45,1.444h29.182
		c0.417,0,0.796-0.164,1.084-0.481c0.267-0.284,0.407-0.711,0.369-1.105c-0.058-0.569-0.332-1.127-0.399-1.706h104.741
		c-0.071,0.579-0.345,1.137-0.393,1.706c-0.046,0.395,0.098,0.821,0.365,1.105c0.279,0.317,0.667,0.481,1.072,0.481h29.178
		c0.816,0,1.443-0.654,1.443-1.444V17.896C168.1,17.114,167.467,16.457,166.655,16.457z M139.108,137.005
		c-0.108-0.038-0.085-0.197-0.184-0.197H28.97c-2.305-7.616-5.412-15.043-10.169-21.768c-2.001-2.829-4.203-5.516-6.551-8.055
		C23.73,99.09,32.866,86.724,38.08,72.036c3.229-9.127,4.673-18.9,4.219-28.441c5.645,3.809,12.067,6.673,18.942,8.61v81.046
		c0,0.619,0.38,1.155,0.963,1.362c0.155,0.061,0.33,0.083,0.481,0.083c0.427,0,0.85-0.197,1.137-0.542l10.202-12.723l10.771-5.122
		l6.575,7.53l3.986,3.074c0.032,0,0.02,0.065,0.065,0.065c0,0,0,0,0.02,0l9.105,6.994c0.405,0.34,1.029,0.34,1.521,0.131
		c0.494-0.263,0.815-0.766,0.815-1.303V52.323c0-0.537-0.542-0.744-0.989-0.996c7.957-2.624,15.189-6.512,21.186-11.622
		c-1.116,10.651,0.232,21.734,3.995,32.336c3.885,11.029,10.528,20.039,18.211,27.535c0,0.033,0,0.033,0,0.033
		c0,0.021,0.046,0.021,0.046,0.021c2.353,2.311,4.343,5.09,6.958,6.938c-2.583,2.726-4.87,5.516-6.972,8.471
		C144.516,121.825,141.386,129.3,139.108,137.005z M2.909,101.284h11.706c-1.76,1.477-3.481,3.003-5.386,4.235
		c-0.369,0.219-0.61,0.617-0.667,1.05c-0.042,0.427,0.102,0.875,0.399,1.192c0.525,0.549,0.952,1.194,1.461,1.763H2.909V101.284
		L2.909,101.284z M68.085,53.171v46.087c0,0.284,0.287,0.428,0.427,0.635c0.075,0.139-0.117,0.285,0,0.389
		c0.101,0.093,0.241,0.093,0.353,0.138c0.075,0.06,0.039,0.142,0.112,0.164c0.185,0.087,0.37,0.113,0.556,0.113
		c0.369,0,0.74-0.136,1.023-0.426l0.686-0.679v20.657l-7.106,8.843V52.627C65.419,52.906,66.792,52.906,68.085,53.171z
		 M75.336,54.168v25.148c-1.637,0.446-2.755,1.018-2.755,1.642c0,0.621,1.118,1.193,2.755,1.652v8.774l-4.347,4.339v-42.16
		C72.433,53.765,73.864,54.044,75.336,54.168z M93.354,121.716l-5.822-6.708c2.941-1.073,5.317-3.382,5.317-6.697V97.366
		c0-1.161-0.765-2.008-1.246-3.01l0.818-0.789l1.983,1.982c-0.106,0.185-0.43,0.185-0.43,0.416v26.242L93.354,121.716z
		 M85.188,113.07c-0.613,0-1.04-0.427-1.577-0.646h3.154C86.229,112.644,85.801,113.07,85.188,113.07z M89.96,108.299
		c0,0.517-0.393,0.849-0.559,1.329c-0.054,0-0.044-0.112-0.118-0.112h-8.369c-0.143-0.429-0.51-0.746-0.51-1.228v-7.014h9.546
		L89.96,108.299L89.96,108.299z M78.234,85.653c0.415,2.493,1.565,4.316,3.314,5.536c-0.558,0.344-1.326,0.29-1.792,0.749
		l-1.449-1.461c-0.011-0.021-0.058,0.032-0.073,0V85.653z M90.969,90.909l-0.835,0.821c-0.459-0.396-1.136-0.396-1.673-0.68
		c1.238-0.963,1.938-2.216,2.508-3.896V90.909L90.969,90.909z M85.188,89.684c-0.187,0-0.295,0.175-0.481,0.208
		c-2.201-0.143-4.079-2.676-4.079-5.745c0-0.252,0.172-0.387,0.199-0.617c1.277,0.088,2.603,0.167,4.034,0.167
		c1.433,0,2.756-0.09,4.043-0.167c0.021,0.229,0.191,0.364,0.191,0.617c0,2.929-1.741,5.241-3.81,5.569
		C85.239,89.716,85.221,89.684,85.188,89.684z M84.707,92.78c0.057,0,0.099,0.099,0.154,0.099c0.187,0,0.285-0.229,0.458-0.229
		c2.562,0.087,4.641,2.134,4.641,4.717v1.033h-9.546v-1.033C80.414,94.911,82.323,93.059,84.707,92.78z M74.053,96.792l3.229-3.234
		l1.111,1.1c0.071,0.055,0.167-0.06,0.24,0c-0.383,0.908-1.121,1.642-1.121,2.687v1.035h-0.156c-0.812,0-1.454,0.65-1.454,1.444
		c0,0.804,0.642,1.461,1.454,1.461h0.156v7.015c0,0.712,0.571,1.171,0.738,1.79c-0.354,0.29-0.867,0.389-0.867,0.875
		c0,0.804,0.638,1.456,1.449,1.456h0.383c0.684,0.962,1.461,1.526,2.499,2.101l-7.575,3.49V96.873
		C74.139,96.812,74.053,96.852,74.053,96.792z M96.876,98.012l2.255,2.271c0.273,0.289,0.646,0.428,1.028,0.428
		c0.186,0,0.372-0.039,0.559-0.116c0.547-0.219,0.897-0.733,0.897-1.335V53.686c0-0.572-0.547-0.78-1.005-1.031
		c1.344-0.314,2.723-0.589,4.048-0.999c-0.229,0.265-0.668,0.287-0.668,0.651v77.52l-7.102-5.429V98.001h-0.013V98.012z
		 M98.715,53.686v42.049l-4.848-4.825v-8.131c1.98-0.482,3.261-1.097,3.261-1.809c0-0.711-1.289-1.335-3.261-1.816V54.2
		c1.905-0.285,3.709-0.788,5.559-1.215C99.163,53.227,98.715,53.281,98.715,53.686z M90.969,72.356
		c-1.457-1.204-3.45-1.849-6.107-1.849c-3.147,0-5.334,0.93-6.627,2.779V54.558c1.378,0.091,2.628,0.572,4.023,0.572
		c2.952,0,5.83-0.369,8.711-0.711V72.356z M133.812,71.078c-4.08-11.48-5.21-23.562-3.306-34.947
		c0.099-0.602-0.196-1.233-0.774-1.521c-0.58-0.339-1.25-0.228-1.688,0.265c-11.119,11.021-27.817,17.366-45.792,17.366
		c-4.036,0-8.002-0.348-11.868-0.972c-0.269-0.342-0.38-0.846-0.852-0.846c-0.298,0-0.298,0.364-0.527,0.545
		c-1.76-0.315-3.451-0.775-5.16-1.202c-0.187-0.574-0.509-1.16-1.167-1.16c-0.416,0-0.469,0.449-0.738,0.742
		c-7.548-2.164-14.537-5.437-20.43-9.869c-0.511-0.348-1.095-0.386-1.592-0.118c-0.498,0.288-0.796,0.852-0.74,1.426
		c0.926,10.096-0.409,20.58-3.848,30.29c-3.527,9.924-9.014,18.562-15.686,25.522c11.066-38.316,0.623-73.578-0.542-77.235h129.978
		c-1.149,3.625-11.28,38.052-0.91,75.779C142.109,88.408,137.085,80.312,133.812,71.078z M16.272,19.354
		c0.011,0.112-0.173,0.14-0.128,0.251c0.128,0.37,12.873,38.674-0.012,79.096c-0.028,0.076,0.124,0.137,0.112,0.213
		c-0.229-0.137-0.229-0.535-0.537-0.535h-5.028c6.083-15.629,0.77-36.432,0.528-37.342c-0.201-0.807-1.009-1.332-1.775-1.026
		c-0.785,0.197-1.24,0.993-1.043,1.754c0.056,0.219,5.642,21.797-0.78,36.596H2.914V19.343h13.363v0.011H16.272z M2.909,148.737
		v-36.312h9.621c0.084,0,0.084-0.131,0.168-0.164c1.237,1.515,2.6,2.9,3.726,4.487c6.903,9.685,11.234,20.75,12.602,31.999
		L2.909,148.737L2.909,148.737z M136.646,145.442H31.167c-0.075,0-0.058,0.11-0.128,0.138c-0.327-1.987-0.882-3.913-1.38-5.888
		h108.806c-0.515,2.04-1.106,4.076-1.434,6.117C136.844,145.749,136.856,145.442,136.646,145.442z M165.199,148.737h-26.091
		c1.357-11.252,5.691-22.287,12.61-32.001c2.307-3.294,4.879-6.357,7.867-9.378c0.295-0.312,0.448-0.74,0.406-1.161
		c-0.041-0.427-0.29-0.818-0.635-1.083c-2.656-1.762-5.122-3.808-7.488-5.997c0.014-0.153,0.266-0.252,0.209-0.405
		c-12.887-40.427-0.132-78.731-0.01-79.095c0.042-0.117-0.144-0.134-0.122-0.251h13.267L165.199,148.737L165.199,148.737z
		 M159.073,99.752c-6.952-15.751-1.229-37.768-0.986-38.709c0.22-0.802,1.019-1.368,1.771-1.02c0.788,0.196,1.25,0.987,1.054,1.758
		c-0.056,0.219-5.705,21.968,0.831,36.767c0.326,0.744-0.013,1.587-0.757,1.938c-0.176,0.086-0.372,0.108-0.578,0.108
		C159.848,100.594,159.312,100.282,159.073,99.752z"/>
</g>
<g>
</g>
<g>
</g>
<g>
</g>
<g>
</g>
<g>
</g>
<g>
</g>
<g>
</g>
<g>
</g>
<g>
</g>
<g>
</g>
<g>
</g>
<g>
</g>
<g>
</g>
<g>
</g>
<g>
</g>
</svg>
