<?xml version="1.0" encoding="iso-8859-1"?>
<!-- Generator: Adobe Illustrator 16.0.0, SVG Export Plug-In . SVG Version: 6.00 Build 0)  -->
<!DOCTYPE svg PUBLIC "-//W3C//DTD SVG 1.1//EN" "http://www.w3.org/Graphics/SVG/1.1/DTD/svg11.dtd">
<svg version="1.1" id="Capa_1" xmlns="http://www.w3.org/2000/svg" xmlns:xlink="http://www.w3.org/1999/xlink" x="0px" y="0px"
	 width="156.105px" height="156.105px" viewBox="0 0 156.105 156.105" style="enable-background:new 0 0 156.105 156.105;"
	 xml:space="preserve">
<g>
	<path d="M153.899,98.573c-0.459-0.153-0.962,0.076-1.136,0.536c-9.348,24.36-33.156,40.722-59.23,40.722
		c-16.543,0-28.927-6.271-36.829-18.637c0.224-0.022,0.438-0.045,0.646-0.045l0.48-0.02c4.856-0.134,9.049-0.253,10.641-2.88
		c1.108-1.827,1.244-3.688,1.343-5.188c0.086-1.105,0.142-2.068,0.567-2.703c0.427-0.646,0.909-0.985,1.464-1.019
		c1.13-0.055,2.915,1.149,4.722,3.251c-0.208,0.493-0.32,1.029-0.32,1.549c0,2.237,1.829,4.076,4.065,4.076
		c2.243,0,4.071-1.827,4.071-4.076c0-2.053-1.531-3.765-3.519-4.028l-1.438-2.686c-0.477-0.953-0.556-1.773-0.206-2.484
		c0.563-1.193,2.386-2.266,4.902-2.9c0.715,0.569,1.593,0.87,2.504,0.87c2.244,0,4.071-1.827,4.071-4.066
		c0-2.243-1.827-4.071-4.071-4.071c-1.901,0-3.521,1.325-3.938,3.131l-2.293,0.565c-1,0.03-1.625-0.139-1.829-0.484
		c-0.235-0.403-0.123-1.438,0.845-3.144c1.957-0.298,3.473-1.988,3.473-4.019c0-2.243-1.82-4.071-4.071-4.071
		c-2.246,0-4.061,1.828-4.061,4.071c0,0.745,0.202,1.466,0.595,2.101l-0.154,0.428c-0.375,0.888-0.658,1.247-0.809,1.379
		c-0.182-0.22-0.518-0.821-0.854-2.102c0.706-0.756,1.111-1.74,1.111-2.769c0-2.244-1.827-4.071-4.068-4.071
		c-2.242,0-4.074,1.827-4.074,4.071c0,1.904,1.326,3.524,3.143,3.94l0.348,1.98c0.152,0.984,0.023,1.312,0.044,1.346
		c-0.111,0.012-0.385-0.044-0.913-0.339c0-0.045,0-0.088,0-0.13c0-2.245-1.814-4.072-4.062-4.072c-2.249,0-4.067,1.827-4.067,4.072
		c0,2.247,1.818,4.068,4.067,4.068c0.354,0,0.711-0.054,1.059-0.146l0.369,0.459c-1.26,7.142-3.289,11.519-5.876,12.652
		c-1.508,0.667-3.257,0.3-5.5-1.145c-0.166-0.12-0.368-0.246-0.593-0.372c-1.086-0.656-2.573-1.564-3.472-2.933
		c-4.982-7.617-4.389-18.878-3.812-29.757l0.145-3.028c0.481-9.935,2.764-21.095,15.791-28.879c0.42,0.937,0.667,1.973,0.694,2.979
		l0.021,0.495c0.134,4.851,0.25,9.042,2.877,10.635c1.834,1.113,3.7,1.243,5.197,1.344c1.097,0.079,2.054,0.14,2.694,0.566
		c0.647,0.427,0.984,0.903,1.015,1.464c0.065,1.166-1.139,2.914-3.239,4.722c-0.5-0.208-1.03-0.314-1.56-0.314
		c-2.24,0-4.07,1.822-4.07,4.063c0,2.242,1.824,4.069,4.07,4.069c2.052,0,3.751-1.525,4.026-3.52l2.688-1.444
		c0.952-0.476,1.767-0.55,2.479-0.208c1.194,0.567,2.265,2.386,2.905,4.904c-0.575,0.71-0.87,1.583-0.87,2.508
		c0,2.237,1.83,4.066,4.071,4.066c2.243,0,4.071-1.829,4.071-4.066c0-1.898-1.325-3.519-3.142-3.943l-0.556-2.292
		c-0.033-0.974,0.141-1.625,0.479-1.827c0.412-0.235,1.434-0.128,3.152,0.842c0.284,1.96,1.98,3.478,4.016,3.478
		c2.232,0,4.071-1.825,4.071-4.069c0-2.241-1.825-4.065-4.061-4.065c-0.749,0-1.466,0.206-2.106,0.6l-0.41-0.151
		c-0.885-0.383-1.248-0.673-1.388-0.815c0.219-0.178,0.818-0.515,2.101-0.856c0.753,0.711,1.746,1.111,2.778,1.111
		c2.237,0,4.062-1.823,4.062-4.062c0-2.241-1.817-4.069-4.062-4.069c-1.919,0-3.529,1.327-3.95,3.133l-1.971,0.353
		c-0.383,0.055-0.667,0.075-0.873,0.075c-0.331,0-0.462-0.053-0.484-0.031c-0.005-0.102,0.056-0.396,0.351-0.914
		c2.31,0.09,4.191-1.774,4.191-4.06c0-2.244-1.816-4.069-4.058-4.069c-2.246,0-4.071,1.825-4.071,4.069
		c0,0.359,0.053,0.711,0.141,1.059l-0.458,0.375c-7.13-1.261-11.509-3.289-12.653-5.879c-0.658-1.51-0.294-3.253,1.161-5.494
		c2.387-3.688,4.405-6.052,6.007-7.012c1.647-0.991,3.809-1.267,6.097-1.557c0.948-0.124,1.915-0.247,2.877-0.427
		c9.894-1.803,11.459,1.111,14.293,6.406c1.927,3.58,4.323,8.04,10.024,12.316c0.045,0.033,0.106,0.043,0.144,0.066
		c0.398,6.002,5.39,10.771,11.491,10.771c2.517,0,4.837-0.818,6.737-2.192c4.179,1.379,9.186,2.679,13.204,2.679
		c1.93,0,3.634-0.299,4.89-1.037c7.579-4.382,3.502-18.109,2.432-21.321c2.438-2.113,3.982-5.226,3.982-8.695
		c0-5.502-3.875-10.115-9.04-11.259c-0.022-0.096-0.044-0.188-0.093-0.279C131.94,2.613,94.815,0,79.481,0
		C36.445,0,1.428,35.015,1.428,78.05c0,43.034,35.017,78.056,78.053,78.056c34.577,0,65.406-23.201,74.987-56.406
		C154.623,99.213,154.365,98.72,153.899,98.573z M113.741,57.357c0-5.357,4.351-9.714,9.715-9.714c5.35,0,9.711,4.357,9.711,9.714
		s-4.361,9.716-9.711,9.716C118.092,67.073,113.741,62.715,113.741,57.357z M152.882,38.323c0,3.042-1.434,5.727-3.62,7.508
		c-0.144,0.068-0.252,0.161-0.35,0.278c-1.611,1.197-3.586,1.924-5.737,1.924c-5.362,0-9.718-4.353-9.718-9.71
		s4.355-9.718,9.718-9.718C148.528,28.605,152.882,32.966,152.882,38.323z M79.505,154.277c-42.031,0-76.229-34.2-76.229-76.228
		c0-42.025,34.203-76.228,76.229-76.228c14.829,0,50.408,2.47,63.944,24.996c-0.099,0-0.187-0.017-0.274-0.017
		c-6.369,0-11.544,5.177-11.544,11.538c0,6.358,5.175,11.532,11.544,11.532c2.199,0,4.247-0.63,5.989-1.705
		c1.158,3.699,4.179,15.168-1.773,18.616c-2.465,1.422-8.116,0.867-15.592-1.475c1.976-2.073,3.19-4.865,3.19-7.94
		c0-6.361-5.175-11.533-11.533-11.533c-5.855,0-10.705,4.394-11.438,10.058c-4.739-3.819-6.889-7.781-8.624-11.004
		c-2.92-5.448-5.023-9.379-16.222-7.33c-0.938,0.17-1.868,0.293-2.788,0.411c-2.483,0.317-4.823,0.617-6.802,1.803
		c-2.773,1.664-5.66,6.112-6.601,7.582c-0.655,1.02-2.661,4.111-1.29,7.222c1.458,3.312,6.175,5.604,14.427,7.005
		c0.257,0.038,0.523-0.027,0.726-0.197l1.282-1.053c0.321-0.262,0.416-0.711,0.239-1.091c-0.141-0.315-0.23-0.641-0.23-0.958
		c0-1.238,1.019-2.249,2.251-2.249c1.229,0,2.247,1.011,2.247,2.249c0,1.237-1.018,2.246-2.247,2.246
		c-0.149,0-0.286-0.015-0.424-0.043c-0.36-0.074-0.72,0.082-0.93,0.38c-0.972,1.434-1.19,2.525-0.678,3.337
		c0.743,1.18,2.573,0.898,3.2,0.802l2.646-0.471c0.416-0.077,0.72-0.432,0.747-0.851c0.056-1.197,1.037-2.14,2.228-2.14
		c1.237,0,2.245,1.007,2.245,2.248c0,1.235-1.018,2.246-2.245,2.246c-0.689,0-1.324-0.315-1.751-0.868
		c-0.219-0.276-0.58-0.399-0.919-0.32c-2.682,0.616-3.968,1.445-4.082,2.599c-0.115,1.316,1.389,2.137,2.582,2.651l0.92,0.336
		c0.295,0.112,0.631,0.056,0.883-0.145c0.29-0.235,0.77-0.511,1.4-0.511c1.242,0,2.247,1.009,2.247,2.246
		c0,1.239-1.018,2.249-2.247,2.249c-1.223,0-2.227-0.998-2.24-2.219c-0.011-0.314-0.164-0.599-0.438-0.763
		c-2.364-1.439-4.181-1.803-5.404-1.086c-0.976,0.572-1.434,1.737-1.349,3.636l0.729,3.064c0.093,0.388,0.421,0.673,0.815,0.701
		c1.182,0.073,2.112,1.053,2.112,2.23c0,1.236-1.013,2.242-2.242,2.242c-1.247,0-2.251-1.006-2.251-2.242
		c0-0.613,0.243-1.177,0.687-1.606c0.225-0.219,0.317-0.544,0.249-0.848c-0.436-1.965-1.542-5.439-3.998-6.599
		c-1.232-0.583-2.609-0.518-4.103,0.235l-3.149,1.69c-0.298,0.159-0.476,0.481-0.476,0.819c0,1.238-1.015,2.246-2.246,2.246
		c-1.235,0-2.244-1.008-2.244-2.246c0-1.237,1.009-2.248,2.244-2.248c0.413,0,0.829,0.124,1.193,0.353
		c0.336,0.214,0.761,0.186,1.058-0.068c2.063-1.686,4.487-4.202,4.358-6.61c-0.047-0.796-0.395-1.946-1.836-2.887
		c-1.048-0.678-2.271-0.76-3.576-0.851c-1.433-0.101-2.919-0.203-4.363-1.089c-1.784-1.08-1.886-4.807-2.008-9.133l-0.011-0.493
		c-0.049-1.614-0.537-3.267-1.371-4.661c-0.261-0.422-0.803-0.567-1.228-0.327c-14.519,8.238-17.007,20.216-17.522,30.849
		l-0.156,3.018c-0.583,11.174-1.201,22.725,4.108,30.845c1.119,1.719,2.884,2.779,4.048,3.492c0.208,0.119,0.395,0.229,0.556,0.35
		c1.025,0.656,4.112,2.653,7.223,1.291c3.325-1.467,5.609-6.173,7.004-14.424c0.052-0.252-0.028-0.526-0.192-0.723l-1.053-1.28
		c-0.263-0.328-0.712-0.426-1.092-0.241c-1.529,0.734-3.198-0.459-3.198-2.023c0-1.237,1.008-2.244,2.241-2.244
		c1.245,0,2.246,1.012,2.246,2.244c0,0.142-0.016,0.284-0.042,0.415c-0.081,0.361,0.076,0.733,0.374,0.942
		c1.434,0.962,2.528,1.182,3.346,0.666c1.177-0.744,0.889-2.571,0.8-3.206l-0.476-2.627c-0.072-0.416-0.424-0.733-0.852-0.753
		c-1.198-0.057-2.134-1.03-2.134-2.223c0-1.237,1.013-2.244,2.246-2.244c1.235,0,2.241,1.012,2.241,2.244
		c0,0.678-0.312,1.312-0.857,1.751c-0.273,0.219-0.404,0.574-0.33,0.919c0.615,2.676,1.453,3.972,2.599,4.077
		c1.293,0.113,2.142-1.391,2.656-2.572l0.336-0.92c0.117-0.307,0.062-0.629-0.14-0.881c-0.233-0.29-0.517-0.771-0.517-1.401
		c0-1.252,1.016-2.254,2.248-2.254c1.229,0,2.247,1.007,2.247,2.254c0,1.215-0.996,2.217-2.22,2.239
		c-0.314,0-0.591,0.158-0.763,0.432c-1.434,2.37-1.797,4.182-1.086,5.401c0.577,0.973,1.737,1.434,3.636,1.351l3.064-0.722
		c0.394-0.098,0.673-0.438,0.701-0.826c0.07-1.182,1.056-2.113,2.232-2.113c1.236,0,2.237,1.013,2.237,2.25
		c0,1.236-1.005,2.243-2.237,2.243c-0.607,0-1.177-0.24-1.609-0.689c-0.225-0.219-0.542-0.317-0.847-0.241
		c-1.966,0.438-5.435,1.544-6.601,3.995c-0.588,1.237-0.515,2.616,0.235,4.104l1.691,3.151c0.169,0.328,0.503,0.515,0.882,0.481
		c1.21,0.033,2.182,1.028,2.182,2.238c0,1.242-1.005,2.249-2.237,2.249c-1.244,0-2.25-1.007-2.25-2.249
		c0-0.411,0.118-0.814,0.348-1.192c0.21-0.335,0.182-0.761-0.065-1.056c-1.688-2.059-4.218-4.467-6.613-4.356
		c-0.806,0.043-1.955,0.394-2.897,1.838c-0.673,1.04-0.759,2.267-0.845,3.568c-0.105,1.434-0.208,2.921-1.085,4.367
		c-1.079,1.783-4.816,1.882-9.147,2.013l-0.481,0.011c-0.705,0.022-1.478,0.138-2.285,0.356c-0.275,0.065-0.5,0.273-0.602,0.538
		c-0.108,0.267-0.086,0.562,0.069,0.803c8.213,13.674,21.361,20.618,39.069,20.618c21.045,0,40.668-10.375,52.783-26.944
		C133.125,138.616,107.576,154.277,79.505,154.277z M143.17,34.539c3.212,0,5.822,2.607,5.822,5.822c0,3.218-2.61,5.822-5.822,5.822
		c-3.218,0-5.822-2.604-5.822-5.822C137.348,37.146,139.952,34.539,143.17,34.539z M130.376,59.669
		c-0.112,3.212-2.796,5.73-6.001,5.628c-3.22-0.106-5.731-2.796-5.627-6.007c0.109-3.215,2.793-5.733,6.002-5.626
		C127.971,53.771,130.479,56.46,130.376,59.669z"/>
</g>
<g>
</g>
<g>
</g>
<g>
</g>
<g>
</g>
<g>
</g>
<g>
</g>
<g>
</g>
<g>
</g>
<g>
</g>
<g>
</g>
<g>
</g>
<g>
</g>
<g>
</g>
<g>
</g>
<g>
</g>
</svg>
