<?xml version="1.0" encoding="iso-8859-1"?>
<!-- Generator: Adobe Illustrator 16.0.0, SVG Export Plug-In . SVG Version: 6.00 Build 0)  -->
<!DOCTYPE svg PUBLIC "-//W3C//DTD SVG 1.1//EN" "http://www.w3.org/Graphics/SVG/1.1/DTD/svg11.dtd">
<svg version="1.1" id="Capa_1" xmlns="http://www.w3.org/2000/svg" xmlns:xlink="http://www.w3.org/1999/xlink" x="0px" y="0px"
	 width="207.402px" height="207.402px" viewBox="0 0 207.402 207.402" style="enable-background:new 0 0 207.402 207.402;"
	 xml:space="preserve">
<g>
	<path d="M200.719,116.391c-3.581-4.019-8.294-6.588-13.567-7.514c2.898-0.183,4.933-0.609,4.933-1.108
		c0-0.548-2.576-1.011-6.047-1.145V90.512h-3.781v16.112c-3.471,0.134-6.059,0.597-6.059,1.145c0,0.365,1.103,0.676,2.801,0.901
		c-2.837,0.316-5.413,0.998-7.781,1.961c2.648-2.631,4.359-6.017,4.773-9.773c0.64-5.772-1.041-11.375-4.609-15.363
		c-2.229-2.509-5.14-4.177-8.354-5.008c1.852-0.216,3.045-0.548,3.045-0.923c0-0.554-2.582-1.017-6.059-1.147V62.304h-3.782v16.112
		c-3.471,0.131-6.046,0.594-6.046,1.147c0,0.393,1.321,0.749,3.324,0.962c-7.039,1.708-11.776,6.826-15.776,12.208
		c-1.176,1.452-3.44,3.447-6.394,1.781c-1.699-0.959-2.314-3.142-1.364-4.85c0.712-1.267,2.32-1.708,3.593-1.005
		c0.42,0.243,0.749,0.648,0.889,1.136c0.134,0.478,0.073,0.989-0.183,1.428c-0.146,0.292-0.414,0.493-0.73,0.591
		c-0.171-0.655-0.768-1.127-1.455-1.023c-0.731,0.122-1.23,0.789-1.127,1.517c0.006,0.036,0.043,0.058,0.049,0.088
		c-0.134,0.472,0,0.983,0.444,1.239c0.822,0.451,1.76,0.569,2.661,0.32c0.895-0.256,1.632-0.843,2.089-1.653
		c0.535-0.947,0.663-2.052,0.377-3.099c-0.292-1.054-0.968-1.924-1.93-2.463c-2.309-1.303-5.268-0.478-6.583,1.848
		c-1.559,2.768-0.578,6.29,2.204,7.843c1.097,0.618,2.211,0.91,3.307,0.91c0.299,0,0.591-0.082,0.883-0.125
		c-0.986,1.394-1.967,2.77-2.989,4.061c-2.351,2.979-4.372,5.456-6.352,7.368c-0.219,0.024-0.45,0.073-0.633,0.231
		c-4.056,3.812-8.3,4.336-11.898,1.461c-2.801-2.24-3.264-6.338-1.047-9.133c1.717-2.162,4.865-2.497,7.002-0.805
		c1.62,1.297,1.9,3.666,0.597,5.298c-0.42,0.536-1.047,0.853-1.687,0.975c0.073-0.22,0.134-0.438,0.134-0.676
		c0-1.2-0.974-2.187-2.186-2.187c-1.218,0-2.192,0.98-2.192,2.187c0,0.353,0.116,0.676,0.256,0.968
		c-0.012,0.341,0.085,0.664,0.371,0.901c2.149,1.705,5.298,1.352,7.015-0.792c2.046-2.575,1.62-6.345-0.949-8.391
		c-3.094-2.46-7.618-1.942-10.084,1.15c-2.85,3.581-2.375,8.727,0.944,11.795c-1.413-0.767-2.655-1.814-3.623-3.172
		c-1.754-2.441-2.467-5.541-1.922-8.507c0.844-4.68,5.295-7.821,10.026-6.969c0.572,0.094,1.175-0.292,1.267-0.893
		c0.109-0.597-0.293-1.169-0.89-1.275c-4.317-0.768-8.476,1.154-10.823,4.54v-6.591c2.92-0.518,5.13-3.051,5.13-6.111
		c0-3.063-2.21-5.593-5.13-6.117v-6.26c2.92-1.354,5.13-7.913,5.13-15.838c0-7.925-2.21-14.474-5.13-15.832v-8.351
		c0-0.609-0.49-1.096-1.096-1.096c-0.618,0-1.103,0.487-1.103,1.096v8.351c-2.914,1.346-5.127,7.901-5.127,15.832
		c0,7.932,2.213,14.496,5.127,15.838v6.26c-2.914,0.518-5.127,3.048-5.127,6.117c0,3.06,2.213,5.593,5.127,6.117v6.604
		c-2.354-3.404-6.543-5.331-10.82-4.552c-0.597,0.113-0.996,0.679-0.898,1.279c0.113,0.597,0.682,0.977,1.279,0.897
		c4.746-0.837,9.191,2.287,10.02,6.967c0.536,2.965-0.155,6.064-1.912,8.5c-0.974,1.364-2.223,2.411-3.635,3.179
		c3.328-3.057,3.815-8.202,0.953-11.801c-2.469-3.087-7.002-3.605-10.083-1.146c-1.239,0.987-2.025,2.412-2.208,3.989
		c-0.174,1.589,0.268,3.147,1.26,4.396c0.828,1.048,2.006,1.688,3.337,1.852c1.34,0.141,2.631-0.231,3.666-1.047
		c0.286-0.231,0.38-0.561,0.368-0.908c0.149-0.292,0.268-0.621,0.268-0.968c0-1.199-0.986-2.186-2.195-2.186
		c-1.19,0-2.183,0.979-2.183,2.186c0,0.237,0.07,0.457,0.131,0.676c-0.654-0.128-1.26-0.444-1.689-0.974
		c-0.63-0.792-0.91-1.772-0.792-2.777c0.119-0.998,0.612-1.887,1.404-2.508c2.137-1.712,5.279-1.358,6.997,0.791
		c2.219,2.801,1.757,6.893-1.047,9.134c-3.599,2.874-7.84,2.351-11.898-1.455c-0.161-0.152-0.393-0.207-0.63-0.231
		c-1.963-1.918-3.997-4.391-6.354-7.362c-1.023-1.29-2-2.679-2.999-4.067c0.292,0.043,0.6,0.125,0.898,0.125
		c1.105,0,2.208-0.305,3.307-0.91c2.761-1.553,3.75-5.075,2.198-7.849c-1.321-2.314-4.262-3.136-6.576-1.839
		c-0.947,0.536-1.641,1.407-1.945,2.46c-0.292,1.056-0.143,2.159,0.387,3.099c0.447,0.81,1.19,1.397,2.088,1.653
		c0.911,0.256,1.839,0.137,2.649-0.316c0.451-0.256,0.587-0.768,0.451-1.242c0.012-0.03,0.048-0.049,0.055-0.088
		c0.106-0.728-0.393-1.407-1.142-1.513c-0.673-0.106-1.291,0.368-1.44,1.023c-0.317-0.1-0.585-0.301-0.746-0.6
		c-0.244-0.429-0.313-0.94-0.17-1.428c0.131-0.487,0.451-0.892,0.892-1.136c1.272-0.703,2.874-0.255,3.586,0.999
		c0.953,1.708,0.347,3.891-1.373,4.856c-2.941,1.653-5.212-0.329-6.378-1.775c-4.022-5.377-8.753-10.507-15.786-12.215
		c2.012-0.213,3.333-0.569,3.333-0.962c0-0.555-2.588-1.017-6.059-1.148V62.31h-3.788v16.112c-3.452,0.131-6.028,0.6-6.028,1.148
		c0,0.38,1.19,0.707,3.03,0.922c-3.215,0.831-6.104,2.494-8.354,5.002c-3.553,3.988-5.237,9.59-4.616,15.369
		c0.426,3.854,2.208,7.223,4.753,9.768c-2.356-0.963-4.92-1.645-7.746-1.949c1.705-0.207,2.801-0.535,2.801-0.9
		c0-0.561-2.582-1.018-6.056-1.151V90.518h-3.778v16.112c-3.477,0.134-6.053,0.591-6.053,1.151c0,0.499,2.037,0.907,4.932,1.096
		c-5.27,0.938-9.983,3.508-13.563,7.514c-5.03,5.627-7.408,13.543-6.516,21.715c0.667,6.131,3.693,11.636,8.491,15.509
		c4.147,3.324,9.192,5.084,14.425,5.084c0.18,0,0.372-0.024,0.561-0.024c0.03,0,0.055,0.024,0.085,0.024c0.052,0,0.101,0,0.14,0
		c0.073-0.012,0.131-0.036,0.198-0.049c0.524-0.024,1.035-0.036,1.559-0.097c4.969-0.536,9.429-2.984,12.559-6.881
		c3.13-3.897,4.545-8.769,4.01-13.737c-0.91-8.317-8.437-14.347-16.736-13.445c-0.612,0.073-1.042,0.621-0.975,1.206
		c0.076,0.609,0.542,1.023,1.212,0.975c7.076-0.768,13.53,4.378,14.31,11.496c0.487,4.384-0.773,8.695-3.522,12.129
		c-0.917,1.146-1.998,2.07-3.145,2.911c2.207-3.222,2.95-7.575,2.003-12.038c-0.661-3.143-2.5-5.84-5.207-7.588
		c-2.694-1.741-5.9-2.338-9.055-1.686c-2.576,0.547-4.795,2.07-6.217,4.28c-1.428,2.21-1.912,4.829-1.37,7.398
		c0.441,2.106,1.69,3.921,3.492,5.097c1.805,1.175,3.97,1.583,6.104,1.139c1.745-0.384,3.254-1.407,4.238-2.917
		c0.563-0.864,0.886-1.827,0.999-2.819c0.198-0.402,0.335-0.847,0.344-1.327c0.03-1.729-1.361-3.148-3.087-3.185
		c-1.729-0.024-3.157,1.369-3.188,3.093c-0.018,1.687,1.309,3.063,2.98,3.154c-0.648,0.932-1.607,1.607-2.731,1.839
		c-1.565,0.348-3.13,0.037-4.445-0.828c-1.315-0.858-2.208-2.174-2.533-3.708c-0.417-1.991-0.049-4.025,1.062-5.748
		c1.114-1.712,2.822-2.887,4.826-3.307c2.57-0.554,5.2-0.067,7.407,1.376c2.208,1.432,3.715,3.629,4.253,6.199
		c0.84,3.921,0.192,7.745-1.741,10.479c-1.626,2.284-4.153,3.739-7.295,4.275c-5.133,0.256-10.083-1.267-14.118-4.506
		c-4.345-3.502-7.088-8.477-7.682-14.029c-0.828-7.563,1.355-14.864,5.967-20.021c4.128-4.628,9.941-7.173,16.343-7.197
		c0.031,0,0.067,0,0.101,0c13.055,0,20.85,8.074,27.66,17.171c0.012,0.024,0,0.049,0.018,0.073c0.055,0.086,0.125,0.134,0.174,0.195
		c1.196,1.619,2.375,3.245,3.535,4.883c0.493,0.688,1.005,1.4,1.504,2.095c-2.521-0.779-5.115-0.414-7.551,1.2
		c-3.574,2.393-4.551,7.233-2.195,10.802c1.233,1.863,3.291,2.874,5.38,2.874c1.23,0,2.469-0.359,3.574-1.09
		c1.196-0.791,2.012-2.016,2.292-3.435c0.283-1.412,0-2.837-0.792-4.024c-1.221-1.827-3.529-2.387-5.493-1.571
		c-0.91,0.091-1.671,0.768-1.75,1.699c-0.088,1.06,0.691,1.985,1.75,2.082c1.06,0.092,1.982-0.688,2.083-1.747
		c0.012-0.08-0.024-0.146-0.024-0.231c0.636,0.097,1.221,0.42,1.607,0.992c0.463,0.694,0.636,1.534,0.463,2.381
		c-0.177,0.841-0.649,1.559-1.374,2.028c-1.952,1.303-4.606,0.767-5.909-1.176c-1.69-2.551-0.987-6.041,1.583-7.752
		c3.331-2.204,6.951-1.437,10.181,2.144c0.012,0.013,0.012,0.013,0.027,0.013c0.042,0.072,0.091,0.128,0.137,0.194
		c9.539,12.021,15.948,19.315,27.417,17.543c4.78-0.73,8.984-3.337,11.846-7.35c0.648-0.901,1.173-1.875,1.633-2.862v7.515
		c-2.911,0.523-5.118,3.044-5.118,6.113s2.207,5.59,5.118,6.114v9.633c0,0.608,0.499,1.107,1.111,1.107
		c0.605,0,1.096-0.499,1.096-1.107v-9.633c2.913-0.524,5.13-3.058,5.13-6.114c0-3.069-2.217-5.59-5.13-6.113v-7.515
		c0.475,0.999,0.998,1.961,1.646,2.875c2.862,4,7.063,6.606,11.844,7.337c11.49,1.735,17.884-5.547,27.413-17.543
		c0.062-0.066,0.11-0.134,0.141-0.194c0.006,0,0.012,0,0.019-0.013c3.239-3.58,6.855-4.335,10.181-2.144
		c2.582,1.711,3.282,5.201,1.583,7.752c-1.303,1.942-3.958,2.479-5.9,1.176c-0.712-0.47-1.193-1.188-1.382-2.016
		c-0.152-0.847,0-1.688,0.475-2.394c0.384-0.572,0.968-0.907,1.607-0.992c0,0.085-0.036,0.151-0.024,0.231
		c0.098,1.059,1.023,1.839,2.083,1.747c1.06-0.097,1.839-1.022,1.741-2.082c-0.085-0.932-0.834-1.632-1.741-1.699
		c-1.949-0.815-4.281-0.256-5.499,1.571c-0.798,1.199-1.077,2.643-0.791,4.049c0.286,1.4,1.102,2.619,2.295,3.429
		c1.108,0.712,2.345,1.071,3.581,1.071c2.088,0,4.141-1.011,5.376-2.874c2.363-3.568,1.395-8.421-2.191-10.802
		c-2.454-1.62-5.048-1.979-7.551-1.2c0.499-0.694,1.005-1.406,1.498-2.095c1.169-1.638,2.338-3.264,3.525-4.883
		c0.061-0.073,0.134-0.128,0.183-0.195c0.019-0.024,0.006-0.049,0.024-0.073c6.808-9.097,14.602-17.171,27.645-17.171
		c0.037,0,0.079,0,0.11,0c6.405,0.024,12.215,2.569,16.343,7.197c4.615,5.157,6.802,12.458,5.974,20.021
		c-1.206,11.039-10.857,19.07-21.817,18.535c-3.13-0.549-5.657-1.973-7.276-4.263c-1.949-2.733-2.576-6.57-1.748-10.491
		c0.555-2.57,2.059-4.78,4.257-6.199c2.21-1.431,4.822-1.93,7.404-1.376c2.003,0.42,3.721,1.607,4.822,3.307
		c1.108,1.704,1.486,3.757,1.06,5.748c-0.316,1.534-1.212,2.85-2.527,3.708c-1.321,0.865-2.892,1.176-4.444,0.828
		c-1.139-0.231-2.083-0.907-2.734-1.839c1.681-0.091,2.99-1.455,2.978-3.154c-0.03-1.724-1.443-3.117-3.185-3.093
		c-1.724,0.036-3.117,1.443-3.094,3.178c0,0.487,0.141,0.926,0.354,1.346c0.116,0.98,0.427,1.955,1.005,2.826
		c0.968,1.491,2.466,2.515,4.226,2.898c2.132,0.444,4.287,0.036,6.102-1.139c1.814-1.176,3.045-2.99,3.495-5.097
		c0.548-2.558,0.067-5.188-1.364-7.398c-1.437-2.21-3.647-3.733-6.217-4.28c-3.124-0.664-6.363-0.074-9.049,1.686
		c-2.691,1.76-4.548,4.445-5.206,7.588c-0.943,4.463-0.2,8.816,1.997,12.051c-1.145-0.854-2.216-1.791-3.142-2.924
		c-2.746-3.439-4.019-7.745-3.525-12.129c0.779-7.118,7.24-12.275,14.315-11.496c0.646,0.049,1.15-0.372,1.212-0.975
		c0.061-0.597-0.384-1.15-0.975-1.206c-8.409-0.901-15.832,5.128-16.739,13.445c-0.548,4.969,0.883,9.84,4.013,13.737
		c3.124,3.896,7.581,6.345,12.544,6.881c0.536,0.072,1.048,0.072,1.559,0.097c0.073,0.013,0.135,0.037,0.207,0.049
		c0.049,0,0.098,0,0.128,0c0.049,0,0.067-0.024,0.098-0.024c0.171,0,0.359,0.024,0.536,0.024c11.624,0,21.659-8.774,22.95-20.593
		C208.116,129.934,205.729,122.018,200.719,116.391z M87.031,126.365c7.002-1.255,13.722,3.422,14.989,10.424
		c0.791,4.385-0.244,8.977-2.838,12.605c-2.207,3.068-5.325,5.127-8.878,6.053c0.792-0.427,1.571-0.926,2.326-1.535
		c5.188-4.128,6.053-11.715,1.933-16.916c-3.392-4.237-9.597-4.943-13.844-1.559c-1.69,1.34-2.749,3.264-2.993,5.42
		c-0.244,2.143,0.368,4.274,1.714,5.955c1.111,1.4,2.701,2.266,4.479,2.473c1.364,0.14,2.731-0.129,3.94-0.78
		c1.254-0.401,2.183-1.546,2.183-2.94c0-1.724-1.41-3.143-3.142-3.143c-1.729,0-3.13,1.419-3.13,3.143
		c0,0.56,0.192,1.071,0.448,1.521c-0.013,0-0.031,0.013-0.049,0.013c-1.193-0.128-2.259-0.73-3.008-1.675
		c-0.971-1.224-1.428-2.771-1.239-4.342c0.167-1.559,0.947-2.965,2.189-3.951c3.279-2.619,8.111-2.083,10.75,1.229
		c3.37,4.238,2.667,10.437-1.58,13.811c-5.386,4.293-11.704,3.544-17.756-2.119c-0.225-0.22-0.53-0.305-0.825-0.292
		c-2.922-2.789-5.873-6.418-9.258-10.693c-1.696-2.143-3.325-4.42-5.015-6.783c0.755,0.22,1.522,0.342,2.314,0.342
		c1.51,0,3.044-0.414,4.552-1.267c3.754-2.107,5.075-6.881,2.987-10.632c-1.751-3.105-5.724-4.214-8.802-2.467
		c-1.255,0.701-2.171,1.863-2.552,3.246c-0.38,1.389-0.207,2.85,0.5,4.092c1.208,2.18,3.976,2.972,6.165,1.742
		c0.083-0.049,0.095-0.135,0.149-0.207c0.405-0.293,0.718-0.743,0.801-1.279c0.143-1.06-0.569-2.021-1.629-2.192
		c-1.047-0.146-2.028,0.573-2.189,1.632c-0.012,0.122,0.012,0.22,0.012,0.342c-0.573-0.152-1.096-0.549-1.416-1.108
		c-0.411-0.743-0.53-1.608-0.298-2.437c0.226-0.828,0.768-1.497,1.51-1.924c2.049-1.139,4.643-0.414,5.809,1.632
		c1.51,2.704,0.557,6.12-2.137,7.648c-3.398,1.912-6.86,0.95-9.752-2.643c-3.337-4.481-6.884-8.732-11.143-12.032
		c1.416,0.396,2.874,0.676,4.408,0.676c0.125,0,0.244-0.012,0.369-0.024c0.024,0,0.037,0.024,0.061,0.024
		c0.052,0,0.101,0,0.131-0.012c0.064,0,0.101-0.025,0.143-0.025c0.368-0.012,0.718-0.023,1.087-0.061
		c3.529-0.384,6.707-2.137,8.954-4.908c2.226-2.776,3.249-6.247,2.85-9.797c-0.648-5.961-6.001-10.288-11.999-9.639
		c-0.609,0.064-1.047,0.612-0.971,1.211c0.067,0.597,0.56,1.014,1.203,0.972c4.713-0.512,9.061,2.938,9.584,7.693
		c0.317,2.953-0.523,5.852-2.396,8.178c-0.21,0.28-0.478,0.499-0.721,0.755c0.84-2.046,1.059-4.487,0.523-6.947
		c-0.475-2.271-1.814-4.22-3.766-5.483c-1.946-1.264-4.29-1.702-6.54-1.215c-1.891,0.398-3.499,1.504-4.534,3.111
		c-1.047,1.602-1.41,3.52-1.011,5.396c0.329,1.547,1.239,2.88,2.57,3.757c1.339,0.87,2.935,1.175,4.494,0.847
		c1.303-0.28,2.433-1.048,3.157-2.174c0.715-1.108,0.971-2.454,0.691-3.758c-0.076-0.316-0.28-0.56-0.548-0.7
		c-0.393-0.487-0.962-0.815-1.647-0.834c-1.203-0.013-2.195,0.95-2.208,2.155c-0.012,1.041,0.719,1.882,1.69,2.113
		c-0.405,0.518-0.941,0.895-1.596,1.035c-0.986,0.207-1.997,0.024-2.837-0.523c-0.843-0.549-1.422-1.389-1.629-2.369
		c-0.268-1.297-0.024-2.631,0.694-3.751c0.722-1.114,1.851-1.875,3.142-2.155c1.696-0.359,3.446-0.037,4.896,0.913
		c1.452,0.95,2.454,2.399,2.804,4.093c0.569,2.643,0.137,5.199-1.154,7.026c-1.083,1.51-2.743,2.466-4.832,2.825
		c-7.371,0.354-13.965-5.09-14.791-12.586c-0.56-5.164,0.917-10.145,4.074-13.661c2.798-3.136,6.744-4.871,11.104-4.884
		c0.012,0,0.042,0,0.07,0c8.927,0,14.27,5.562,18.962,11.828c0.006,0.006,0,0.013,0.006,0.019c0.019,0.027,0.037,0.046,0.055,0.07
		c0.862,1.142,1.69,2.295,2.518,3.461c0.177,0.255,0.375,0.481,0.551,0.737c-1.571-0.256-3.176,0.092-4.665,1.084
		c-2.64,1.754-3.361,5.322-1.617,7.977c0.923,1.4,2.463,2.144,4.022,2.144c0.911,0,1.854-0.262,2.682-0.816
		c0.911-0.597,1.522-1.51,1.732-2.581c0.219-1.072,0.006-2.156-0.597-3.063c-1.068-1.602-3.249-2.027-4.835-0.962
		c-0.365,0.244-0.441,0.664-0.386,1.078c-0.019,0.061-0.08,0.104-0.091,0.164c-0.07,0.73,0.478,1.383,1.208,1.431
		c0.661,0.062,1.184-0.401,1.361-1.022c0.354,0.049,0.691,0.207,0.91,0.523c0.274,0.414,0.372,0.92,0.274,1.412
		c-0.106,0.494-0.387,0.914-0.807,1.194c-1.203,0.804-2.84,0.475-3.647-0.719c-1.084-1.632-0.637-3.843,0.999-4.933
		c2.755-1.832,5.139-0.23,6.646,1.438c0,0,0,0,0.006,0c0.03,0.036,0.058,0.085,0.094,0.128c5.812,7.307,10.781,13.646,19.367,12.312
		c3.416-0.523,6.409-2.374,8.455-5.236c0.207-0.292,0.351-0.627,0.523-0.919v5.833c-2.91,0.523-5.118,3.051-5.118,6.113
		c0,3.057,2.208,5.596,5.118,6.107v5.176c-2.986-5.65-9.322-9.036-15.969-7.854c-0.597,0.109-0.995,0.676-0.892,1.272
		C85.865,126.072,86.431,126.45,87.031,126.365z M152.931,126.889c-2.911,3.531-6.339,4.481-9.712,2.569
		c-2.704-1.51-3.654-4.944-2.144-7.647c1.157-2.034,3.763-2.752,5.815-1.62c0.742,0.408,1.278,1.097,1.51,1.925
		s0.122,1.68-0.292,2.423c-0.311,0.548-0.804,0.938-1.419,1.12h-0.013c0-0.121,0.024-0.23,0.013-0.353
		c-0.146-1.048-1.139-1.778-2.187-1.62c-1.047,0.146-1.771,1.133-1.619,2.18c0.085,0.549,0.384,0.999,0.798,1.279
		c0.066,0.073,0.079,0.158,0.151,0.207c1.048,0.597,2.277,0.742,3.447,0.402c1.169-0.317,2.137-1.084,2.728-2.15
		c0.713-1.248,0.896-2.703,0.493-4.086c-0.39-1.395-1.291-2.533-2.545-3.245c-3.094-1.747-7.052-0.651-8.806,2.466
		c-2.094,3.764-0.767,8.525,2.99,10.632c1.517,0.853,3.038,1.267,4.549,1.267c0.779,0,1.547-0.128,2.313-0.347
		c-1.687,2.362-3.312,4.64-5.018,6.783c-3.379,4.269-6.351,7.897-9.268,10.692c-0.292-0.012-0.584,0.079-0.815,0.286
		c-6.053,5.657-12.361,6.412-17.75,2.132c-4.25-3.387-4.944-9.585-1.577-13.823c2.637-3.288,7.447-3.836,10.753-1.218
		c1.225,0.986,1.998,2.387,2.181,3.958c0.183,1.56-0.269,3.105-1.236,4.323c-0.786,0.986-1.906,1.547-3.063,1.681
		c0.263-0.463,0.457-0.974,0.457-1.534c0-1.729-1.406-3.143-3.142-3.143c-1.729,0-3.136,1.413-3.136,3.143
		c0,1.389,0.913,2.521,2.18,2.947c2.795,1.51,6.369,0.871,8.421-1.699c1.358-1.687,1.955-3.812,1.711-5.955
		c-0.243-2.162-1.309-4.074-2.989-5.42c-4.257-3.385-10.461-2.679-13.835,1.571c-4.128,5.188-3.264,12.781,1.918,16.903
		c0.762,0.604,1.528,1.103,2.32,1.535c-3.532-0.907-6.655-2.99-8.866-6.053c-2.594-3.617-3.629-8.221-2.837-12.599
		c1.254-7.003,7.94-11.691,14.991-10.437c0.585,0.098,1.169-0.293,1.267-0.889c0.109-0.598-0.292-1.176-0.896-1.268
		c-6.618-1.193-12.97,2.205-15.969,7.844v-5.164c2.914-0.523,5.124-3.057,5.124-6.113c0-3.062-2.21-5.596-5.124-6.107v-5.84
		c0.183,0.305,0.32,0.646,0.539,0.92c2.046,2.85,5.042,4.719,8.445,5.242c8.537,1.303,13.573-5.012,19.364-12.324
		c0.036-0.043,0.066-0.085,0.097-0.122c0,0,0.013,0,0.013-0.012c1.498-1.669,3.866-3.264,6.637-1.431
		c1.632,1.09,2.083,3.294,0.999,4.926c-0.792,1.205-2.454,1.522-3.642,0.73c-0.426-0.28-0.706-0.7-0.804-1.193
		c-0.109-0.493,0-0.986,0.28-1.412c0.207-0.329,0.548-0.481,0.907-0.524c0.158,0.615,0.682,1.078,1.352,1.023
		c0.731-0.062,1.267-0.706,1.206-1.438c0-0.067-0.073-0.109-0.085-0.171c0.061-0.401-0.031-0.828-0.39-1.071
		c-1.596-1.065-3.764-0.633-4.829,0.962c-0.609,0.914-0.816,1.998-0.603,3.063c0.213,1.06,0.834,1.991,1.729,2.6
		c0.834,0.536,1.753,0.804,2.679,0.804c1.559,0,3.094-0.755,4.025-2.155c1.753-2.643,1.035-6.211-1.614-7.971
		c-1.491-0.993-3.087-1.333-4.664-1.078c0.171-0.249,0.359-0.48,0.542-0.736c0.815-1.154,1.656-2.296,2.49-3.429
		c0.03-0.039,0.067-0.069,0.104-0.106c0-0.006,0-0.021,0-0.033c4.688-6.266,10.029-11.822,18.962-11.822c0.024,0,0.049,0,0.061,0
		c4.372,0.016,8.318,1.748,11.119,4.89c3.142,3.517,4.621,8.498,4.049,13.655c-0.396,3.769-2.253,7.143-5.212,9.529
		c-2.728,2.192-6.102,3.228-9.554,3.044c-2.113-0.358-3.757-1.278-4.835-2.812c-1.291-1.827-1.711-4.385-1.163-7.027
		c0.371-1.698,1.357-3.154,2.807-4.098c1.456-0.943,3.191-1.267,4.89-0.907c1.304,0.28,2.418,1.048,3.143,2.155
		c0.719,1.121,0.962,2.448,0.682,3.751c-0.194,0.975-0.767,1.814-1.613,2.356c-0.847,0.555-1.839,0.749-2.838,0.536
		c-0.651-0.128-1.188-0.523-1.595-1.041c0.974-0.231,1.692-1.072,1.687-2.113c-0.013-1.199-0.999-2.161-2.204-2.149
		c-0.664,0.012-1.242,0.341-1.639,0.828c-0.273,0.146-0.487,0.39-0.554,0.706c-0.28,1.304-0.024,2.637,0.694,3.751
		c0.73,1.121,1.851,1.888,3.154,2.168c1.57,0.335,3.166,0.037,4.493-0.847c1.334-0.87,2.241-2.204,2.558-3.751
		c0.402-1.869,0.055-3.787-0.986-5.389c-1.041-1.613-2.655-2.719-4.543-3.117c-2.24-0.481-4.579-0.049-6.539,1.214
		c-1.949,1.257-3.276,3.212-3.77,5.483c-0.523,2.473-0.316,4.896,0.536,6.942c-0.244-0.244-0.512-0.47-0.731-0.743
		c-1.863-2.32-2.715-5.225-2.387-8.184c0.523-4.762,4.908-8.211,9.572-7.694c0.651,0.037,1.157-0.38,1.212-0.971
		c0.067-0.606-0.378-1.154-0.968-1.212c-5.992-0.648-11.351,3.681-12.008,9.639c-0.391,3.545,0.633,7.021,2.855,9.798
		c2.229,2.776,5.413,4.519,8.957,4.908c0.365,0.036,0.719,0.036,1.078,0.049c0.055,0.012,0.097,0.024,0.14,0.036
		s0.098,0.012,0.128,0.012s0.043-0.023,0.061-0.023c0.128,0,0.269,0.023,0.39,0.023c1.486,0,2.936-0.255,4.336-0.645
		C159.812,118.133,156.255,122.407,152.931,126.889z M158.131,60.185c0,0-1.814-2.016-1.814-4.509c0-2.481,1.814-4.5,1.814-4.5
		s1.814,2.013,1.814,4.5S158.131,60.185,158.131,60.185z M49.299,60.185c0,0-1.827-2.016-1.827-4.509c0-2.481,1.827-4.5,1.827-4.5
		s1.814,2.013,1.814,4.5S49.299,60.185,49.299,60.185z M23.292,88.387c0,0-1.814-2.016-1.814-4.503s1.814-4.5,1.814-4.5
		s1.814,2.007,1.814,4.5C25.107,86.371,23.292,88.387,23.292,88.387z M184.138,88.387c0,0-1.814-2.016-1.814-4.503
		s1.814-4.5,1.814-4.5s1.814,2.007,1.814,4.5C185.952,86.371,184.138,88.387,184.138,88.387z"/>
</g>
<g>
</g>
<g>
</g>
<g>
</g>
<g>
</g>
<g>
</g>
<g>
</g>
<g>
</g>
<g>
</g>
<g>
</g>
<g>
</g>
<g>
</g>
<g>
</g>
<g>
</g>
<g>
</g>
<g>
</g>
</svg>
