<?xml version="1.0" encoding="iso-8859-1"?>
<!-- Generator: Adobe Illustrator 16.0.0, SVG Export Plug-In . SVG Version: 6.00 Build 0)  -->
<!DOCTYPE svg PUBLIC "-//W3C//DTD SVG 1.1//EN" "http://www.w3.org/Graphics/SVG/1.1/DTD/svg11.dtd">
<svg version="1.1" id="Capa_1" xmlns="http://www.w3.org/2000/svg" xmlns:xlink="http://www.w3.org/1999/xlink" x="0px" y="0px"
	 width="165.291px" height="165.291px" viewBox="0 0 165.291 165.291" style="enable-background:new 0 0 165.291 165.291;"
	 xml:space="preserve">
<g>
	<path d="M113.989,165.202c-0.207,0-0.433-0.049-0.64-0.128c-0.992-0.354-1.491-1.431-1.145-2.424l5.554-15.411
		c0.177-0.469,0.535-0.865,0.998-1.072l32.06-14.65l10.474-40.748c-0.536-0.378-1.005-0.396-1.327-0.396
		c-2.156,0.141-4.993,3.24-6.388,5.311l-8.909,29.775c-0.151,0.536-0.523,0.943-1.017,1.176l-12.854,5.852
		c-3.727,1.687-6.893,1.924-9.443,0.572c-3.502-1.852-4.202-5.889-4.244-6.053c-0.128-0.871,0.316-1.693,1.09-2.034l12.854-5.882
		c3.045-1.4,4.957-3.179,5.676-5.298c0.426-1.242,0.365-2.454,0.183-3.36l-35.671,16.33l-8.598,18.268
		c-0.438,0.938-1.571,1.315-2.509,0.908c-0.95-0.439-1.352-1.571-0.901-2.521l8.891-18.9c0.177-0.402,0.512-0.719,0.913-0.914
		l38.191-17.463c0.877-0.384,1.948-0.098,2.46,0.803c0.085,0.146,2.046,3.812,0.646,8.002c-1.041,3.178-3.642,5.724-7.709,7.587
		l-11.313,5.176c0.341,0.719,0.913,1.559,1.826,2.021c1.438,0.768,3.483,0.536,6.065-0.67l12.081-5.505l8.744-29.228
		c0.048-0.183,0.134-0.353,0.225-0.499c0.463-0.694,4.628-6.905,9.469-7.222c1.419-0.22,3.337,0.268,5.127,2.374
		c0.39,0.451,0.536,1.084,0.39,1.688L154.25,133.35c-0.128,0.566-0.523,1.022-1.035,1.255l-32.151,14.681l-5.285,14.681
		C115.511,164.715,114.768,165.202,113.989,165.202z M51.965,165.093c0.977-0.354,1.489-1.432,1.142-2.424l-5.562-15.418
		c-0.177-0.463-0.536-0.864-0.999-1.071l-32.05-14.645L4.003,90.792c0.542-0.389,0.971-0.389,1.328-0.401
		c2.162,0.134,5.005,3.228,6.415,5.298l8.887,29.775c0.155,0.536,0.524,0.963,1.02,1.182l12.857,5.852
		c3.742,1.687,6.936,1.875,9.459,0.572c3.486-1.875,4.183-5.888,4.217-6.064c0.137-0.858-0.308-1.687-1.081-2.034l-12.857-5.863
		c-3.048-1.407-4.957-3.185-5.678-5.304c-0.411-1.242-0.362-2.454-0.177-3.361l35.661,16.318l8.598,18.268
		c0.441,0.95,1.559,1.315,2.512,0.908c0.95-0.433,1.349-1.571,0.904-2.527l-8.891-18.889c-0.188-0.408-0.518-0.713-0.922-0.907
		l-38.179-17.476c-0.849-0.359-1.945-0.08-2.438,0.815c-0.094,0.14-2.052,3.794-0.667,8.001c1.042,3.179,3.642,5.725,7.712,7.588
		l11.311,5.176c-0.341,0.712-0.904,1.546-1.821,2.003c-1.763,0.974-4.29,0.171-6.077-0.664l-12.084-5.505L15.281,94.33
		c-0.043-0.183-0.131-0.358-0.223-0.499c-0.462-0.7-4.646-6.924-9.49-7.222c-1.166-0.128-3.337,0.256-5.121,2.368
		c-0.393,0.457-0.542,1.097-0.387,1.699l10.994,42.686c0.137,0.535,0.524,0.998,1.042,1.229l32.147,14.681l5.289,14.682
		c0.274,0.755,1.004,1.224,1.784,1.224C51.532,165.202,51.751,165.153,51.965,165.093z M110.707,8.06H85.759
		c-1.041,0-1.896,0.834-1.896,1.887s0.855,1.891,1.896,1.891h23.042v27.684c0,1.053,0.858,1.881,1.905,1.881
		c1.048,0,1.906-0.828,1.906-1.881V9.94C112.613,8.888,111.748,8.06,110.707,8.06z M47.081,98.843h71.133
		c1.042,0,1.895-0.828,1.895-1.876V1.979c0-1.048-0.847-1.891-1.895-1.891H47.081c-1.041,0-1.894,0.843-1.894,1.891v94.976
		C45.188,98.015,46.034,98.843,47.081,98.843z M82.648,95.81c-1.309,0-2.362-1.047-2.362-2.362s1.053-2.362,2.362-2.362
		c1.297,0,2.362,1.047,2.362,2.362S83.945,95.81,82.648,95.81z M48.978,3.87h67.337v85.145H48.978V3.87z"/>
</g>
<g>
</g>
<g>
</g>
<g>
</g>
<g>
</g>
<g>
</g>
<g>
</g>
<g>
</g>
<g>
</g>
<g>
</g>
<g>
</g>
<g>
</g>
<g>
</g>
<g>
</g>
<g>
</g>
<g>
</g>
</svg>
